SplineFontDB: 3.0
FontName: Midway-Italic
FullName: Midway Italic
FamilyName: Midway
Weight: Book
Copyright: Copyright 2011 Canonical Ltd.\nCopyright 2015 Yuta Taniguchi\nLicensed under the Ubuntu Font Licence 1.0
Version: 0.1
ItalicAngle: -13
UnderlinePosition: -156
UnderlineWidth: 23
Ascent: 800
Descent: 200
InvalidEm: 0
sfntRevision: 0x0000199a
LayerCount: 2
Layer: 0 1 "Back" 1
Layer: 1 1 "Fore" 0
XUID: [1021 935 -1301570125 639830]
StyleMap: 0x0001
FSType: 0
OS2Version: 3
OS2_WeightWidthSlopeOnly: 0
OS2_UseTypoMetrics: 0
CreationTime: 1304432203
ModificationTime: 1453368781
PfmFamily: 17
TTFWeight: 400
TTFWidth: 5
LineGap: 0
VLineGap: 0
Panose: 2 11 5 9 3 6 2 10 2 4
OS2TypoAscent: 0
OS2TypoAOffset: 1
OS2TypoDescent: 0
OS2TypoDOffset: 1
OS2TypoLinegap: 0
OS2WinAscent: 0
OS2WinAOffset: 1
OS2WinDescent: 0
OS2WinDOffset: 1
HheadAscent: 0
HheadAOffset: 1
HheadDescent: 0
HheadDOffset: 1
OS2SubXSize: 824
OS2SubYSize: 766
OS2SubXOff: 0
OS2SubYOff: 165
OS2SupXSize: 824
OS2SupYSize: 766
OS2SupXOff: 0
OS2SupYOff: 562
OS2StrikeYSize: 59
OS2StrikeYPos: 294
OS2CapHeight: 729
OS2XHeight: 547
OS2Vendor: 'DAMA'
OS2CodePages: 2000009f.56010000
OS2UnicodeRanges: e00002ff.5000205b.00000000.00000000
Lookup: 1 0 0 "'locl' Localized Forms in Latin lookup 0" { "'locl' Localized Forms in Latin lookup 0 subtable"  } ['locl' ('latn' <'AZE ' > ) ]
Lookup: 1 0 0 "'locl' Localized Forms in Latin lookup 1" { "'locl' Localized Forms in Latin lookup 1 subtable"  } ['locl' ('latn' <'TRK ' > ) ]
Lookup: 1 0 0 "'locl' Localized Forms in Latin lookup 2" { "'locl' Localized Forms in Latin lookup 2 subtable"  } ['locl' ('latn' <'CRT ' > ) ]
Lookup: 1 0 0 "'locl' Localized Forms in Cyrillic lookup 3" { "'locl' Localized Forms in Cyrillic lookup 3 subtable"  } ['locl' ('cyrl' <'SRB ' > ) ]
Lookup: 1 0 0 "'locl' Localized Forms in Cyrillic lookup 4" { "'locl' Localized Forms in Cyrillic lookup 4 subtable"  } ['locl' ('cyrl' <'BGR ' > ) ]

StartChar: SF030000.001
Encoding: 65536 -1 0
Width: 588
VWidth: 1177
Flags: W
LayerCount: 2
Fore
SplineSet
59 0 m 1,0,-1
 59 883 l 1,1,-1
 530 883 l 1,2,-1
 530 0 l 1,3,-1
 59 0 l 1,0,-1
471 59 m 1,4,-1
 471 824 l 1,5,-1
 118 824 l 1,6,-1
 118 59 l 1,7,-1
 471 59 l 1,4,-1
EndSplineSet
EndChar

StartChar: exclam
Encoding: 33 33 4
Width: 588
VWidth: 1177
Flags: W
LayerCount: 2
Fore
SplineSet
441 531 m 2,0,1
 430 487 430 487 420 451 c 128,-1,2
 410 415 410 415 399.5 382 c 128,-1,3
 389 349 389 349 377.5 316.5 c 128,-1,4
 366 284 366 284 355 249 c 1,5,-1
 287 249 l 1,6,7
 292 284 292 284 296 316.5 c 128,-1,8
 300 349 300 349 305.5 382 c 128,-1,9
 311 415 311 415 318 451.5 c 128,-1,10
 325 488 325 488 336 531 c 2,11,-1
 383 729 l 1,12,-1
 488 729 l 1,13,-1
 441 531 l 2,0,1
273 -14 m 0,14,15
 242 -14 242 -14 223 3.5 c 128,-1,16
 204 21 204 21 204 57 c 0,17,18
 204 99 204 99 228 122.5 c 128,-1,19
 252 146 252 146 286 146 c 0,20,21
 317 146 317 146 337.5 128 c 128,-1,22
 358 110 358 110 358 74 c 0,23,24
 358 33 358 33 331.5 9.5 c 128,-1,25
 305 -14 305 -14 273 -14 c 0,14,15
EndSplineSet
EndChar

StartChar: quotedbl
Encoding: 34 34 5
Width: 588
VWidth: 1177
Flags: W
LayerCount: 2
Fore
SplineSet
402 800 m 1,0,-1
 389 747 l 2,1,2
 376 695 376 695 354.5 628.5 c 128,-1,3
 333 562 333 562 310 506 c 1,4,-1
 260 506 l 1,5,6
 266 561 266 561 276 628 c 128,-1,7
 286 695 286 695 299 748 c 2,8,-1
 311 800 l 1,9,-1
 402 800 l 1,0,-1
595 800 m 1,10,-1
 583 747 l 2,11,12
 570 695 570 695 549 628.5 c 128,-1,13
 528 562 528 562 505 506 c 1,14,-1
 456 506 l 1,15,16
 461 561 461 561 470 628 c 128,-1,17
 479 695 479 695 492 748 c 2,18,-1
 505 800 l 1,19,-1
 595 800 l 1,10,-1
EndSplineSet
EndChar

StartChar: numbersign
Encoding: 35 35 6
Width: 588
VWidth: 1177
Flags: W
LayerCount: 2
Fore
SplineSet
353 0 m 1,0,-1
 265 0 l 1,1,-1
 349 192 l 1,2,-1
 218 192 l 1,3,-1
 134 0 l 1,4,-1
 47 0 l 1,5,-1
 130 192 l 1,6,-1
 54 192 l 1,7,-1
 73 271 l 1,8,-1
 163 271 l 1,9,-1
 244 458 l 1,10,-1
 118 458 l 1,11,-1
 137 536 l 1,12,-1
 280 536 l 1,13,-1
 362 729 l 1,14,-1
 450 729 l 1,15,-1
 369 536 l 1,16,-1
 498 536 l 1,17,-1
 581 729 l 1,18,-1
 669 729 l 1,19,-1
 587 536 l 1,20,-1
 663 536 l 1,21,-1
 644 458 l 1,22,-1
 552 458 l 1,23,-1
 471 271 l 1,24,-1
 598 271 l 1,25,-1
 580 192 l 1,26,-1
 437 192 l 1,27,-1
 353 0 l 1,0,-1
463 458 m 1,28,-1
 333 458 l 1,29,-1
 252 271 l 1,30,-1
 382 271 l 1,31,-1
 463 458 l 1,28,-1
EndSplineSet
EndChar

StartChar: dollar
Encoding: 36 36 7
Width: 588
VWidth: 1177
Flags: W
LayerCount: 2
Fore
SplineSet
287 104 m 0,0,1
 318 104 318 104 348 109 c 128,-1,2
 378 114 378 114 401.5 127.5 c 128,-1,3
 425 141 425 141 440 163 c 128,-1,4
 455 185 455 185 455 219 c 0,5,6
 455 243 455 243 445.5 259.5 c 128,-1,7
 436 276 436 276 420 289.5 c 128,-1,8
 404 303 404 303 381 314 c 128,-1,9
 358 325 358 325 332 338 c 0,10,11
 308 349 308 349 286 362.5 c 128,-1,12
 264 376 264 376 246.5 395.5 c 128,-1,13
 229 415 229 415 217.5 442 c 128,-1,14
 206 469 206 469 206 506 c 0,15,16
 206 581 206 581 257.5 632 c 128,-1,17
 309 683 309 683 409 696 c 1,18,-1
 437 816 l 1,19,-1
 523 816 l 1,20,-1
 495 698 l 1,21,22
 540 693 540 693 575.5 680 c 128,-1,23
 611 667 611 667 631 654 c 1,24,-1
 587 581 l 1,25,26
 569 594 569 594 535 605 c 128,-1,27
 501 616 501 616 450 616 c 0,28,29
 419 616 419 616 392 610 c 128,-1,30
 365 604 365 604 345 592 c 128,-1,31
 325 580 325 580 313.5 560.5 c 128,-1,32
 302 541 302 541 302 515 c 0,33,34
 302 471 302 471 328.5 448 c 128,-1,35
 355 425 355 425 408 399 c 0,36,37
 437 386 437 386 463 372 c 128,-1,38
 489 358 489 358 508.5 338 c 128,-1,39
 528 318 528 318 539.5 291 c 128,-1,40
 551 264 551 264 551 227 c 0,41,42
 551 181 551 181 535 145.5 c 128,-1,43
 519 110 519 110 490 84 c 128,-1,44
 461 58 461 58 420.5 42 c 128,-1,45
 380 26 380 26 331 21 c 1,46,-1
 300 -114 l 1,47,-1
 214 -114 l 1,48,-1
 247 22 l 1,49,50
 193 24 193 24 147 41 c 128,-1,51
 101 58 101 58 82 71 c 1,52,-1
 130 148 l 1,53,54
 149 136 149 136 187.5 120 c 128,-1,55
 226 104 226 104 287 104 c 0,0,1
EndSplineSet
EndChar

StartChar: percent
Encoding: 37 37 8
Width: 588
VWidth: 1177
Flags: W
LayerCount: 2
Fore
SplineSet
91 0 m 1,0,-1
 6 0 l 1,1,-1
 627 729 l 1,2,-1
 711 729 l 1,3,-1
 91 0 l 1,0,-1
117 503 m 0,4,5
 117 538 117 538 125.5 580.5 c 128,-1,6
 134 623 134 623 154 659 c 128,-1,7
 174 695 174 695 205.5 719.5 c 128,-1,8
 237 744 237 744 283 744 c 0,9,10
 384 744 384 744 384 623 c 0,11,12
 384 564 384 564 370.5 518.5 c 128,-1,13
 357 473 357 473 334 442 c 128,-1,14
 311 411 311 411 281.5 394.5 c 128,-1,15
 252 378 252 378 219 378 c 0,16,17
 170 378 170 378 143.5 410 c 128,-1,18
 117 442 117 442 117 503 c 0,4,5
230 441 m 0,19,20
 252 441 252 441 267.5 461.5 c 128,-1,21
 283 482 283 482 293 509.5 c 128,-1,22
 303 537 303 537 307 566.5 c 128,-1,23
 311 596 311 596 311 614 c 0,24,25
 311 645 311 645 301.5 664 c 128,-1,26
 292 683 292 683 272 683 c 0,27,28
 257 683 257 683 242 669.5 c 128,-1,29
 227 656 227 656 215.5 632.5 c 128,-1,30
 204 609 204 609 197 578 c 128,-1,31
 190 547 190 547 190 512 c 0,32,33
 190 479 190 479 199.5 460 c 128,-1,34
 209 441 209 441 230 441 c 0,19,20
333 108 m 0,35,36
 333 143 333 143 342 186 c 128,-1,37
 351 229 351 229 371 264.5 c 128,-1,38
 391 300 391 300 422 325 c 128,-1,39
 453 350 453 350 499 350 c 0,40,41
 600 350 600 350 601 229 c 0,42,43
 601 170 601 170 587.5 124.5 c 128,-1,44
 574 79 574 79 551 47.5 c 128,-1,45
 528 16 528 16 498.5 0.5 c 128,-1,46
 469 -15 469 -15 436 -15 c 0,47,48
 387 -15 387 -15 360 16 c 128,-1,49
 333 47 333 47 333 108 c 0,35,36
446 46 m 0,50,51
 468 46 468 46 483.5 66.5 c 128,-1,52
 499 87 499 87 509 115 c 128,-1,53
 519 143 519 143 523.5 172 c 128,-1,54
 528 201 528 201 528 219 c 0,55,56
 528 250 528 250 518.5 269.5 c 128,-1,57
 509 289 509 289 489 289 c 0,58,59
 474 289 474 289 459 275 c 128,-1,60
 444 261 444 261 432 237.5 c 128,-1,61
 420 214 420 214 413 183 c 128,-1,62
 406 152 406 152 406 118 c 0,63,64
 406 85 406 85 415.5 65.5 c 128,-1,65
 425 46 425 46 446 46 c 0,50,51
EndSplineSet
EndChar

StartChar: ampersand
Encoding: 38 38 9
Width: 588
VWidth: 1177
Flags: W
LayerCount: 2
Fore
SplineSet
379 332 m 2,0,1
 393 308 393 308 408 285.5 c 128,-1,2
 423 263 423 263 438 237 c 1,3,4
 471 302 471 302 496 392 c 1,5,-1
 578 382 l 1,6,7
 558 313 558 313 533.5 257 c 128,-1,8
 509 201 509 201 482 158 c 1,9,10
 498 124 498 124 512.5 86 c 128,-1,11
 527 48 527 48 539 0 c 1,12,-1
 438 0 l 1,13,14
 429 40 429 40 417 78 c 1,15,16
 370 32 370 32 320 11.5 c 128,-1,17
 270 -9 270 -9 219 -9 c 0,18,19
 185 -9 185 -9 157.5 2.5 c 128,-1,20
 130 14 130 14 110 35.5 c 128,-1,21
 90 57 90 57 78.5 85 c 128,-1,22
 67 113 67 113 67 145 c 0,23,24
 67 173 67 173 74.5 204.5 c 128,-1,25
 82 236 82 236 99.5 266.5 c 128,-1,26
 117 297 117 297 145.5 326.5 c 128,-1,27
 174 356 174 356 217 383 c 2,28,-1
 240 398 l 1,29,30
 222 431 222 431 211.5 463 c 128,-1,31
 201 495 201 495 201 527 c 0,32,33
 201 579 201 579 219 619.5 c 128,-1,34
 237 660 237 660 267 688 c 128,-1,35
 297 716 297 716 336.5 731 c 128,-1,36
 376 746 376 746 418 746 c 0,37,38
 444 746 444 746 467.5 738 c 128,-1,39
 491 730 491 730 509 715.5 c 128,-1,40
 527 701 527 701 537 678 c 128,-1,41
 547 655 547 655 547 624 c 0,42,43
 547 596 547 596 537.5 565 c 128,-1,44
 528 534 528 534 506.5 502.5 c 128,-1,45
 485 471 485 471 450 440.5 c 128,-1,46
 415 410 415 410 364 384 c 2,47,-1
 351 378 l 1,48,-1
 379 332 l 2,0,1
167 159 m 0,49,50
 167 121 167 121 187 96.5 c 128,-1,51
 207 72 207 72 250 72 c 0,52,53
 283 72 283 72 317 91.5 c 128,-1,54
 351 111 351 111 385 152 c 1,55,56
 359 205 359 205 330.5 250.5 c 128,-1,57
 302 296 302 296 276 338 c 1,58,-1
 265 331 l 2,59,60
 234 312 234 312 215.5 292 c 128,-1,61
 197 272 197 272 186.5 251 c 128,-1,62
 176 230 176 230 171.5 207 c 128,-1,63
 167 184 167 184 167 159 c 0,49,50
336 446 m 2,64,65
 365 461 365 461 388 482 c 128,-1,66
 411 503 411 503 426.5 526 c 128,-1,67
 442 549 442 549 449.5 572 c 128,-1,68
 457 595 457 595 457 615 c 0,69,70
 457 642 457 642 438.5 655.5 c 128,-1,71
 420 669 420 669 397 669 c 0,72,73
 378 669 378 669 359 661 c 128,-1,74
 340 653 340 653 325.5 635 c 128,-1,75
 311 617 311 617 302 590.5 c 128,-1,76
 293 564 293 564 293 528 c 0,77,78
 293 504 293 504 298.5 483.5 c 128,-1,79
 304 463 304 463 317 437 c 1,80,-1
 336 446 l 2,64,65
EndSplineSet
EndChar

StartChar: quotesingle
Encoding: 39 39 10
Width: 588
VWidth: 1177
Flags: W
LayerCount: 2
Fore
SplineSet
509 800 m 1,0,-1
 496 747 l 2,1,2
 490 721 490 721 480.5 687.5 c 128,-1,3
 471 654 471 654 459.5 618 c 128,-1,4
 448 582 448 582 436 547 c 128,-1,5
 424 512 424 512 413 485 c 1,6,-1
 353 485 l 1,7,8
 355 512 355 512 359.5 547 c 128,-1,9
 364 582 364 582 370 618 c 128,-1,10
 376 654 376 654 382.5 688 c 128,-1,11
 389 722 389 722 396 748 c 2,12,-1
 408 800 l 1,13,-1
 509 800 l 1,0,-1
EndSplineSet
EndChar

StartChar: parenleft
Encoding: 40 40 11
Width: 588
VWidth: 1177
Flags: W
LayerCount: 2
Fore
SplineSet
616 750 m 1,0,1
 539 702 539 702 475 638.5 c 128,-1,2
 411 575 411 575 364 502.5 c 128,-1,3
 317 430 317 430 291 351 c 128,-1,4
 265 272 265 272 265 191 c 0,5,6
 265 106 265 106 295.5 23.5 c 128,-1,7
 326 -59 326 -59 397 -133 c 1,8,-1
 333 -197 l 1,9,10
 248 -112 248 -112 210 -14 c 128,-1,11
 172 84 172 84 172 185 c 0,12,13
 172 278 172 278 201.5 369.5 c 128,-1,14
 231 461 231 461 284.5 544.5 c 128,-1,15
 338 628 338 628 413 700.5 c 128,-1,16
 488 773 488 773 578 826 c 1,17,-1
 616 750 l 1,0,1
EndSplineSet
Substitution2: "'case' Case-Sensitive Forms lookup 17 subtable" Parenleft
EndChar

StartChar: parenright
Encoding: 41 41 12
Width: 588
VWidth: 1177
Flags: W
LayerCount: 2
Fore
SplineSet
66 -121 m 1,0,1
 143 -73 143 -73 207.5 -9.5 c 128,-1,2
 272 54 272 54 318.5 126.5 c 128,-1,3
 365 199 365 199 391.5 278 c 128,-1,4
 418 357 418 357 418 438 c 0,5,6
 418 523 418 523 387 605.5 c 128,-1,7
 356 688 356 688 286 762 c 1,8,-1
 349 826 l 1,9,10
 434 741 434 741 472.5 643 c 128,-1,11
 511 545 511 545 511 444 c 0,12,13
 511 351 511 351 481.5 259.5 c 128,-1,14
 452 168 452 168 398.5 84.5 c 128,-1,15
 345 1 345 1 270.5 -71.5 c 128,-1,16
 196 -144 196 -144 104 -197 c 1,17,-1
 66 -121 l 1,0,1
EndSplineSet
Substitution2: "'case' Case-Sensitive Forms lookup 17 subtable" Parenright
EndChar

StartChar: asterisk
Encoding: 42 42 13
Width: 588
VWidth: 1177
Flags: W
LayerCount: 2
Fore
SplineSet
432 491 m 1,0,1
 465 462 465 462 498.5 429.5 c 128,-1,2
 532 397 532 397 556 360 c 2,3,-1
 561 355 l 1,4,-1
 478 294 l 1,5,-1
 473 302 l 2,6,7
 447 337 447 337 427.5 378.5 c 128,-1,8
 408 420 408 420 390 459 c 1,9,10
 372 420 372 420 351.5 378.5 c 128,-1,11
 331 337 331 337 304 302 c 2,12,-1
 299 296 l 1,13,-1
 218 355 l 1,14,-1
 223 362 l 2,15,16
 250 399 250 399 282 430.5 c 128,-1,17
 314 462 314 462 347 491 c 1,18,19
 303 497 303 497 257.5 503.5 c 128,-1,20
 212 510 212 510 171 524 c 2,21,-1
 163 527 l 1,22,-1
 193 623 l 1,23,-1
 201 620 l 2,24,25
 242 604 242 604 284 583.5 c 128,-1,26
 326 563 326 563 364 542 c 1,27,28
 355 584 355 584 347 630 c 128,-1,29
 339 676 339 676 339 721 c 2,30,-1
 339 729 l 1,31,-1
 441 729 l 1,32,-1
 441 721 l 2,33,34
 441 676 441 676 433 630 c 128,-1,35
 425 584 425 584 417 542 c 1,36,37
 455 564 455 564 496 583.5 c 128,-1,38
 537 603 537 603 577 618 c 2,39,-1
 585 622 l 1,40,-1
 616 525 l 1,41,-1
 609 523 l 2,42,43
 568 510 568 510 522 503 c 128,-1,44
 476 496 476 496 432 491 c 1,0,1
EndSplineSet
EndChar

StartChar: plus
Encoding: 43 43 14
Width: 588
VWidth: 1177
Flags: W
LayerCount: 2
Fore
SplineSet
457 568 m 1,0,-1
 404 351 l 1,1,-1
 594 351 l 1,2,-1
 574 269 l 1,3,-1
 384 269 l 1,4,-1
 331 51 l 1,5,-1
 243 51 l 1,6,-1
 294 269 l 1,7,-1
 101 269 l 1,8,-1
 121 351 l 1,9,-1
 314 351 l 1,10,-1
 367 568 l 1,11,-1
 457 568 l 1,0,-1
EndSplineSet
EndChar

StartChar: comma
Encoding: 44 44 15
Width: 588
VWidth: 1177
Flags: W
LayerCount: 2
Fore
SplineSet
271 -9 m 1,0,1
 238 -4 238 -4 221.5 18.5 c 128,-1,2
 205 41 205 41 205 69 c 0,3,4
 205 109 205 109 230.5 136.5 c 128,-1,5
 256 164 256 164 300 164 c 0,6,7
 339 164 339 164 359.5 136 c 128,-1,8
 380 108 380 108 380 67 c 0,9,10
 380 33 380 33 366 -4.5 c 128,-1,11
 352 -42 352 -42 322 -76.5 c 128,-1,12
 292 -111 292 -111 245 -136 c 128,-1,13
 198 -161 198 -161 133 -170 c 1,14,-1
 124 -93 l 1,15,16
 144 -92 144 -92 167 -86 c 128,-1,17
 190 -80 190 -80 210.5 -70 c 128,-1,18
 231 -60 231 -60 247.5 -45 c 128,-1,19
 264 -30 264 -30 271 -9 c 1,0,1
EndSplineSet
EndChar

StartChar: hyphen
Encoding: 45 45 16
Width: 588
VWidth: 1177
Flags: W
LayerCount: 2
Fore
SplineSet
183 345 m 1,0,-1
 535 345 l 1,1,-1
 514 253 l 1,2,-1
 160 253 l 5,3,-1
 183 345 l 1,0,-1
EndSplineSet
Substitution2: "'case' Case-Sensitive Forms lookup 17 subtable" Hyphen
EndChar

StartChar: period
Encoding: 46 46 17
Width: 588
VWidth: 1177
Flags: W
LayerCount: 2
Fore
SplineSet
283 -14 m 0,0,1
 250 -14 250 -14 227.5 6 c 128,-1,2
 205 26 205 26 205 65 c 0,3,4
 205 114 205 114 232.5 140 c 128,-1,5
 260 166 260 166 298 166 c 0,6,7
 331 166 331 166 354.5 145.5 c 128,-1,8
 378 125 378 125 378 84 c 0,9,10
 378 62 378 62 370 44 c 128,-1,11
 362 26 362 26 348.5 13 c 128,-1,12
 335 0 335 0 318 -7 c 128,-1,13
 301 -14 301 -14 283 -14 c 0,0,1
EndSplineSet
EndChar

StartChar: slash
Encoding: 47 47 18
Width: 588
VWidth: 1177
Flags: W
LayerCount: 2
Fore
SplineSet
79 -194 m 1,0,-1
 -20 -194 l 1,1,-1
 554 823 l 1,2,-1
 651 823 l 1,3,-1
 79 -194 l 1,0,-1
EndSplineSet
Substitution2: "'case' Case-Sensitive Forms lookup 17 subtable" Slash
Substitution2: "'ss02' Style Set 2 lookup 14 subtable" fraction
Substitution2: "'frac' Diagonal Fractions lookup 12 subtable" fraction
EndChar

StartChar: zero
Encoding: 48 48 19
Width: 588
VWidth: 1177
Flags: W
LayerCount: 2
Fore
SplineSet
617 527 m 0,0,1
 617 475 617 475 607.5 415 c 128,-1,2
 598 355 598 355 579.5 294 c 128,-1,3
 561 233 561 233 532.5 177.5 c 128,-1,4
 504 122 504 122 466 79.5 c 128,-1,5
 428 37 428 37 379.5 11 c 128,-1,6
 331 -15 331 -15 273 -15 c 0,7,8
 183 -15 183 -15 141 39.5 c 128,-1,9
 99 94 99 94 99 203 c 0,10,11
 99 255 99 255 108.5 315.5 c 128,-1,12
 118 376 118 376 136.5 436 c 128,-1,13
 155 496 155 496 183.5 552 c 128,-1,14
 212 608 212 608 250.5 651 c 128,-1,15
 289 694 289 694 336.5 720 c 128,-1,16
 384 746 384 746 443 746 c 0,17,18
 533 746 533 746 575 691.5 c 128,-1,19
 617 637 617 637 617 527 c 0,0,1
518 515 m 0,20,21
 518 594 518 594 499.5 627 c 128,-1,22
 481 660 481 660 431 660 c 256,23,24
 382 660 382 660 339.5 617 c 128,-1,25
 297 574 297 574 265 508 c 128,-1,26
 233 442 233 442 215.5 364 c 128,-1,27
 198 286 198 286 198 216 c 0,28,29
 198 137 198 137 217.5 104 c 128,-1,30
 237 71 237 71 285 71 c 0,31,32
 334 71 334 71 377 114 c 128,-1,33
 420 157 420 157 451.5 222 c 128,-1,34
 483 287 483 287 500.5 365.5 c 128,-1,35
 518 444 518 444 518 515 c 0,20,21
353 302 m 0,36,37
 326 302 326 302 308 318.5 c 128,-1,38
 290 335 290 335 290 369 c 0,39,40
 290 410 290 410 313 433 c 128,-1,41
 336 456 336 456 366 456 c 0,42,43
 393 456 393 456 412.5 437.5 c 128,-1,44
 432 419 432 419 432 385 c 0,45,46
 432 347 432 347 408 324.5 c 128,-1,47
 384 302 384 302 353 302 c 0,36,37
EndSplineSet
Substitution2: "'ss02' Style Set 2 lookup 15 subtable" zerosuperior
Substitution2: "'sinf' Scientific Inferiors lookup 11 subtable" zero.sinf
Substitution2: "'subs' Subscript lookup 10 subtable" zero.sinf
Substitution2: "'sups' Superscript lookup 9 subtable" zero.sups
Substitution2: "'dnom' Denominators lookup 8 subtable" zeroinferior
Substitution2: "'numr' Numerators lookup 6 subtable" zerosuperior
EndChar

StartChar: one
Encoding: 49 49 20
Width: 588
VWidth: 1177
Flags: W
LayerCount: 2
Fore
SplineSet
213 578 m 1,0,1
 279 602 279 602 344 638 c 128,-1,2
 409 674 409 674 469 729 c 1,3,-1
 538 729 l 1,4,-1
 383 82 l 1,5,-1
 519 82 l 1,6,-1
 499 0 l 1,7,-1
 108 0 l 1,8,-1
 128 82 l 1,9,-1
 286 82 l 1,10,-1
 406 584 l 1,11,12
 392 573 392 573 371.5 561 c 128,-1,13
 351 549 351 549 327.5 537 c 128,-1,14
 304 525 304 525 278.5 514.5 c 128,-1,15
 253 504 253 504 230 497 c 1,16,-1
 213 578 l 1,0,1
EndSplineSet
Substitution2: "'ss02' Style Set 2 lookup 15 subtable" onesuperior
Substitution2: "'sinf' Scientific Inferiors lookup 11 subtable" one.sinf
Substitution2: "'subs' Subscript lookup 10 subtable" one.sinf
Substitution2: "'sups' Superscript lookup 9 subtable" one.sups
Substitution2: "'dnom' Denominators lookup 8 subtable" oneinferior
Substitution2: "'numr' Numerators lookup 6 subtable" onesuperior
EndChar

StartChar: two
Encoding: 50 50 21
Width: 588
VWidth: 1177
Flags: W
LayerCount: 2
Fore
SplineSet
617 581 m 0,0,1
 617 526 617 526 599.5 483.5 c 128,-1,2
 582 441 582 441 552 405.5 c 128,-1,3
 522 370 522 370 481.5 338.5 c 128,-1,4
 441 307 441 307 396 274 c 0,5,6
 369 254 369 254 340 231 c 128,-1,7
 311 208 311 208 284.5 183.5 c 128,-1,8
 258 159 258 159 238 133 c 128,-1,9
 218 107 218 107 210 82 c 1,10,-1
 527 82 l 1,11,-1
 506 0 l 1,12,-1
 81 0 l 1,13,14
 89 57 89 57 110.5 101.5 c 128,-1,15
 132 146 132 146 162 183.5 c 128,-1,16
 192 221 192 221 228.5 253 c 128,-1,17
 265 285 265 285 304 314 c 0,18,19
 345 345 345 345 383.5 374 c 128,-1,20
 422 403 422 403 451.5 433 c 128,-1,21
 481 463 481 463 498.5 495.5 c 128,-1,22
 516 528 516 528 516 567 c 0,23,24
 516 611 516 611 492.5 636 c 128,-1,25
 469 661 469 661 416 661 c 0,26,27
 387 661 387 661 360 653 c 128,-1,28
 333 645 333 645 312 634.5 c 128,-1,29
 291 624 291 624 275 612.5 c 128,-1,30
 259 601 259 601 250 591 c 1,31,-1
 216 667 l 1,32,33
 230 681 230 681 252 694.5 c 128,-1,34
 274 708 274 708 302 719.5 c 128,-1,35
 330 731 330 731 361.5 738.5 c 128,-1,36
 393 746 393 746 428 746 c 0,37,38
 479 746 479 746 515 731.5 c 128,-1,39
 551 717 551 717 573.5 694 c 128,-1,40
 596 671 596 671 606.5 641.5 c 128,-1,41
 617 612 617 612 617 581 c 0,0,1
EndSplineSet
Substitution2: "'ss02' Style Set 2 lookup 15 subtable" twosuperior
Substitution2: "'sinf' Scientific Inferiors lookup 11 subtable" two.sinf
Substitution2: "'subs' Subscript lookup 10 subtable" two.sinf
Substitution2: "'sups' Superscript lookup 9 subtable" two.sups
Substitution2: "'dnom' Denominators lookup 8 subtable" twoinferior
Substitution2: "'numr' Numerators lookup 6 subtable" twosuperior
EndChar

StartChar: three
Encoding: 51 51 22
Width: 588
VWidth: 1177
Flags: W
LayerCount: 2
Fore
SplineSet
260 71 m 0,0,1
 302 71 302 71 338.5 81 c 128,-1,2
 375 91 375 91 401.5 111 c 128,-1,3
 428 131 428 131 442.5 161 c 128,-1,4
 457 191 457 191 457 231 c 0,5,6
 457 293 457 293 411.5 321 c 128,-1,7
 366 349 366 349 290 349 c 2,8,-1
 269 349 l 1,9,-1
 287 428 l 1,10,-1
 319 428 l 2,11,12
 353 428 353 428 386.5 437 c 128,-1,13
 420 446 420 446 446.5 464.5 c 128,-1,14
 473 483 473 483 489.5 510 c 128,-1,15
 506 537 506 537 506 572 c 0,16,17
 506 617 506 617 479 639.5 c 128,-1,18
 452 662 452 662 403 662 c 0,19,20
 358 662 358 662 321.5 647.5 c 128,-1,21
 285 633 285 633 259 616 c 1,22,-1
 236 693 l 1,23,24
 250 702 250 702 270 711.5 c 128,-1,25
 290 721 290 721 314 728.5 c 128,-1,26
 338 736 338 736 364.5 741 c 128,-1,27
 391 746 391 746 418 746 c 0,28,29
 467 746 467 746 502.5 733.5 c 128,-1,30
 538 721 538 721 561 698.5 c 128,-1,31
 584 676 584 676 594.5 646.5 c 128,-1,32
 605 617 605 617 605 583 c 0,33,34
 605 512 605 512 565 464 c 128,-1,35
 525 416 525 416 456 389 c 1,36,37
 474 382 474 382 492 368.5 c 128,-1,38
 510 355 510 355 524 335.5 c 128,-1,39
 538 316 538 316 547 290 c 128,-1,40
 556 264 556 264 556 232 c 0,41,42
 556 177 556 177 536.5 131 c 128,-1,43
 517 85 517 85 479.5 52.5 c 128,-1,44
 442 20 442 20 386 2.5 c 128,-1,45
 330 -15 330 -15 257 -15 c 0,46,47
 220 -15 220 -15 189 -10.5 c 128,-1,48
 158 -6 158 -6 134 1 c 128,-1,49
 110 8 110 8 93.5 15 c 128,-1,50
 77 22 77 22 71 27 c 1,51,-1
 107 111 l 1,52,53
 122 102 122 102 160 86.5 c 128,-1,54
 198 71 198 71 260 71 c 0,0,1
EndSplineSet
Substitution2: "'ss02' Style Set 2 lookup 15 subtable" threesuperior
Substitution2: "'sinf' Scientific Inferiors lookup 11 subtable" three.sinf
Substitution2: "'subs' Subscript lookup 10 subtable" three.sinf
Substitution2: "'sups' Superscript lookup 9 subtable" three.sups
Substitution2: "'dnom' Denominators lookup 8 subtable" threeinferior
Substitution2: "'numr' Numerators lookup 6 subtable" threesuperior
EndChar

StartChar: four
Encoding: 52 52 23
Width: 588
VWidth: 1177
Flags: W
LayerCount: 2
Fore
SplineSet
471 186 m 1,0,-1
 428 0 l 1,1,-1
 332 0 l 1,2,-1
 377 186 l 1,3,-1
 57 186 l 1,4,-1
 73 252 l 1,5,6
 102 301 102 301 150 365 c 128,-1,7
 198 429 198 429 256 494 c 128,-1,8
 314 559 314 559 379 620.5 c 128,-1,9
 444 682 444 682 506 729 c 1,10,-1
 602 729 l 1,11,-1
 490 266 l 1,12,-1
 575 266 l 1,13,-1
 556 186 l 1,14,-1
 471 186 l 1,0,-1
478 607 m 1,15,16
 440 575 440 575 399.5 535.5 c 128,-1,17
 359 496 359 496 319 452 c 128,-1,18
 279 408 279 408 242 360.5 c 128,-1,19
 205 313 205 313 176 266 c 1,20,-1
 397 266 l 1,21,-1
 478 607 l 1,15,16
EndSplineSet
Substitution2: "'ss02' Style Set 2 lookup 15 subtable" foursuperior
Substitution2: "'sinf' Scientific Inferiors lookup 11 subtable" four.sinf
Substitution2: "'subs' Subscript lookup 10 subtable" four.sinf
Substitution2: "'sups' Superscript lookup 9 subtable" four.sups
Substitution2: "'dnom' Denominators lookup 8 subtable" fourinferior
Substitution2: "'numr' Numerators lookup 6 subtable" foursuperior
EndChar

StartChar: five
Encoding: 53 53 24
Width: 588
VWidth: 1177
Flags: W
LayerCount: 2
Fore
SplineSet
377 647 m 1,0,1
 370 626 370 626 361 598.5 c 128,-1,2
 352 571 352 571 342.5 543.5 c 128,-1,3
 333 516 333 516 324.5 490.5 c 128,-1,4
 316 465 316 465 311 448 c 1,5,6
 431 433 431 433 491.5 383 c 128,-1,7
 552 333 552 333 552 241 c 0,8,9
 552 187 552 187 534 140.5 c 128,-1,10
 516 94 516 94 478.5 59.5 c 128,-1,11
 441 25 441 25 382.5 5 c 128,-1,12
 324 -15 324 -15 244 -15 c 0,13,14
 210 -15 210 -15 180.5 -10 c 128,-1,15
 151 -5 151 -5 126.5 1.5 c 128,-1,16
 102 8 102 8 86.5 14.5 c 128,-1,17
 71 21 71 21 66 25 c 1,18,-1
 104 107 l 1,19,20
 119 98 119 98 155 84.5 c 128,-1,21
 191 71 191 71 250 71 c 0,22,23
 292 71 292 71 329.5 82 c 128,-1,24
 367 93 367 93 394.5 113.5 c 128,-1,25
 422 134 422 134 437.5 164 c 128,-1,26
 453 194 453 194 453 232 c 0,27,28
 453 281 453 281 426.5 309 c 128,-1,29
 400 337 400 337 361.5 351 c 128,-1,30
 323 365 323 365 277.5 369 c 128,-1,31
 232 373 232 373 194 376 c 1,32,33
 212 424 212 424 227.5 468 c 128,-1,34
 243 512 243 512 257 554.5 c 128,-1,35
 271 597 271 597 284 640 c 128,-1,36
 297 683 297 683 309 729 c 1,37,-1
 649 729 l 1,38,-1
 630 647 l 1,39,-1
 377 647 l 1,0,1
EndSplineSet
Substitution2: "'ss02' Style Set 2 lookup 15 subtable" fivesuperior
Substitution2: "'sinf' Scientific Inferiors lookup 11 subtable" five.sinf
Substitution2: "'subs' Subscript lookup 10 subtable" five.sinf
Substitution2: "'sups' Superscript lookup 9 subtable" five.sups
Substitution2: "'dnom' Denominators lookup 8 subtable" fiveinferior
Substitution2: "'numr' Numerators lookup 6 subtable" fivesuperior
EndChar

StartChar: six
Encoding: 54 54 25
Width: 588
VWidth: 1177
Flags: W
LayerCount: 2
Fore
SplineSet
231 335 m 1,0,1
 220 301 220 301 215 266 c 128,-1,2
 210 231 210 231 210 203 c 0,3,4
 210 137 210 137 233.5 100.5 c 128,-1,5
 257 64 257 64 317 64 c 0,6,7
 358 64 358 64 390 81.5 c 128,-1,8
 422 99 422 99 443 127 c 128,-1,9
 464 155 464 155 475 190.5 c 128,-1,10
 486 226 486 226 486 263 c 0,11,12
 486 314 486 314 461.5 340 c 128,-1,13
 437 366 437 366 379 366 c 0,14,15
 341 366 341 366 305 360 c 128,-1,16
 269 354 269 354 231 335 c 1,0,1
113 194 m 0,17,18
 113 305 113 305 150 403 c 128,-1,19
 187 501 187 501 255.5 574 c 128,-1,20
 324 647 324 647 420 690 c 128,-1,21
 516 733 516 733 634 733 c 2,22,-1
 648 733 l 1,23,-1
 636 649 l 1,24,-1
 631 649 l 2,25,26
 557 649 557 649 496.5 629.5 c 128,-1,27
 436 610 436 610 389 577.5 c 128,-1,28
 342 545 342 545 308 502 c 128,-1,29
 274 459 274 459 256 412 c 1,30,31
 290 428 290 428 328.5 438 c 128,-1,32
 367 448 367 448 403 448 c 0,33,34
 450 448 450 448 484 433.5 c 128,-1,35
 518 419 518 419 540.5 395 c 128,-1,36
 563 371 563 371 573 340 c 128,-1,37
 583 309 583 309 583 273 c 0,38,39
 583 220 583 220 567 169 c 128,-1,40
 551 118 551 118 517 76.5 c 128,-1,41
 483 35 483 35 430 10 c 128,-1,42
 377 -15 377 -15 303 -15 c 0,43,44
 211 -15 211 -15 162 40.5 c 128,-1,45
 113 96 113 96 113 194 c 0,17,18
EndSplineSet
Substitution2: "'ss02' Style Set 2 lookup 15 subtable" sixsuperior
Substitution2: "'sinf' Scientific Inferiors lookup 11 subtable" six.sinf
Substitution2: "'subs' Subscript lookup 10 subtable" six.sinf
Substitution2: "'sups' Superscript lookup 9 subtable" six.sups
Substitution2: "'dnom' Denominators lookup 8 subtable" sixinferior
Substitution2: "'numr' Numerators lookup 6 subtable" sixsuperior
EndChar

StartChar: seven
Encoding: 55 55 26
Width: 588
VWidth: 1177
Flags: W
LayerCount: 2
Fore
SplineSet
164 0 m 1,0,1
 188 84 188 84 233 177 c 128,-1,2
 278 270 278 270 334 358 c 128,-1,3
 390 446 390 446 450.5 522 c 128,-1,4
 511 598 511 598 565 647 c 1,5,-1
 219 647 l 1,6,-1
 238 729 l 1,7,-1
 695 729 l 1,8,-1
 675 644 l 1,9,10
 630 605 630 605 571 536.5 c 128,-1,11
 512 468 512 468 454 381 c 128,-1,12
 396 294 396 294 346 196 c 128,-1,13
 296 98 296 98 267 0 c 1,14,-1
 164 0 l 1,0,1
EndSplineSet
Substitution2: "'ss02' Style Set 2 lookup 15 subtable" sevensuperior
Substitution2: "'sinf' Scientific Inferiors lookup 11 subtable" seven.sinf
Substitution2: "'subs' Subscript lookup 10 subtable" seven.sinf
Substitution2: "'sups' Superscript lookup 9 subtable" seven.sups
Substitution2: "'dnom' Denominators lookup 8 subtable" seveninferior
Substitution2: "'numr' Numerators lookup 6 subtable" sevensuperior
EndChar

StartChar: eight
Encoding: 56 56 27
Width: 588
VWidth: 1177
Flags: W
LayerCount: 2
Fore
SplineSet
479 367 m 1,0,1
 514 342 514 342 539.5 307.5 c 128,-1,2
 565 273 565 273 565 217 c 0,3,4
 565 171 565 171 547.5 128.5 c 128,-1,5
 530 86 530 86 495.5 54 c 128,-1,6
 461 22 461 22 408.5 3.5 c 128,-1,7
 356 -15 356 -15 286 -15 c 0,8,9
 233 -15 233 -15 196.5 -0.5 c 128,-1,10
 160 14 160 14 137 37 c 128,-1,11
 114 60 114 60 103.5 89.5 c 128,-1,12
 93 119 93 119 93 148 c 0,13,14
 93 225 93 225 137 284 c 128,-1,15
 181 343 181 343 260 380 c 1,16,17
 196 431 196 431 197 511 c 0,18,19
 197 558 197 558 214 600.5 c 128,-1,20
 231 643 231 643 264 675.5 c 128,-1,21
 297 708 297 708 343.5 727 c 128,-1,22
 390 746 390 746 449 746 c 0,23,24
 498 746 498 746 533 731.5 c 128,-1,25
 568 717 568 717 590 695 c 128,-1,26
 612 673 612 673 623 643.5 c 128,-1,27
 634 614 634 614 634 584 c 0,28,29
 634 511 634 511 592.5 456.5 c 128,-1,30
 551 402 551 402 479 367 c 1,0,1
333 344 m 1,31,32
 305 331 305 331 278.5 312 c 128,-1,33
 252 293 252 293 232.5 270 c 128,-1,34
 213 247 213 247 201.5 220 c 128,-1,35
 190 193 190 193 190 165 c 0,36,37
 190 145 190 145 195 126.5 c 128,-1,38
 200 108 200 108 212.5 94 c 128,-1,39
 225 80 225 80 246 72 c 128,-1,40
 267 64 267 64 299 64 c 0,41,42
 334 64 334 64 365 74.5 c 128,-1,43
 396 85 396 85 419 103.5 c 128,-1,44
 442 122 442 122 455 149 c 128,-1,45
 468 176 468 176 468 207 c 0,46,47
 468 259 468 259 432.5 290.5 c 128,-1,48
 397 322 397 322 333 344 c 1,31,32
403 400 m 1,49,50
 429 413 429 413 453 430.5 c 128,-1,51
 477 448 477 448 496 469 c 128,-1,52
 515 490 515 490 525.5 516 c 128,-1,53
 536 542 536 542 536 574 c 0,54,55
 536 589 536 589 532 605.5 c 128,-1,56
 528 622 528 622 516.5 635.5 c 128,-1,57
 505 649 505 649 485.5 657 c 128,-1,58
 466 665 466 665 437 665 c 0,59,60
 406 665 406 665 379.5 654.5 c 128,-1,61
 353 644 353 644 333.5 624.5 c 128,-1,62
 314 605 314 605 303 578.5 c 128,-1,63
 292 552 292 552 292 521 c 0,64,65
 292 477 292 477 318.5 448.5 c 128,-1,66
 345 420 345 420 403 400 c 1,49,50
EndSplineSet
Substitution2: "'ss02' Style Set 2 lookup 15 subtable" eightsuperior
Substitution2: "'sinf' Scientific Inferiors lookup 11 subtable" eight.sinf
Substitution2: "'subs' Subscript lookup 10 subtable" eight.sinf
Substitution2: "'sups' Superscript lookup 9 subtable" eight.sups
Substitution2: "'dnom' Denominators lookup 8 subtable" eightinferior
Substitution2: "'numr' Numerators lookup 6 subtable" eightsuperior
EndChar

StartChar: nine
Encoding: 57 57 28
Width: 588
VWidth: 1177
Flags: W
LayerCount: 2
Fore
SplineSet
340 286 m 0,0,1
 293 286 293 286 259 299.5 c 128,-1,2
 225 313 225 313 203 336.5 c 128,-1,3
 181 360 181 360 170.5 391.5 c 128,-1,4
 160 423 160 423 160 458 c 0,5,6
 160 511 160 511 176.5 562.5 c 128,-1,7
 193 614 193 614 226.5 654.5 c 128,-1,8
 260 695 260 695 312 719.5 c 128,-1,9
 364 744 364 744 433 744 c 0,10,11
 531 744 531 744 580.5 687.5 c 128,-1,12
 630 631 630 631 630 535 c 0,13,14
 630 422 630 422 594.5 324 c 128,-1,15
 559 226 559 226 492.5 153.5 c 128,-1,16
 426 81 426 81 331 39.5 c 128,-1,17
 236 -2 236 -2 114 -2 c 0,18,19
 108 -2 108 -2 103 -2 c 128,-1,20
 98 -2 98 -2 87 -1 c 1,21,-1
 105 82 l 2,22,23
 109 81 109 81 115 81 c 128,-1,24
 121 81 121 81 124 81 c 0,25,26
 198 81 198 81 256 99.5 c 128,-1,27
 314 118 314 118 358.5 150.5 c 128,-1,28
 403 183 403 183 434.5 226.5 c 128,-1,29
 466 270 466 270 488 319 c 1,30,31
 454 303 454 303 415.5 294.5 c 128,-1,32
 377 286 377 286 340 286 c 0,0,1
364 367 m 0,33,34
 402 367 402 367 439 373.5 c 128,-1,35
 476 380 476 380 514 398 c 1,36,37
 534 464 534 464 534 536 c 0,38,39
 534 594 534 594 508.5 629 c 128,-1,40
 483 664 483 664 426 664 c 0,41,42
 385 664 385 664 353.5 647 c 128,-1,43
 322 630 322 630 300.5 602.5 c 128,-1,44
 279 575 279 575 268 540 c 128,-1,45
 257 505 257 505 257 469 c 0,46,47
 257 418 257 418 282 392.5 c 128,-1,48
 307 367 307 367 364 367 c 0,33,34
EndSplineSet
Substitution2: "'ss02' Style Set 2 lookup 15 subtable" ninesuperior
Substitution2: "'sinf' Scientific Inferiors lookup 11 subtable" nine.sinf
Substitution2: "'subs' Subscript lookup 10 subtable" nine.sinf
Substitution2: "'sups' Superscript lookup 9 subtable" nine.sups
Substitution2: "'dnom' Denominators lookup 8 subtable" nineinferior
Substitution2: "'numr' Numerators lookup 6 subtable" ninesuperior
EndChar

StartChar: less
Encoding: 60 60 31
Width: 588
VWidth: 1177
Flags: W
LayerCount: 2
Fore
SplineSet
491 65 m 1,0,-1
 92 258 l 1,1,-1
 112 342 l 1,2,-1
 604 535 l 1,3,-1
 610 448 l 1,4,-1
 208 294 l 1,5,-1
 536 143 l 1,6,-1
 491 65 l 1,0,-1
EndSplineSet
EndChar

StartChar: equal
Encoding: 61 61 32
Width: 588
VWidth: 1177
Flags: W
LayerCount: 2
Fore
SplineSet
148 463 m 1,0,-1
 621 463 l 1,1,-1
 601 379 l 1,2,-1
 128 379 l 1,3,-1
 148 463 l 1,0,-1
94 239 m 1,4,-1
 567 239 l 1,5,-1
 547 155 l 1,6,-1
 74 155 l 1,7,-1
 94 239 l 1,4,-1
EndSplineSet
EndChar

StartChar: greater
Encoding: 62 62 33
Width: 588
VWidth: 1177
Flags: W
LayerCount: 2
Fore
SplineSet
190 535 m 1,0,-1
 589 342 l 1,1,-1
 569 258 l 1,2,-1
 77 65 l 1,3,-1
 71 152 l 1,4,-1
 472 305 l 1,5,-1
 145 457 l 1,6,-1
 190 535 l 1,0,-1
EndSplineSet
EndChar

StartChar: question
Encoding: 63 63 34
Width: 588
VWidth: 1177
Flags: W
LayerCount: 2
Fore
SplineSet
266 249 m 1,0,-1
 270 271 l 2,1,2
 276 305 276 305 296.5 333.5 c 128,-1,3
 317 362 317 362 344 387 c 128,-1,4
 371 412 371 412 401 435 c 128,-1,5
 431 458 431 458 456 482 c 128,-1,6
 481 506 481 506 497.5 532 c 128,-1,7
 514 558 514 558 514 590 c 0,8,9
 514 623 514 623 492 644 c 128,-1,10
 470 665 470 665 420 665 c 0,11,12
 386 665 386 665 354 658 c 128,-1,13
 322 651 322 651 284 634 c 1,14,-1
 273 709 l 1,15,16
 301 724 301 724 345 735 c 128,-1,17
 389 746 389 746 435 746 c 0,18,19
 468 746 468 746 499.5 738.5 c 128,-1,20
 531 731 531 731 556 714.5 c 128,-1,21
 581 698 581 698 595.5 670.5 c 128,-1,22
 610 643 610 643 610 603 c 0,23,24
 610 559 610 559 593 525.5 c 128,-1,25
 576 492 576 492 549.5 464.5 c 128,-1,26
 523 437 523 437 491 413.5 c 128,-1,27
 459 390 459 390 430.5 365 c 128,-1,28
 402 340 402 340 380 312 c 128,-1,29
 358 284 358 284 352 249 c 1,30,-1
 266 249 l 1,0,-1
261 -14 m 0,31,32
 230 -14 230 -14 211 3.5 c 128,-1,33
 192 21 192 21 192 57 c 0,34,35
 192 99 192 99 216.5 122.5 c 128,-1,36
 241 146 241 146 274 146 c 0,37,38
 305 146 305 146 325.5 128 c 128,-1,39
 346 110 346 110 346 74 c 0,40,41
 346 33 346 33 319.5 9.5 c 128,-1,42
 293 -14 293 -14 261 -14 c 0,31,32
EndSplineSet
EndChar

StartChar: at
Encoding: 64 64 35
Width: 588
VWidth: 1177
Flags: W
LayerCount: 2
Fore
SplineSet
550 74 m 1,0,1
 522 62 522 62 491.5 56.5 c 128,-1,2
 461 51 461 51 432 51 c 0,3,4
 397 51 397 51 366 61 c 128,-1,5
 335 71 335 71 310.5 92 c 128,-1,6
 286 113 286 113 272 146.5 c 128,-1,7
 258 180 258 180 258 229 c 0,8,9
 258 283 258 283 274 333 c 128,-1,10
 290 383 290 383 322.5 422 c 128,-1,11
 355 461 355 461 405.5 483.5 c 128,-1,12
 456 506 456 506 527 506 c 0,13,14
 535 506 535 506 543.5 505.5 c 128,-1,15
 552 505 552 505 562 504 c 1,16,17
 569 533 569 533 569 562 c 0,18,19
 569 607 569 607 546 635.5 c 128,-1,20
 523 664 523 664 466 664 c 0,21,22
 402 664 402 664 348 619 c 128,-1,23
 294 574 294 574 255 503 c 128,-1,24
 216 432 216 432 194 346.5 c 128,-1,25
 172 261 172 261 172 181 c 0,26,27
 172 128 172 128 182.5 81 c 128,-1,28
 193 34 193 34 215 -0.5 c 128,-1,29
 237 -35 237 -35 271 -56 c 128,-1,30
 305 -77 305 -77 353 -77 c 0,31,32
 373 -77 373 -77 395 -74 c 128,-1,33
 417 -71 417 -71 442 -64 c 1,34,-1
 433 -143 l 1,35,36
 380 -157 380 -157 336 -157 c 0,37,38
 270 -157 270 -157 221.5 -131 c 128,-1,39
 173 -105 173 -105 142 -59 c 128,-1,40
 111 -13 111 -13 96 49 c 128,-1,41
 81 111 81 111 81 181 c 0,42,43
 81 245 81 245 93.5 312 c 128,-1,44
 106 379 106 379 129.5 441.5 c 128,-1,45
 153 504 153 504 187 560 c 128,-1,46
 221 616 221 616 265 657 c 128,-1,47
 309 698 309 698 361 722.5 c 128,-1,48
 413 747 413 747 473 747 c 0,49,50
 567 747 567 747 612.5 696 c 128,-1,51
 658 645 658 645 658 565 c 0,52,53
 658 524 658 524 648 481 c 2,54,-1
 550 74 l 1,0,1
542 422 m 1,55,56
 521 429 521 429 502 429 c 0,57,58
 464 429 464 429 435 412.5 c 128,-1,59
 406 396 406 396 386.5 369 c 128,-1,60
 367 342 367 342 358 306 c 128,-1,61
 349 270 349 270 349 230 c 0,62,63
 349 181 349 181 370.5 154 c 128,-1,64
 392 127 392 127 433 127 c 0,65,66
 442 127 442 127 451.5 128.5 c 128,-1,67
 461 130 461 130 472 133 c 1,68,-1
 542 422 l 1,55,56
EndSplineSet
Substitution2: "'case' Case-Sensitive Forms lookup 17 subtable" At
EndChar

StartChar: A
Encoding: 65 65 36
Width: 588
VWidth: 1177
Flags: W
LayerCount: 2
Fore
SplineSet
451 0 m 1,0,-1
 452 191 l 1,1,-1
 172 191 l 1,2,-1
 82 0 l 1,3,-1
 -15 0 l 1,4,5
 24 78 24 78 71 168.5 c 128,-1,6
 118 259 118 259 169 354.5 c 128,-1,7
 220 450 220 450 275 546 c 128,-1,8
 330 642 330 642 385 729 c 1,9,-1
 501 729 l 1,10,11
 514 642 514 642 522.5 546 c 128,-1,12
 531 450 531 450 537 354.5 c 128,-1,13
 543 259 543 259 546.5 168.5 c 128,-1,14
 550 78 550 78 552 0 c 1,15,-1
 451 0 l 1,0,-1
420 644 m 1,16,17
 375 570 375 570 321 472.5 c 128,-1,18
 267 375 267 375 213 271 c 1,19,-1
 449 271 l 1,20,21
 447 377 447 377 438 475 c 128,-1,22
 429 573 429 573 420 644 c 1,16,17
EndSplineSet
EndChar

StartChar: B
Encoding: 66 66 37
Width: 588
VWidth: 1177
Flags: W
LayerCount: 2
Fore
SplineSet
225 -6 m 0,0,1
 206 -6 206 -6 183 -5 c 128,-1,2
 160 -4 160 -4 136.5 -2 c 128,-1,3
 113 0 113 0 91 3.5 c 128,-1,4
 69 7 69 7 53 12 c 1,5,-1
 221 718 l 1,6,7
 240 723 240 723 263.5 726.5 c 128,-1,8
 287 730 287 730 312 732 c 128,-1,9
 337 734 337 734 360 735 c 128,-1,10
 383 736 383 736 402 736 c 0,11,12
 497 736 497 736 556.5 701.5 c 128,-1,13
 616 667 616 667 616 588 c 0,14,15
 616 519 616 519 582.5 467 c 128,-1,16
 549 415 549 415 471 384 c 1,17,18
 512 372 512 372 543 335.5 c 128,-1,19
 574 299 574 299 574 250 c 0,20,21
 574 128 574 128 483.5 61 c 128,-1,22
 393 -6 393 -6 225 -6 c 0,0,1
227 340 m 1,23,-1
 164 80 l 2,24,25
 166 79 166 79 189.5 77 c 128,-1,26
 213 75 213 75 251 75 c 0,27,28
 290 75 290 75 330 82.5 c 128,-1,29
 370 90 370 90 402.5 109 c 128,-1,30
 435 128 435 128 455.5 160.5 c 128,-1,31
 476 193 476 193 476 245 c 0,32,33
 476 299 476 299 433.5 319.5 c 128,-1,34
 391 340 391 340 326 340 c 2,35,-1
 227 340 l 1,23,-1
246 420 m 1,36,-1
 323 420 l 2,37,38
 358 420 358 420 393.5 426.5 c 128,-1,39
 429 433 429 433 457 450.5 c 128,-1,40
 485 468 485 468 502 496 c 128,-1,41
 519 524 519 524 519 567 c 0,42,43
 519 591 519 591 508.5 607 c 128,-1,44
 498 623 498 623 480.5 633.5 c 128,-1,45
 463 644 463 644 439 649 c 128,-1,46
 415 654 415 654 389 654 c 0,47,48
 358 654 358 654 335 653.5 c 128,-1,49
 312 653 312 653 302 650 c 1,50,-1
 246 420 l 1,36,-1
EndSplineSet
EndChar

StartChar: C
Encoding: 67 67 38
Width: 588
VWidth: 1177
Flags: W
LayerCount: 2
Fore
SplineSet
329 -15 m 0,0,1
 225 -15 225 -15 165 53 c 128,-1,2
 105 121 105 121 105 238 c 0,3,4
 105 331 105 331 132 422.5 c 128,-1,5
 159 514 159 514 210 585.5 c 128,-1,6
 261 657 261 657 334.5 701.5 c 128,-1,7
 408 746 408 746 499 746 c 0,8,9
 570 746 570 746 613 727 c 128,-1,10
 656 708 656 708 676 691 c 1,11,-1
 630 614 l 1,12,13
 610 632 610 632 572 646 c 128,-1,14
 534 660 534 660 492 660 c 0,15,16
 424 660 424 660 370.5 624.5 c 128,-1,17
 317 589 317 589 280 531 c 128,-1,18
 243 473 243 473 223 401 c 128,-1,19
 203 329 203 329 203 253 c 0,20,21
 203 168 203 168 240.5 119.5 c 128,-1,22
 278 71 278 71 350 71 c 0,23,24
 407 71 407 71 450.5 85.5 c 128,-1,25
 494 100 494 100 515 113 c 1,26,-1
 525 31 l 1,27,28
 518 25 518 25 500 17 c 128,-1,29
 482 9 482 9 456.5 2 c 128,-1,30
 431 -5 431 -5 398.5 -10 c 128,-1,31
 366 -15 366 -15 329 -15 c 0,0,1
EndSplineSet
EndChar

StartChar: D
Encoding: 68 68 39
Width: 588
VWidth: 1177
Flags: W
LayerCount: 2
Fore
SplineSet
616 477 m 0,0,1
 616 384 616 384 591.5 297 c 128,-1,2
 567 210 567 210 515 142.5 c 128,-1,3
 463 75 463 75 383 34.5 c 128,-1,4
 303 -6 303 -6 192 -6 c 0,5,6
 154 -6 154 -6 115.5 -2.5 c 128,-1,7
 77 1 77 1 42 11 c 1,8,-1
 211 718 l 1,9,10
 289 736 289 736 360 736 c 0,11,12
 480 736 480 736 548 668.5 c 128,-1,13
 616 601 616 601 616 477 c 0,0,1
155 84 m 1,14,15
 164 82 164 82 181 80 c 128,-1,16
 198 78 198 78 212 78 c 0,17,18
 278 78 278 78 334 106 c 128,-1,19
 390 134 390 134 431 185.5 c 128,-1,20
 472 237 472 237 495 308.5 c 128,-1,21
 518 380 518 380 518 466 c 0,22,23
 518 556 518 556 477 604.5 c 128,-1,24
 436 653 436 653 347 653 c 0,25,26
 315 653 315 653 290 649 c 1,27,-1
 155 84 l 1,14,15
EndSplineSet
EndChar

StartChar: E
Encoding: 69 69 40
Width: 588
VWidth: 1177
Flags: W
LayerCount: 2
Fore
SplineSet
84 0 m 1,0,-1
 260 729 l 1,1,-1
 668 729 l 1,2,-1
 648 647 l 1,3,-1
 337 647 l 1,4,-1
 283 423 l 1,5,-1
 556 423 l 1,6,-1
 536 340 l 1,7,-1
 263 340 l 1,8,-1
 201 82 l 1,9,-1
 538 82 l 1,10,-1
 518 0 l 1,11,-1
 84 0 l 1,0,-1
EndSplineSet
EndChar

StartChar: F
Encoding: 70 70 41
Width: 588
VWidth: 1177
Flags: W
LayerCount: 2
Fore
SplineSet
84 0 m 1,0,-1
 260 729 l 1,1,-1
 674 729 l 1,2,-1
 654 647 l 1,3,-1
 337 647 l 1,4,-1
 282 419 l 1,5,-1
 561 419 l 1,6,-1
 541 338 l 1,7,-1
 261 338 l 1,8,-1
 181 0 l 1,9,-1
 84 0 l 1,0,-1
EndSplineSet
EndChar

StartChar: G
Encoding: 71 71 42
Width: 588
VWidth: 1177
Flags: W
LayerCount: 2
Fore
SplineSet
312 -15 m 0,0,1
 263 -15 263 -15 222 2.5 c 128,-1,2
 181 20 181 20 153 53 c 128,-1,3
 125 86 125 86 109.5 133 c 128,-1,4
 94 180 94 180 94 238 c 0,5,6
 94 331 94 331 121 422.5 c 128,-1,7
 148 514 148 514 199.5 585.5 c 128,-1,8
 251 657 251 657 324 701.5 c 128,-1,9
 397 746 397 746 489 746 c 0,10,11
 526 746 526 746 553 740.5 c 128,-1,12
 580 735 580 735 600 726.5 c 128,-1,13
 620 718 620 718 634 709 c 128,-1,14
 648 700 648 700 657 691 c 1,15,-1
 611 614 l 1,16,17
 591 632 591 632 558 646.5 c 128,-1,18
 525 661 525 661 482 661 c 0,19,20
 414 661 414 661 360 625.5 c 128,-1,21
 306 590 306 590 269 532.5 c 128,-1,22
 232 475 232 475 212 402 c 128,-1,23
 192 329 192 329 192 253 c 0,24,25
 192 168 192 168 229.5 118.5 c 128,-1,26
 267 69 267 69 339 69 c 0,27,28
 368 69 368 69 390 73.5 c 128,-1,29
 412 78 412 78 425 82 c 1,30,-1
 491 358 l 1,31,-1
 588 358 l 1,32,-1
 506 16 l 1,33,34
 497 12 497 12 477.5 7 c 128,-1,35
 458 2 458 2 432 -3 c 128,-1,36
 406 -8 406 -8 375 -11.5 c 128,-1,37
 344 -15 344 -15 312 -15 c 0,0,1
EndSplineSet
EndChar

StartChar: H
Encoding: 72 72 43
Width: 588
VWidth: 1177
Flags: W
LayerCount: 2
Fore
SplineSet
583 729 m 1,0,-1
 680 729 l 1,1,-1
 504 0 l 1,2,-1
 408 0 l 1,3,-1
 489 339 l 1,4,-1
 220 339 l 1,5,-1
 138 0 l 1,6,-1
 42 0 l 1,7,-1
 217 729 l 1,8,-1
 313 729 l 1,9,-1
 240 422 l 1,10,-1
 509 422 l 1,11,-1
 583 729 l 1,0,-1
EndSplineSet
EndChar

StartChar: I
Encoding: 73 73 44
Width: 588
VWidth: 1177
Flags: W
LayerCount: 2
Fore
SplineSet
477 647 m 1,0,-1
 340 82 l 1,1,-1
 482 82 l 1,2,-1
 462 0 l 1,3,-1
 84 0 l 1,4,-1
 104 82 l 1,5,-1
 244 82 l 1,6,-1
 379 647 l 1,7,-1
 239 647 l 1,8,-1
 259 729 l 1,9,-1
 637 729 l 1,10,-1
 617 647 l 1,11,-1
 477 647 l 1,0,-1
EndSplineSet
EndChar

StartChar: J
Encoding: 74 74 45
Width: 588
VWidth: 1177
Flags: W
LayerCount: 2
Fore
SplineSet
653 729 m 1,0,-1
 535 234 l 2,1,2
 522 183 522 183 505.5 138 c 128,-1,3
 489 93 489 93 459 59 c 128,-1,4
 429 25 429 25 382.5 5 c 128,-1,5
 336 -15 336 -15 265 -15 c 0,6,7
 228 -15 228 -15 198 -8 c 128,-1,8
 168 -1 168 -1 144 9 c 128,-1,9
 120 19 120 19 103.5 30.5 c 128,-1,10
 87 42 87 42 79 52 c 1,11,-1
 130 128 l 1,12,13
 138 120 138 120 151 109.5 c 128,-1,14
 164 99 164 99 181.5 90 c 128,-1,15
 199 81 199 81 220 74.5 c 128,-1,16
 241 68 241 68 267 68 c 0,17,18
 338 68 338 68 377.5 110 c 128,-1,19
 417 152 417 152 439 244 c 2,20,-1
 536 647 l 1,21,-1
 289 647 l 1,22,-1
 307 729 l 1,23,-1
 653 729 l 1,0,-1
EndSplineSet
EndChar

StartChar: K
Encoding: 75 75 46
Width: 588
VWidth: 1177
Flags: W
LayerCount: 2
Fore
SplineSet
693 729 m 1,0,1
 651 684 651 684 609 642 c 128,-1,2
 567 600 567 600 523 557.5 c 128,-1,3
 479 515 479 515 433.5 470.5 c 128,-1,4
 388 426 388 426 335 379 c 1,5,6
 360 351 360 351 388.5 311.5 c 128,-1,7
 417 272 417 272 445 223 c 128,-1,8
 473 174 473 174 500.5 117.5 c 128,-1,9
 528 61 528 61 550 0 c 1,10,-1
 445 0 l 1,11,12
 400 125 400 125 347 210.5 c 128,-1,13
 294 296 294 296 233 351 c 1,14,-1
 150 0 l 1,15,-1
 53 0 l 1,16,-1
 227 729 l 1,17,-1
 324 729 l 1,18,-1
 247 410 l 1,19,20
 346 498 346 498 425.5 576.5 c 128,-1,21
 505 655 505 655 572 729 c 1,22,-1
 693 729 l 1,0,1
EndSplineSet
EndChar

StartChar: L
Encoding: 76 76 47
Width: 588
VWidth: 1177
Flags: W
LayerCount: 2
Fore
SplineSet
496 82 m 1,0,-1
 477 0 l 1,1,-1
 64 0 l 1,2,-1
 239 729 l 1,3,-1
 336 729 l 1,4,-1
 180 82 l 1,5,-1
 496 82 l 1,0,-1
EndSplineSet
EndChar

StartChar: M
Encoding: 77 77 48
Width: 588
VWidth: 1177
Flags: W
LayerCount: 2
Fore
SplineSet
567 729 m 1,0,-1
 657 729 l 1,1,2
 650 655 650 655 637 569 c 128,-1,3
 624 483 624 483 608 389.5 c 128,-1,4
 592 296 592 296 573 197.5 c 128,-1,5
 554 99 554 99 534 0 c 1,6,-1
 439 0 l 1,7,8
 453 64 453 64 470.5 139 c 128,-1,9
 488 214 488 214 505.5 293.5 c 128,-1,10
 523 373 523 373 540.5 454 c 128,-1,11
 558 535 558 535 572 609 c 1,12,-1
 386 277 l 1,13,-1
 302 277 l 1,14,15
 300 321 300 321 296.5 366 c 128,-1,16
 293 411 293 411 289 454.5 c 128,-1,17
 285 498 285 498 281 537.5 c 128,-1,18
 277 577 277 577 273 609 c 1,19,20
 253 529 253 529 232 447 c 128,-1,21
 211 365 211 365 189.5 286 c 128,-1,22
 168 207 168 207 149 134.5 c 128,-1,23
 130 62 130 62 113 0 c 1,24,-1
 21 0 l 1,25,26
 72 188 72 188 127.5 366.5 c 128,-1,27
 183 545 183 545 250 729 c 1,28,-1
 339 729 l 1,29,30
 347 634 347 634 353 546.5 c 128,-1,31
 359 459 359 459 366 366 c 1,32,-1
 567 729 l 1,0,-1
EndSplineSet
EndChar

StartChar: N
Encoding: 78 78 49
Width: 588
VWidth: 1177
Flags: W
LayerCount: 2
Fore
SplineSet
411 0 m 1,0,1
 395 98 395 98 379.5 178 c 128,-1,2
 364 258 364 258 347 328.5 c 128,-1,3
 330 399 330 399 312 463 c 128,-1,4
 294 527 294 527 276 592 c 1,5,-1
 135 0 l 1,6,-1
 47 0 l 1,7,-1
 223 729 l 1,8,-1
 318 729 l 1,9,10
 345 641 345 641 364.5 573.5 c 128,-1,11
 384 506 384 506 400 443 c 128,-1,12
 416 380 416 380 429.5 313 c 128,-1,13
 443 246 443 246 458 158 c 1,14,-1
 594 729 l 1,15,-1
 682 729 l 1,16,-1
 506 0 l 1,17,-1
 411 0 l 1,0,1
EndSplineSet
EndChar

StartChar: O
Encoding: 79 79 50
Width: 588
VWidth: 1177
Flags: W
LayerCount: 2
Fore
SplineSet
435 662 m 0,0,1
 377 662 377 662 331.5 619 c 128,-1,2
 286 576 286 576 255.5 510.5 c 128,-1,3
 225 445 225 445 208.5 368 c 128,-1,4
 192 291 192 291 192 224 c 0,5,6
 192 140 192 140 220.5 104 c 128,-1,7
 249 68 249 68 299 68 c 0,8,9
 357 68 357 68 401.5 111 c 128,-1,10
 446 154 446 154 477 219.5 c 128,-1,11
 508 285 508 285 523.5 362 c 128,-1,12
 539 439 539 439 539 506 c 0,13,14
 539 588 539 588 511.5 625 c 128,-1,15
 484 662 484 662 435 662 c 0,0,1
446 746 m 0,16,17
 531 746 531 746 584 690 c 128,-1,18
 637 634 637 634 637 514 c 0,19,20
 637 470 637 470 629 414 c 128,-1,21
 621 358 621 358 603 299 c 128,-1,22
 585 240 585 240 557.5 183.5 c 128,-1,23
 530 127 530 127 491 83 c 128,-1,24
 452 39 452 39 401.5 12 c 128,-1,25
 351 -15 351 -15 287 -15 c 0,26,27
 201 -15 201 -15 147.5 41 c 128,-1,28
 94 97 94 97 94 217 c 0,29,30
 94 261 94 261 102.5 316.5 c 128,-1,31
 111 372 111 372 128.5 431 c 128,-1,32
 146 490 146 490 174.5 546.5 c 128,-1,33
 203 603 203 603 241.5 647 c 128,-1,34
 280 691 280 691 331 718.5 c 128,-1,35
 382 746 382 746 446 746 c 0,16,17
EndSplineSet
EndChar

StartChar: P
Encoding: 80 80 51
Width: 588
VWidth: 1177
Flags: W
LayerCount: 2
Fore
SplineSet
420 736 m 0,0,1
 517 736 517 736 577 690.5 c 128,-1,2
 637 645 637 645 637 556 c 0,3,4
 637 492 637 492 613.5 440 c 128,-1,5
 590 388 590 388 546.5 350.5 c 128,-1,6
 503 313 503 313 443 292.5 c 128,-1,7
 383 272 383 272 310 272 c 2,8,-1
 225 272 l 1,9,-1
 159 0 l 1,10,-1
 64 0 l 1,11,-1
 234 718 l 1,12,13
 249 722 249 722 273 725 c 128,-1,14
 297 728 297 728 323 731 c 128,-1,15
 349 734 349 734 374 735 c 128,-1,16
 399 736 399 736 420 736 c 0,0,1
405 654 m 0,17,18
 378 654 378 654 353.5 652.5 c 128,-1,19
 329 651 329 651 316 649 c 1,20,-1
 244 355 l 1,21,-1
 323 355 l 2,22,23
 428 355 428 355 484.5 405.5 c 128,-1,24
 541 456 541 456 541 547 c 0,25,26
 541 576 541 576 529 596.5 c 128,-1,27
 517 617 517 617 497.5 630 c 128,-1,28
 478 643 478 643 454 648.5 c 128,-1,29
 430 654 430 654 405 654 c 0,17,18
EndSplineSet
EndChar

StartChar: Q
Encoding: 81 81 52
Width: 588
VWidth: 1177
Flags: W
LayerCount: 2
Fore
SplineSet
446 746 m 0,0,1
 531 746 531 746 584 690 c 128,-1,2
 637 634 637 634 637 514 c 0,3,4
 637 473 637 473 630 419.5 c 128,-1,5
 623 366 623 366 607 310 c 128,-1,6
 591 254 591 254 566.5 199.5 c 128,-1,7
 542 145 542 145 507 101 c 128,-1,8
 472 57 472 57 426 26 c 128,-1,9
 380 -5 380 -5 324 -13 c 1,10,-1
 324 -21 l 2,11,12
 324 -59 324 -59 368.5 -83 c 128,-1,13
 413 -107 413 -107 486 -117 c 1,14,-1
 444 -194 l 1,15,16
 402 -186 402 -186 361 -175 c 128,-1,17
 320 -164 320 -164 289.5 -144 c 128,-1,18
 259 -124 259 -124 241 -92.5 c 128,-1,19
 223 -61 223 -61 223 -12 c 2,20,-1
 223 -6 l 1,21,22
 164 10 164 10 129 65 c 128,-1,23
 94 120 94 120 94 217 c 0,24,25
 94 261 94 261 102.5 316.5 c 128,-1,26
 111 372 111 372 128.5 431 c 128,-1,27
 146 490 146 490 174.5 546.5 c 128,-1,28
 203 603 203 603 241.5 647 c 128,-1,29
 280 691 280 691 331 718.5 c 128,-1,30
 382 746 382 746 446 746 c 0,0,1
435 662 m 0,31,32
 377 662 377 662 331.5 619 c 128,-1,33
 286 576 286 576 255.5 510.5 c 128,-1,34
 225 445 225 445 208.5 368 c 128,-1,35
 192 291 192 291 192 224 c 0,36,37
 192 140 192 140 220.5 104 c 128,-1,38
 249 68 249 68 299 68 c 0,39,40
 357 68 357 68 401.5 111 c 128,-1,41
 446 154 446 154 477 219.5 c 128,-1,42
 508 285 508 285 523.5 362 c 128,-1,43
 539 439 539 439 539 506 c 0,44,45
 539 588 539 588 511.5 625 c 128,-1,46
 484 662 484 662 435 662 c 0,31,32
EndSplineSet
EndChar

StartChar: R
Encoding: 82 82 53
Width: 588
VWidth: 1177
Flags: W
LayerCount: 2
Fore
SplineSet
622 562 m 0,0,1
 622 462 622 462 569 397 c 128,-1,2
 516 332 516 332 429 305 c 1,3,4
 444 273 444 273 457.5 243.5 c 128,-1,5
 471 214 471 214 483 179.5 c 128,-1,6
 495 145 495 145 506.5 101.5 c 128,-1,7
 518 58 518 58 531 0 c 1,8,-1
 432 0 l 1,9,10
 419 62 419 62 407 106.5 c 128,-1,11
 395 151 395 151 383 183.5 c 128,-1,12
 371 216 371 216 359 240 c 128,-1,13
 347 264 347 264 336 287 c 1,14,-1
 218 287 l 1,15,-1
 148 0 l 1,16,-1
 53 0 l 1,17,-1
 224 718 l 1,18,19
 243 723 243 723 266 726.5 c 128,-1,20
 289 730 289 730 312.5 732 c 128,-1,21
 336 734 336 734 359 735 c 128,-1,22
 382 736 382 736 400 736 c 0,23,24
 515 736 515 736 568.5 688.5 c 128,-1,25
 622 641 622 641 622 562 c 0,0,1
393 654 m 0,26,27
 366 654 366 654 341 652.5 c 128,-1,28
 316 651 316 651 304 649 c 1,29,-1
 237 367 l 1,30,-1
 296 367 l 2,31,32
 343 367 343 367 384.5 375 c 128,-1,33
 426 383 426 383 457.5 403.5 c 128,-1,34
 489 424 489 424 507 459 c 128,-1,35
 525 494 525 494 525 547 c 0,36,37
 525 604 525 604 488.5 629 c 128,-1,38
 452 654 452 654 393 654 c 0,26,27
EndSplineSet
EndChar

StartChar: S
Encoding: 83 83 54
Width: 588
VWidth: 1177
Flags: W
LayerCount: 2
Fore
SplineSet
280 69 m 0,0,1
 312 69 312 69 343.5 76.5 c 128,-1,2
 375 84 375 84 399.5 99.5 c 128,-1,3
 424 115 424 115 438.5 141.5 c 128,-1,4
 453 168 453 168 453 207 c 0,5,6
 453 233 453 233 443 252.5 c 128,-1,7
 433 272 433 272 416 288 c 128,-1,8
 399 304 399 304 376 317.5 c 128,-1,9
 353 331 353 331 326 345 c 0,10,11
 301 358 301 358 277.5 373.5 c 128,-1,12
 254 389 254 389 236.5 409.5 c 128,-1,13
 219 430 219 430 208 459 c 128,-1,14
 197 488 197 488 197 529 c 0,15,16
 197 624 197 624 263.5 685 c 128,-1,17
 330 746 330 746 465 746 c 0,18,19
 494 746 494 746 522.5 741 c 128,-1,20
 551 736 551 736 574 729 c 128,-1,21
 597 722 597 722 615 714.5 c 128,-1,22
 633 707 633 707 642 701 c 1,23,-1
 596 623 l 1,24,25
 578 638 578 638 539.5 649.5 c 128,-1,26
 501 661 501 661 448 661 c 0,27,28
 415 661 415 661 387 654 c 128,-1,29
 359 647 359 647 338.5 632 c 128,-1,30
 318 617 318 617 306 593.5 c 128,-1,31
 294 570 294 570 294 538 c 0,32,33
 294 511 294 511 302.5 492 c 128,-1,34
 311 473 311 473 325 459 c 128,-1,35
 339 445 339 445 359.5 433.5 c 128,-1,36
 380 422 380 422 405 409 c 0,37,38
 436 393 436 393 463 376.5 c 128,-1,39
 490 360 490 360 509.5 338.5 c 128,-1,40
 529 317 529 317 540 287.5 c 128,-1,41
 551 258 551 258 551 217 c 0,42,43
 551 159 551 159 530.5 115.5 c 128,-1,44
 510 72 510 72 473 43 c 128,-1,45
 436 14 436 14 384 -0.5 c 128,-1,46
 332 -15 332 -15 269 -15 c 0,47,48
 188 -15 188 -15 136 3.5 c 128,-1,49
 84 22 84 22 64 37 c 1,50,-1
 108 117 l 1,51,52
 128 104 128 104 170.5 86.5 c 128,-1,53
 213 69 213 69 280 69 c 0,0,1
EndSplineSet
EndChar

StartChar: T
Encoding: 84 84 55
Width: 588
VWidth: 1177
Flags: W
LayerCount: 2
Fore
SplineSet
694 729 m 1,0,-1
 674 647 l 1,1,-1
 475 647 l 1,2,-1
 319 0 l 1,3,-1
 221 0 l 1,4,-1
 378 647 l 1,5,-1
 179 647 l 1,6,-1
 199 729 l 1,7,-1
 694 729 l 1,0,-1
EndSplineSet
EndChar

StartChar: U
Encoding: 85 85 56
Width: 588
VWidth: 1177
Flags: W
LayerCount: 2
Fore
SplineSet
279 -15 m 0,0,1
 231 -15 231 -15 197 1.5 c 128,-1,2
 163 18 163 18 140 45.5 c 128,-1,3
 117 73 117 73 106 109.5 c 128,-1,4
 95 146 95 146 95 186 c 0,5,6
 95 221 95 221 105 261 c 2,7,-1
 217 729 l 1,8,-1
 313 729 l 1,9,-1
 201 263 l 2,10,11
 192 223 192 223 192 188 c 0,12,13
 192 163 192 163 197.5 141.5 c 128,-1,14
 203 120 203 120 214.5 103.5 c 128,-1,15
 226 87 226 87 245.5 77.5 c 128,-1,16
 265 68 265 68 293 68 c 0,17,18
 325 68 325 68 351 76 c 128,-1,19
 377 84 377 84 398 104 c 128,-1,20
 419 124 419 124 435.5 159 c 128,-1,21
 452 194 452 194 466 250 c 2,22,-1
 582 729 l 1,23,-1
 678 729 l 1,24,-1
 561 238 l 2,25,26
 547 178 547 178 526 131 c 128,-1,27
 505 84 505 84 473 51.5 c 128,-1,28
 441 19 441 19 393.5 2 c 128,-1,29
 346 -15 346 -15 279 -15 c 0,0,1
EndSplineSet
EndChar

StartChar: V
Encoding: 86 86 57
Width: 588
VWidth: 1177
Flags: W
LayerCount: 2
Fore
SplineSet
261 729 m 1,0,1
 262 519 262 519 270.5 359 c 128,-1,2
 279 199 279 199 287 85 c 1,3,4
 369 237 369 237 452.5 394 c 128,-1,5
 536 551 536 551 617 729 c 1,6,-1
 721 729 l 1,7,8
 703 691 703 691 663.5 612.5 c 128,-1,9
 624 534 624 534 570.5 433 c 128,-1,10
 517 332 517 332 454 219 c 128,-1,11
 391 106 391 106 327 0 c 1,12,-1
 207 0 l 1,13,14
 195 106 195 106 186.5 219 c 128,-1,15
 178 332 178 332 172 433 c 128,-1,16
 166 534 166 534 163 612.5 c 128,-1,17
 160 691 160 691 160 729 c 1,18,-1
 261 729 l 1,0,1
EndSplineSet
EndChar

StartChar: W
Encoding: 87 87 58
Width: 588
VWidth: 1177
Flags: W
LayerCount: 2
Fore
SplineSet
360 364 m 1,0,-1
 160 0 l 1,1,-1
 69 0 l 1,2,3
 76 75 76 75 89 162 c 128,-1,4
 102 249 102 249 118.5 342.5 c 128,-1,5
 135 436 135 436 154 533.5 c 128,-1,6
 173 631 173 631 192 729 c 1,7,-1
 287 729 l 1,8,9
 273 668 273 668 256 592.5 c 128,-1,10
 239 517 239 517 221 436 c 128,-1,11
 203 355 203 355 184.5 273 c 128,-1,12
 166 191 166 191 151 118 c 1,13,14
 169 151 169 151 191.5 191.5 c 128,-1,15
 214 232 214 232 239 276 c 128,-1,16
 264 320 264 320 288.5 365 c 128,-1,17
 313 410 313 410 337 452 c 1,18,-1
 420 452 l 1,19,20
 422 412 422 412 426 367 c 128,-1,21
 430 322 430 322 434 277 c 128,-1,22
 438 232 438 232 441.5 191 c 128,-1,23
 445 150 445 150 449 118 c 1,24,25
 470 193 470 193 492.5 274 c 128,-1,26
 515 355 515 355 536.5 435 c 128,-1,27
 558 515 558 515 577.5 590 c 128,-1,28
 597 665 597 665 614 729 c 1,29,-1
 707 729 l 1,30,31
 655 545 655 545 601 368 c 128,-1,32
 547 191 547 191 477 0 c 1,33,-1
 388 0 l 1,34,-1
 360 364 l 1,0,-1
EndSplineSet
EndChar

StartChar: X
Encoding: 88 88 59
Width: 588
VWidth: 1177
Flags: W
LayerCount: 2
Fore
SplineSet
457 0 m 1,0,1
 442 75 442 75 420 151 c 128,-1,2
 398 227 398 227 371 303 c 1,3,-1
 126 0 l 1,4,-1
 11 0 l 1,5,-1
 331 389 l 1,6,-1
 207 729 l 1,7,-1
 313 729 l 1,8,-1
 405 464 l 1,9,10
 459 530 459 530 510 596.5 c 128,-1,11
 561 663 561 663 605 729 c 1,12,-1
 716 729 l 1,13,14
 656 642 656 642 583.5 553 c 128,-1,15
 511 464 511 464 442 383 c 1,16,17
 458 341 458 341 475 292 c 128,-1,18
 492 243 492 243 507.5 193 c 128,-1,19
 523 143 523 143 536 93.5 c 128,-1,20
 549 44 549 44 558 0 c 1,21,-1
 457 0 l 1,0,1
EndSplineSet
EndChar

StartChar: Y
Encoding: 89 89 60
Width: 588
VWidth: 1177
Flags: W
LayerCount: 2
Fore
SplineSet
733 729 m 1,0,1
 662 614 662 614 575.5 500 c 128,-1,2
 489 386 489 386 393 273 c 1,3,-1
 327 0 l 1,4,-1
 231 0 l 1,5,-1
 296 271 l 1,6,7
 252 389 252 389 221 501.5 c 128,-1,8
 190 614 190 614 173 729 c 1,9,-1
 270 729 l 1,10,11
 281 634 281 634 306.5 532 c 128,-1,12
 332 430 332 430 359 345 c 1,13,14
 394 391 394 391 431 440.5 c 128,-1,15
 468 490 468 490 502.5 540 c 128,-1,16
 537 590 537 590 569 638.5 c 128,-1,17
 601 687 601 687 628 729 c 1,18,-1
 733 729 l 1,0,1
EndSplineSet
EndChar

StartChar: Z
Encoding: 90 90 61
Width: 588
VWidth: 1177
Flags: W
LayerCount: 2
Fore
SplineSet
655 648 m 1,0,1
 606 596 606 596 541.5 524.5 c 128,-1,2
 477 453 477 453 410 376 c 128,-1,3
 343 299 343 299 280.5 222.5 c 128,-1,4
 218 146 218 146 172 82 c 1,5,-1
 530 82 l 1,6,-1
 511 0 l 1,7,-1
 42 0 l 1,8,-1
 61 80 l 1,9,10
 116 152 116 152 177 227 c 128,-1,11
 238 302 238 302 300 375 c 128,-1,12
 362 448 362 448 423.5 517.5 c 128,-1,13
 485 587 485 587 542 647 c 1,14,-1
 211 647 l 1,15,-1
 231 729 l 1,16,-1
 674 729 l 1,17,-1
 655 648 l 1,0,1
EndSplineSet
EndChar

StartChar: bracketleft
Encoding: 91 91 62
Width: 588
VWidth: 1177
Flags: W
LayerCount: 2
Fore
SplineSet
360 823 m 1,0,-1
 644 823 l 1,1,-1
 625 747 l 1,2,-1
 435 747 l 1,3,-1
 226 -118 l 1,4,-1
 418 -118 l 1,5,-1
 398 -194 l 1,6,-1
 115 -194 l 1,7,-1
 360 823 l 1,0,-1
EndSplineSet
Substitution2: "'case' Case-Sensitive Forms lookup 17 subtable" Bracketleft
EndChar

StartChar: backslash
Encoding: 92 92 63
Width: 588
VWidth: 1177
Flags: W
LayerCount: 2
Fore
SplineSet
258 823 m 1,0,-1
 356 823 l 1,1,-1
 437 -194 l 1,2,-1
 338 -194 l 1,3,-1
 258 823 l 1,0,-1
EndSplineSet
Substitution2: "'case' Case-Sensitive Forms lookup 17 subtable" Backslash
EndChar

StartChar: bracketright
Encoding: 93 93 64
Width: 588
VWidth: 1177
Flags: W
LayerCount: 2
Fore
SplineSet
312 -194 m 1,0,-1
 29 -194 l 1,1,-1
 47 -118 l 1,2,-1
 239 -118 l 1,3,-1
 448 747 l 1,4,-1
 256 747 l 1,5,-1
 274 823 l 1,6,-1
 557 823 l 1,7,-1
 312 -194 l 1,0,-1
EndSplineSet
Substitution2: "'case' Case-Sensitive Forms lookup 17 subtable" Bracketright
EndChar

StartChar: asciicircum
Encoding: 94 94 65
Width: 588
VWidth: 1177
Flags: W
LayerCount: 2
Fore
SplineSet
435 628 m 1,0,-1
 200 335 l 1,1,-1
 128 378 l 1,2,-1
 410 729 l 1,3,-1
 494 729 l 1,4,-1
 608 369 l 1,5,-1
 528 333 l 1,6,-1
 435 628 l 1,0,-1
EndSplineSet
EndChar

StartChar: underscore
Encoding: 95 95 66
Width: 588
VWidth: 1177
Flags: W
LayerCount: 2
Fore
SplineSet
-12 -112 m 1,0,-1
 515 -112 l 1,1,-1
 495 -194 l 1,2,-1
 -32 -194 l 1,3,-1
 -12 -112 l 1,0,-1
EndSplineSet
EndChar

StartChar: grave
Encoding: 96 96 67
Width: 588
VWidth: 1177
Flags: W
LayerCount: 2
Fore
SplineSet
378 814 m 1,0,-1
 512 645 l 1,1,-1
 461 600 l 1,2,-1
 307 754 l 1,3,-1
 378 814 l 1,0,-1
EndSplineSet
EndChar

StartChar: a
Encoding: 97 97 68
Width: 588
VWidth: 1177
Flags: W
LayerCount: 2
Fore
SplineSet
443 -6 m 1,0,1
 437 6 437 6 432.5 19.5 c 128,-1,2
 428 33 428 33 425 49 c 1,3,4
 401 28 401 28 359.5 7.5 c 128,-1,5
 318 -13 318 -13 261 -13 c 0,6,7
 169 -13 169 -13 126.5 42.5 c 128,-1,8
 84 98 84 98 84 183 c 0,9,10
 84 254 84 254 107.5 321 c 128,-1,11
 131 388 131 388 178.5 441 c 128,-1,12
 226 494 226 494 298 526 c 128,-1,13
 370 558 370 558 465 558 c 0,14,15
 479 558 479 558 497.5 557 c 128,-1,16
 516 556 516 556 535 552.5 c 128,-1,17
 554 549 554 549 572 543.5 c 128,-1,18
 590 538 590 538 604 531 c 1,19,-1
 524 201 l 2,20,21
 518 176 518 176 514 154.5 c 128,-1,22
 510 133 510 133 510 108 c 256,23,24
 510 83 510 83 514.5 59 c 128,-1,25
 519 35 519 35 529 6 c 1,26,-1
 443 -6 l 1,0,1
282 67 m 0,27,28
 327 67 327 67 361.5 86 c 128,-1,29
 396 105 396 105 419 131 c 1,30,31
 420 149 420 149 423 171 c 128,-1,32
 426 193 426 193 431 213 c 2,33,-1
 496 471 l 1,34,35
 490 473 490 473 473.5 475 c 128,-1,36
 457 477 457 477 448 477 c 0,37,38
 388 477 388 477 339 453.5 c 128,-1,39
 290 430 290 430 254.5 390.5 c 128,-1,40
 219 351 219 351 200 300 c 128,-1,41
 181 249 181 249 181 193 c 0,42,43
 181 166 181 166 186 143 c 128,-1,44
 191 120 191 120 202 103.5 c 128,-1,45
 213 87 213 87 233 77 c 128,-1,46
 253 67 253 67 282 67 c 0,27,28
EndSplineSet
Substitution2: "'case' Case-Sensitive Forms lookup 18 subtable" A
Substitution2: "'ordn' Ordinals in Latin lookup 7 subtable" ordfeminine
EndChar

StartChar: b
Encoding: 98 98 69
Width: 588
VWidth: 1177
Flags: W
LayerCount: 2
Fore
SplineSet
292 525 m 1,0,1
 317 540 317 540 348.5 549.5 c 128,-1,2
 380 559 380 559 416 559 c 0,3,4
 462 559 462 559 495.5 544.5 c 128,-1,5
 529 530 529 530 550.5 504.5 c 128,-1,6
 572 479 572 479 583.5 444 c 128,-1,7
 595 409 595 409 595 367 c 0,8,9
 595 294 595 294 572 226 c 128,-1,10
 549 158 549 158 502 105 c 128,-1,11
 455 52 455 52 383.5 20 c 128,-1,12
 312 -12 312 -12 217 -12 c 0,13,14
 185 -12 185 -12 143.5 -4 c 128,-1,15
 102 4 102 4 74 21 c 1,16,-1
 260 800 l 1,17,-1
 362 816 l 1,18,-1
 292 525 l 1,0,1
391 477 m 256,19,20
 359 477 359 477 327.5 466.5 c 128,-1,21
 296 456 296 456 269 436 c 1,22,-1
 183 79 l 1,23,24
 207 73 207 73 234 73 c 0,25,26
 294 73 294 73 343 96.5 c 128,-1,27
 392 120 392 120 426.5 159.5 c 128,-1,28
 461 199 461 199 479.5 250.5 c 128,-1,29
 498 302 498 302 498 357 c 0,30,31
 498 381 498 381 493.5 402.5 c 128,-1,32
 489 424 489 424 476.5 440.5 c 128,-1,33
 464 457 464 457 443.5 467 c 128,-1,34
 423 477 423 477 391 477 c 256,19,20
EndSplineSet
Substitution2: "'case' Case-Sensitive Forms lookup 18 subtable" B
EndChar

StartChar: c
Encoding: 99 99 70
Width: 588
VWidth: 1177
Flags: W
LayerCount: 2
Fore
SplineSet
84 196 m 0,0,1
 84 268 84 268 108 333.5 c 128,-1,2
 132 399 132 399 178.5 450 c 128,-1,3
 225 501 225 501 292.5 531 c 128,-1,4
 360 561 360 561 449 561 c 0,5,6
 497 561 497 561 533.5 554.5 c 128,-1,7
 570 548 570 548 602 535 c 1,8,-1
 565 452 l 1,9,10
 545 461 545 461 517.5 469.5 c 128,-1,11
 490 478 490 478 441 478 c 0,12,13
 381 478 381 478 332.5 455 c 128,-1,14
 284 432 284 432 250.5 394 c 128,-1,15
 217 356 217 356 199 307 c 128,-1,16
 181 258 181 258 181 205 c 0,17,18
 181 178 181 178 188.5 154 c 128,-1,19
 196 130 196 130 214.5 111 c 128,-1,20
 233 92 233 92 265.5 81.5 c 128,-1,21
 298 71 298 71 347 71 c 0,22,23
 373 71 373 71 398 74.5 c 128,-1,24
 423 78 423 78 444 84 c 128,-1,25
 465 90 465 90 481 95.5 c 128,-1,26
 497 101 497 101 505 107 c 1,27,-1
 514 25 l 1,28,29
 493 12 493 12 445 -1 c 128,-1,30
 397 -14 397 -14 330 -14 c 0,31,32
 208 -14 208 -14 146 45 c 128,-1,33
 84 104 84 104 84 196 c 0,0,1
EndSplineSet
Substitution2: "'case' Case-Sensitive Forms lookup 18 subtable" C
EndChar

StartChar: d
Encoding: 100 100 71
Width: 588
VWidth: 1177
Flags: W
LayerCount: 2
Fore
SplineSet
521 108 m 256,0,1
 521 83 521 83 525.5 59 c 128,-1,2
 530 35 530 35 539 6 c 1,3,-1
 453 -6 l 1,4,5
 447 5 447 5 442.5 19 c 128,-1,6
 438 33 438 33 436 49 c 1,7,8
 412 28 412 28 372.5 7.5 c 128,-1,9
 333 -13 333 -13 273 -13 c 0,10,11
 181 -13 181 -13 137.5 41 c 128,-1,12
 94 95 94 95 94 183 c 0,13,14
 94 254 94 254 117.5 321.5 c 128,-1,15
 141 389 141 389 188.5 441.5 c 128,-1,16
 236 494 236 494 306.5 526 c 128,-1,17
 377 558 377 558 470 558 c 0,18,19
 497 558 497 558 524 555 c 1,20,-1
 583 800 l 1,21,-1
 683 816 l 1,22,-1
 535 201 l 2,23,24
 529 176 529 176 525 154.5 c 128,-1,25
 521 133 521 133 521 108 c 256,0,1
292 67 m 0,26,27
 337 67 337 67 371.5 86 c 128,-1,28
 406 105 406 105 430 131 c 1,29,30
 431 149 431 149 434 171 c 128,-1,31
 437 193 437 193 442 213 c 2,32,-1
 506 471 l 1,33,34
 500 473 500 473 483 475 c 128,-1,35
 466 477 466 477 457 477 c 0,36,37
 397 477 397 477 348 453.5 c 128,-1,38
 299 430 299 430 264.5 390.5 c 128,-1,39
 230 351 230 351 211 300 c 128,-1,40
 192 249 192 249 192 193 c 0,41,42
 192 166 192 166 196.5 143 c 128,-1,43
 201 120 201 120 212.5 103.5 c 128,-1,44
 224 87 224 87 243.5 77 c 128,-1,45
 263 67 263 67 292 67 c 0,26,27
EndSplineSet
Substitution2: "'case' Case-Sensitive Forms lookup 18 subtable" D
EndChar

StartChar: e
Encoding: 101 101 72
Width: 588
VWidth: 1177
Flags: W
LayerCount: 2
Fore
SplineSet
191 287 m 1,0,1
 262 288 262 288 318.5 293.5 c 128,-1,2
 375 299 375 299 414 313 c 128,-1,3
 453 327 453 327 474.5 352.5 c 128,-1,4
 496 378 496 378 496 417 c 0,5,6
 496 426 496 426 492 437 c 128,-1,7
 488 448 488 448 478 457 c 128,-1,8
 468 466 468 466 450 472 c 128,-1,9
 432 478 432 478 406 478 c 0,10,11
 366 478 366 478 331.5 462 c 128,-1,12
 297 446 297 446 268.5 419.5 c 128,-1,13
 240 393 240 393 221 359 c 128,-1,14
 202 325 202 325 191 287 c 1,0,1
310 -14 m 0,15,16
 252 -14 252 -14 209.5 3 c 128,-1,17
 167 20 167 20 139 48.5 c 128,-1,18
 111 77 111 77 97.5 114 c 128,-1,19
 84 151 84 151 84 191 c 0,20,21
 84 265 84 265 107 332 c 128,-1,22
 130 399 130 399 173.5 449 c 128,-1,23
 217 499 217 499 278.5 529 c 128,-1,24
 340 559 340 559 418 559 c 0,25,26
 464 559 464 559 497 548 c 128,-1,27
 530 537 530 537 551 519 c 128,-1,28
 572 501 572 501 582 476 c 128,-1,29
 592 451 592 451 592 424 c 0,30,31
 592 350 592 350 554.5 308.5 c 128,-1,32
 517 267 517 267 457 246.5 c 128,-1,33
 397 226 397 226 323.5 220 c 128,-1,34
 250 214 250 214 179 212 c 1,35,36
 172 138 172 138 218 104.5 c 128,-1,37
 264 71 264 71 339 71 c 0,38,39
 364 71 364 71 390.5 75 c 128,-1,40
 417 79 417 79 440 84.5 c 128,-1,41
 463 90 463 90 480.5 96 c 128,-1,42
 498 102 498 102 505 107 c 1,43,-1
 514 25 l 1,44,45
 492 13 492 13 441 -0.5 c 128,-1,46
 390 -14 390 -14 310 -14 c 0,15,16
EndSplineSet
Substitution2: "'case' Case-Sensitive Forms lookup 18 subtable" E
EndChar

StartChar: f
Encoding: 102 102 73
Width: 588
VWidth: 1177
Flags: W
LayerCount: 2
Fore
SplineSet
405 465 m 1,0,-1
 310 21 l 2,1,2
 297 -38 297 -38 280 -79.5 c 128,-1,3
 263 -121 263 -121 237 -147.5 c 128,-1,4
 211 -174 211 -174 174 -186 c 128,-1,5
 137 -198 137 -198 86 -198 c 0,6,7
 68 -198 68 -198 46 -193 c 128,-1,8
 24 -188 24 -188 11 -179 c 1,9,-1
 33 -98 l 1,10,11
 58 -113 58 -113 101 -113 c 0,12,13
 148 -113 148 -113 174 -76.5 c 128,-1,14
 200 -40 200 -40 213 20 c 2,15,-1
 307 465 l 1,16,-1
 190 465 l 1,17,-1
 210 547 l 1,18,-1
 325 547 l 1,19,-1
 336 596 l 2,20,21
 358 702 358 702 415 759 c 128,-1,22
 472 816 472 816 585 816 c 0,23,24
 622 816 622 816 655 809 c 128,-1,25
 688 802 688 802 704 793 c 1,26,-1
 665 715 l 1,27,28
 656 720 656 720 636.5 726.5 c 128,-1,29
 617 733 617 733 576 733 c 0,30,31
 542 733 542 733 518 723 c 128,-1,32
 494 713 494 713 476.5 694.5 c 128,-1,33
 459 676 459 676 449 650.5 c 128,-1,34
 439 625 439 625 432 595 c 2,35,-1
 422 547 l 1,36,-1
 643 547 l 1,37,-1
 623 465 l 1,38,-1
 405 465 l 1,0,-1
EndSplineSet
Substitution2: "'case' Case-Sensitive Forms lookup 18 subtable" F
EndChar

StartChar: g
Encoding: 103 103 74
Width: 588
VWidth: 1177
Flags: W
LayerCount: 2
Fore
SplineSet
211 -115 m 0,0,1
 298 -115 298 -115 345.5 -77 c 128,-1,2
 393 -39 393 -39 409 37 c 2,3,-1
 413 57 l 1,4,5
 392 45 392 45 354 33.5 c 128,-1,6
 316 22 316 22 278 22 c 0,7,8
 192 22 192 22 146.5 64.5 c 128,-1,9
 101 107 101 107 101 184 c 0,10,11
 101 255 101 255 124 322 c 128,-1,12
 147 389 147 389 194 442 c 128,-1,13
 241 495 241 495 312 526.5 c 128,-1,14
 383 558 383 558 477 558 c 0,15,16
 491 558 491 558 511 557 c 128,-1,17
 531 556 531 556 551.5 553 c 128,-1,18
 572 550 572 550 591.5 544.5 c 128,-1,19
 611 539 611 539 625 531 c 1,20,-1
 504 47 l 2,21,22
 490 -10 490 -10 470 -55 c 128,-1,23
 450 -100 450 -100 415 -132 c 128,-1,24
 380 -164 380 -164 326 -181 c 128,-1,25
 272 -198 272 -198 190 -198 c 0,26,27
 145 -198 145 -198 100 -186 c 128,-1,28
 55 -174 55 -174 25 -155 c 1,29,-1
 62 -74 l 1,30,31
 86 -92 86 -92 126 -103.5 c 128,-1,32
 166 -115 166 -115 211 -115 c 0,0,1
299 102 m 0,33,34
 320 102 320 102 340 107 c 128,-1,35
 360 112 360 112 378.5 119 c 128,-1,36
 397 126 397 126 411.5 133.5 c 128,-1,37
 426 141 426 141 436 148 c 1,38,-1
 512 471 l 1,39,40
 501 473 501 473 485.5 475 c 128,-1,41
 470 477 470 477 457 477 c 0,42,43
 400 477 400 477 352.5 453.5 c 128,-1,44
 305 430 305 430 270.5 391 c 128,-1,45
 236 352 236 352 217 302.5 c 128,-1,46
 198 253 198 253 198 203 c 0,47,48
 198 146 198 146 222.5 124 c 128,-1,49
 247 102 247 102 299 102 c 0,33,34
EndSplineSet
Substitution2: "'case' Case-Sensitive Forms lookup 18 subtable" G
EndChar

StartChar: h
Encoding: 104 104 75
Width: 588
VWidth: 1177
Flags: W
LayerCount: 2
Fore
SplineSet
53 0 m 1,0,-1
 244 800 l 1,1,-1
 345 816 l 1,2,-1
 278 538 l 1,3,4
 302 547 302 547 329 552.5 c 128,-1,5
 356 558 356 558 383 558 c 0,6,7
 430 558 430 558 464 545 c 128,-1,8
 498 532 498 532 519.5 509 c 128,-1,9
 541 486 541 486 551 454.5 c 128,-1,10
 561 423 561 423 561 385 c 0,11,12
 561 360 561 360 556 333 c 128,-1,13
 551 306 551 306 544 278 c 2,14,-1
 477 0 l 1,15,-1
 380 0 l 1,16,-1
 442 257 l 2,17,18
 449 286 449 286 456.5 317.5 c 128,-1,19
 464 349 464 349 464 377 c 0,20,21
 464 418 464 418 440.5 445.5 c 128,-1,22
 417 473 417 473 355 473 c 0,23,24
 302 473 302 473 260 457 c 1,25,-1
 148 0 l 1,26,-1
 53 0 l 1,0,-1
EndSplineSet
Substitution2: "'case' Case-Sensitive Forms lookup 18 subtable" H
EndChar

StartChar: i
Encoding: 105 105 76
Width: 588
VWidth: 1177
Flags: W
LayerCount: 2
Fore
SplineSet
359 241 m 2,0,1
 353 217 353 217 349 196.5 c 128,-1,2
 345 176 345 176 345 155 c 0,3,4
 345 122 345 122 362 100.5 c 128,-1,5
 379 79 379 79 428 79 c 0,6,7
 448 79 448 79 466.5 82 c 128,-1,8
 485 85 485 85 502 90 c 1,9,-1
 496 7 l 1,10,11
 488 5 488 5 466 0.5 c 128,-1,12
 444 -4 444 -4 404 -4 c 0,13,14
 360 -4 360 -4 330 8 c 128,-1,15
 300 20 300 20 282 40 c 128,-1,16
 264 60 264 60 256.5 87 c 128,-1,17
 249 114 249 114 249 146 c 0,18,19
 249 171 249 171 253 197 c 128,-1,20
 257 223 257 223 263 250 c 2,21,-1
 316 465 l 1,22,-1
 158 465 l 1,23,-1
 177 547 l 1,24,-1
 431 547 l 1,25,-1
 359 241 l 2,0,1
389 631 m 0,26,27
 358 631 358 631 338 649 c 128,-1,28
 318 667 318 667 318 701 c 0,29,30
 318 742 318 742 344 765.5 c 128,-1,31
 370 789 370 789 402 789 c 0,32,33
 433 789 433 789 453 770 c 128,-1,34
 473 751 473 751 473 717 c 0,35,36
 473 697 473 697 465.5 682 c 128,-1,37
 458 667 458 667 445.5 655 c 128,-1,38
 433 643 433 643 418.5 637 c 128,-1,39
 404 631 404 631 389 631 c 0,26,27
EndSplineSet
Substitution2: "'case' Case-Sensitive Forms lookup 18 subtable" I
Substitution2: "'locl' Localized Forms in Latin lookup 2 subtable" i.locl
Substitution2: "'locl' Localized Forms in Latin lookup 1 subtable" i.locl
Substitution2: "'locl' Localized Forms in Latin lookup 0 subtable" i.locl
EndChar

StartChar: j
Encoding: 106 106 77
Width: 588
VWidth: 1177
Flags: W
LayerCount: 2
Fore
SplineSet
225 465 m 1,0,-1
 244 547 l 1,1,-1
 562 547 l 1,2,-1
 432 7 l 2,3,4
 405 -106 405 -106 341.5 -152 c 128,-1,5
 278 -198 278 -198 181 -198 c 0,6,7
 93 -198 93 -198 25 -155 c 1,8,-1
 62 -74 l 1,9,10
 74 -83 74 -83 90 -90.5 c 128,-1,11
 106 -98 106 -98 123.5 -103 c 128,-1,12
 141 -108 141 -108 159 -111 c 128,-1,13
 177 -114 177 -114 192 -114 c 0,14,15
 253 -114 253 -114 286 -87 c 128,-1,16
 319 -60 319 -60 336 9 c 2,17,-1
 446 465 l 1,18,-1
 225 465 l 1,0,-1
504 631 m 0,19,20
 473 631 473 631 453 649 c 128,-1,21
 433 667 433 667 433 701 c 0,22,23
 433 742 433 742 459 765.5 c 128,-1,24
 485 789 485 789 517 789 c 0,25,26
 548 789 548 789 568.5 770 c 128,-1,27
 589 751 589 751 589 717 c 0,28,29
 589 697 589 697 581.5 682 c 128,-1,30
 574 667 574 667 562 655 c 128,-1,31
 550 643 550 643 534.5 637 c 128,-1,32
 519 631 519 631 504 631 c 0,19,20
EndSplineSet
Substitution2: "'case' Case-Sensitive Forms lookup 18 subtable" J
EndChar

StartChar: k
Encoding: 107 107 78
Width: 588
VWidth: 1177
Flags: W
LayerCount: 2
Fore
SplineSet
74 0 m 1,0,-1
 266 800 l 1,1,-1
 367 816 l 1,2,-1
 249 326 l 1,3,4
 320 378 320 378 393 435 c 128,-1,5
 466 492 466 492 527 547 c 1,6,-1
 642 547 l 1,7,8
 613 516 613 516 573.5 482 c 128,-1,9
 534 448 534 448 492 414 c 128,-1,10
 450 380 450 380 410 349.5 c 128,-1,11
 370 319 370 319 339 297 c 1,12,13
 366 273 366 273 395 239 c 128,-1,14
 424 205 424 205 450.5 165 c 128,-1,15
 477 125 477 125 500 82.5 c 128,-1,16
 523 40 523 40 537 0 c 1,17,-1
 432 0 l 1,18,19
 394 85 394 85 343.5 157 c 128,-1,20
 293 229 293 229 237 273 c 1,21,-1
 171 0 l 1,22,-1
 74 0 l 1,0,-1
EndSplineSet
Substitution2: "'case' Case-Sensitive Forms lookup 18 subtable" K
EndChar

StartChar: l
Encoding: 108 108 79
Width: 588
VWidth: 1177
Flags: W
LayerCount: 2
Fore
SplineSet
369 728 m 1,0,-1
 211 728 l 1,1,-1
 231 810 l 1,2,-1
 485 810 l 1,3,-1
 344 223 l 2,4,5
 338 199 338 199 334.5 177 c 128,-1,6
 331 155 331 155 331 137 c 0,7,8
 331 103 331 103 347.5 86 c 128,-1,9
 364 69 364 69 409 69 c 0,10,11
 440 69 440 69 469 80 c 128,-1,12
 498 91 498 91 515 100 c 1,13,-1
 522 18 l 1,14,15
 506 9 506 9 468.5 -2 c 128,-1,16
 431 -13 431 -13 382 -13 c 0,17,18
 304 -13 304 -13 269 20.5 c 128,-1,19
 234 54 234 54 234 121 c 0,20,21
 234 169 234 169 250 231 c 2,22,-1
 369 728 l 1,0,-1
EndSplineSet
Substitution2: "'case' Case-Sensitive Forms lookup 18 subtable" L
EndChar

StartChar: m
Encoding: 109 109 80
Width: 588
VWidth: 1177
Flags: W
LayerCount: 2
Fore
SplineSet
164 531 m 1,0,1
 238 558 238 558 299 558 c 0,2,3
 332 558 332 558 357.5 548 c 128,-1,4
 383 538 383 538 398 518 c 1,5,6
 456 558 456 558 511 558 c 0,7,8
 538 558 538 558 560 547.5 c 128,-1,9
 582 537 582 537 595.5 516 c 128,-1,10
 609 495 609 495 612 463 c 0,11,12
 613 455 613 455 613 446 c 0,13,14
 613 420 613 420 605 389 c 2,15,-1
 514 0 l 1,16,-1
 425 0 l 1,17,-1
 518 391 l 2,18,19
 523 411 523 411 523 427 c 0,20,21
 523 444 523 444 517 456 c 0,22,23
 505 478 505 478 478 478 c 0,24,25
 449 478 449 478 418 449 c 1,26,27
 418 436 418 436 417 420.5 c 128,-1,28
 416 405 416 405 411 389 c 2,29,-1
 369 211 l 1,30,-1
 320 0 l 1,31,-1
 231 0 l 1,32,-1
 280 211 l 1,33,-1
 324 390 l 2,34,35
 330 415 330 415 330 433 c 0,36,37
 330 445 330 445 327 455 c 0,38,39
 320 479 320 479 286 478 c 0,40,41
 265 478 265 478 237 468 c 1,42,-1
 124 0 l 1,43,-1
 37 0 l 1,44,-1
 164 531 l 1,0,1
EndSplineSet
Substitution2: "'case' Case-Sensitive Forms lookup 18 subtable" M
EndChar

StartChar: n
Encoding: 110 110 81
Width: 588
VWidth: 1177
Flags: W
LayerCount: 2
Fore
SplineSet
171 0 m 1,0,-1
 74 0 l 1,1,-1
 200 527 l 1,2,3
 248 541 248 541 303.5 549.5 c 128,-1,4
 359 558 359 558 404 558 c 0,5,6
 451 558 451 558 485 545 c 128,-1,7
 519 532 519 532 540.5 509 c 128,-1,8
 562 486 562 486 572 454.5 c 128,-1,9
 582 423 582 423 582 385 c 0,10,11
 582 360 582 360 577 333.5 c 128,-1,12
 572 307 572 307 565 280 c 2,13,-1
 498 0 l 1,14,-1
 402 0 l 1,15,-1
 464 259 l 2,16,17
 471 288 471 288 478 318.5 c 128,-1,18
 485 349 485 349 485 377 c 0,19,20
 485 418 485 418 461.5 445.5 c 128,-1,21
 438 473 438 473 376 473 c 0,22,23
 349 473 349 473 323.5 470.5 c 128,-1,24
 298 468 298 468 282 462 c 1,25,-1
 171 0 l 1,0,-1
EndSplineSet
Substitution2: "'case' Case-Sensitive Forms lookup 18 subtable" N
EndChar

StartChar: o
Encoding: 111 111 82
Width: 588
VWidth: 1177
Flags: W
LayerCount: 2
Fore
SplineSet
279 -13 m 0,0,1
 192 -13 192 -13 143 37.5 c 128,-1,2
 94 88 94 88 94 178 c 0,3,4
 94 239 94 239 111 306 c 128,-1,5
 128 373 128 373 166.5 429.5 c 128,-1,6
 205 486 205 486 265 522.5 c 128,-1,7
 325 559 325 559 410 559 c 0,8,9
 497 559 497 559 546 508.5 c 128,-1,10
 595 458 595 458 595 369 c 0,11,12
 595 308 595 308 578 240.5 c 128,-1,13
 561 173 561 173 522.5 116.5 c 128,-1,14
 484 60 484 60 424 23.5 c 128,-1,15
 364 -13 364 -13 279 -13 c 0,0,1
296 74 m 0,16,17
 343 74 343 74 380.5 100.5 c 128,-1,18
 418 127 418 127 444 168.5 c 128,-1,19
 470 210 470 210 483.5 261 c 128,-1,20
 497 312 497 312 497 360 c 0,21,22
 497 413 497 413 473.5 443 c 128,-1,23
 450 473 450 473 393 473 c 0,24,25
 346 473 346 473 308.5 446.5 c 128,-1,26
 271 420 271 420 245 378.5 c 128,-1,27
 219 337 219 337 205.5 285.5 c 128,-1,28
 192 234 192 234 192 186 c 0,29,30
 192 133 192 133 215.5 103.5 c 128,-1,31
 239 74 239 74 296 74 c 0,16,17
EndSplineSet
Substitution2: "'case' Case-Sensitive Forms lookup 18 subtable" O
Substitution2: "'ordn' Ordinals in Latin lookup 7 subtable" ordmasculine
EndChar

StartChar: p
Encoding: 112 112 83
Width: 588
VWidth: 1177
Flags: W
LayerCount: 2
Fore
SplineSet
397 559 m 0,0,1
 448 559 448 559 485.5 544.5 c 128,-1,2
 523 530 523 530 547 504.5 c 128,-1,3
 571 479 571 479 583 444 c 128,-1,4
 595 409 595 409 595 367 c 0,5,6
 595 294 595 294 573 226 c 128,-1,7
 551 158 551 158 505 105 c 128,-1,8
 459 52 459 52 389 19.5 c 128,-1,9
 319 -13 319 -13 224 -13 c 0,10,11
 212 -13 212 -13 192.5 -10 c 128,-1,12
 173 -7 173 -7 163 -5 c 1,13,-1
 118 -194 l 1,14,-1
 21 -194 l 1,15,-1
 193 524 l 1,16,17
 214 532 214 532 240.5 539.5 c 128,-1,18
 267 547 267 547 294.5 551 c 128,-1,19
 322 555 322 555 348.5 557 c 128,-1,20
 375 559 375 559 397 559 c 0,0,1
184 80 m 1,21,22
 195 78 195 78 212 76 c 128,-1,23
 229 74 229 74 240 74 c 0,24,25
 300 74 300 74 348 97 c 128,-1,26
 396 120 396 120 429.5 159 c 128,-1,27
 463 198 463 198 480.5 249 c 128,-1,28
 498 300 498 300 498 356 c 0,29,30
 498 380 498 380 493 401.5 c 128,-1,31
 488 423 488 423 473.5 440 c 128,-1,32
 459 457 459 457 434.5 467 c 128,-1,33
 410 477 410 477 372 477 c 0,34,35
 346 477 346 477 319 472.5 c 128,-1,36
 292 468 292 468 277 464 c 1,37,-1
 184 80 l 1,21,22
EndSplineSet
Substitution2: "'case' Case-Sensitive Forms lookup 18 subtable" P
EndChar

StartChar: q
Encoding: 113 113 84
Width: 588
VWidth: 1177
Flags: W
LayerCount: 2
Fore
SplineSet
343 -194 m 1,0,-1
 393 18 l 1,1,2
 368 5 368 5 337.5 -4 c 128,-1,3
 307 -13 307 -13 273 -13 c 0,4,5
 181 -13 181 -13 137.5 41 c 128,-1,6
 94 95 94 95 94 183 c 0,7,8
 94 254 94 254 117.5 321 c 128,-1,9
 141 388 141 388 189 441 c 128,-1,10
 237 494 237 494 308.5 526 c 128,-1,11
 380 558 380 558 476 558 c 0,12,13
 490 558 490 558 509.5 556.5 c 128,-1,14
 529 555 529 555 549.5 551.5 c 128,-1,15
 570 548 570 548 588.5 543 c 128,-1,16
 607 538 607 538 620 531 c 1,17,-1
 439 -194 l 1,18,-1
 343 -194 l 1,0,-1
299 67 m 0,19,20
 330 67 330 67 361 80 c 128,-1,21
 392 93 392 93 418 113 c 1,22,-1
 505 471 l 1,23,24
 491 473 491 473 478 475 c 128,-1,25
 465 477 465 477 456 477 c 0,26,27
 396 477 396 477 347 453.5 c 128,-1,28
 298 430 298 430 264 390.5 c 128,-1,29
 230 351 230 351 211 300 c 128,-1,30
 192 249 192 249 192 193 c 0,31,32
 192 169 192 169 196 147 c 128,-1,33
 200 125 200 125 211.5 107.5 c 128,-1,34
 223 90 223 90 244 78.5 c 128,-1,35
 265 67 265 67 299 67 c 0,19,20
EndSplineSet
Substitution2: "'case' Case-Sensitive Forms lookup 18 subtable" Q
EndChar

StartChar: r
Encoding: 114 114 85
Width: 588
VWidth: 1177
Flags: W
LayerCount: 2
Fore
SplineSet
105 0 m 1,0,-1
 230 518 l 1,1,2
 355 558 355 558 481 558 c 0,3,4
 518 558 518 558 546 555 c 128,-1,5
 574 552 574 552 615 544 c 1,6,-1
 578 458 l 1,7,8
 560 463 560 463 545.5 466 c 128,-1,9
 531 469 531 469 518 470.5 c 128,-1,10
 505 472 505 472 491.5 472.5 c 128,-1,11
 478 473 478 473 461 473 c 0,12,13
 424 473 424 473 385.5 468.5 c 128,-1,14
 347 464 347 464 310 455 c 1,15,-1
 201 0 l 1,16,-1
 105 0 l 1,0,-1
EndSplineSet
Substitution2: "'case' Case-Sensitive Forms lookup 18 subtable" R
EndChar

StartChar: s
Encoding: 115 115 86
Width: 588
VWidth: 1177
Flags: W
LayerCount: 2
Fore
SplineSet
285 68 m 0,0,1
 311 68 311 68 336.5 72.5 c 128,-1,2
 362 77 362 77 382 86 c 128,-1,3
 402 95 402 95 414 111.5 c 128,-1,4
 426 128 426 128 426 152 c 0,5,6
 426 185 426 185 398.5 204 c 128,-1,7
 371 223 371 223 322 246 c 0,8,9
 298 258 298 258 275.5 270 c 128,-1,10
 253 282 253 282 236 297 c 128,-1,11
 219 312 219 312 208.5 334 c 128,-1,12
 198 356 198 356 198 386 c 0,13,14
 198 465 198 465 259 512 c 128,-1,15
 320 559 320 559 432 559 c 0,16,17
 487 559 487 559 528 550 c 128,-1,18
 569 541 569 541 589 530 c 1,19,-1
 552 448 l 1,20,21
 534 459 534 459 498.5 468 c 128,-1,22
 463 477 463 477 418 477 c 0,23,24
 394 477 394 477 371.5 473 c 128,-1,25
 349 469 349 469 331 459.5 c 128,-1,26
 313 450 313 450 302.5 434.5 c 128,-1,27
 292 419 292 419 292 396 c 0,28,29
 292 368 292 368 321 348.5 c 128,-1,30
 350 329 350 329 393 310 c 0,31,32
 420 299 420 299 444 286 c 128,-1,33
 468 273 468 273 485 256 c 128,-1,34
 502 239 502 239 511.5 216.5 c 128,-1,35
 521 194 521 194 521 164 c 0,36,37
 521 119 521 119 503 85.5 c 128,-1,38
 485 52 485 52 453.5 30 c 128,-1,39
 422 8 422 8 377.5 -3 c 128,-1,40
 333 -14 333 -14 280 -14 c 0,41,42
 213 -14 213 -14 164 1 c 128,-1,43
 115 16 115 16 93 29 c 1,44,-1
 132 112 l 1,45,46
 151 99 151 99 191 83.5 c 128,-1,47
 231 68 231 68 285 68 c 0,0,1
EndSplineSet
Substitution2: "'case' Case-Sensitive Forms lookup 18 subtable" S
EndChar

StartChar: t
Encoding: 116 116 87
Width: 588
VWidth: 1177
Flags: W
LayerCount: 2
Fore
SplineSet
517 15 m 1,0,1
 483 3 483 3 446 -5 c 128,-1,2
 409 -13 409 -13 367 -13 c 0,3,4
 333 -13 333 -13 304.5 -6 c 128,-1,5
 276 1 276 1 254 17 c 128,-1,6
 232 33 232 33 219.5 60 c 128,-1,7
 207 87 207 87 207 128 c 0,8,9
 207 154 207 154 211.5 182.5 c 128,-1,10
 216 211 216 211 223 240 c 2,11,-1
 278 465 l 1,12,-1
 163 465 l 1,13,-1
 181 547 l 1,14,-1
 298 547 l 1,15,-1
 335 700 l 1,16,-1
 436 716 l 1,17,-1
 395 547 l 1,18,-1
 604 547 l 1,19,-1
 585 465 l 1,20,-1
 375 465 l 1,21,-1
 319 231 l 2,22,23
 313 209 313 209 308.5 187.5 c 128,-1,24
 304 166 304 166 304 146 c 0,25,26
 304 101 304 101 324.5 86.5 c 128,-1,27
 345 72 345 72 383 72 c 0,28,29
 420 72 420 72 454.5 79.5 c 128,-1,30
 489 87 489 87 519 99 c 1,31,-1
 517 15 l 1,0,1
EndSplineSet
Substitution2: "'case' Case-Sensitive Forms lookup 18 subtable" T
EndChar

StartChar: u
Encoding: 117 117 88
Width: 588
VWidth: 1177
Flags: W
LayerCount: 2
Fore
SplineSet
261 -12 m 0,0,1
 215 -12 215 -12 184.5 1.5 c 128,-1,2
 154 15 154 15 134.5 38 c 128,-1,3
 115 61 115 61 107 92.5 c 128,-1,4
 99 124 99 124 99 159 c 0,5,6
 99 186 99 186 103.5 213 c 128,-1,7
 108 240 108 240 114 267 c 2,8,-1
 181 547 l 1,9,-1
 279 547 l 1,10,-1
 217 289 l 2,11,12
 211 264 211 264 203.5 231.5 c 128,-1,13
 196 199 196 199 196 166 c 0,14,15
 196 147 196 147 199.5 130 c 128,-1,16
 203 113 203 113 212 99.5 c 128,-1,17
 221 86 221 86 237.5 78.5 c 128,-1,18
 254 71 254 71 280 71 c 0,19,20
 325 71 325 71 360.5 90.5 c 128,-1,21
 396 110 396 110 418 135 c 1,22,23
 419 151 419 151 421 169.5 c 128,-1,24
 423 188 423 188 429 210 c 2,25,-1
 510 547 l 1,26,-1
 607 547 l 1,27,-1
 524 201 l 2,28,29
 518 176 518 176 514.5 154 c 128,-1,30
 511 132 511 132 511 107 c 256,31,32
 511 82 511 82 515 58.5 c 128,-1,33
 519 35 519 35 530 6 c 1,34,-1
 444 -6 l 1,35,36
 438 6 438 6 433 20.5 c 128,-1,37
 428 35 428 35 425 52 c 1,38,39
 401 31 401 31 361 9.5 c 128,-1,40
 321 -12 321 -12 261 -12 c 0,0,1
EndSplineSet
Substitution2: "'case' Case-Sensitive Forms lookup 18 subtable" U
EndChar

StartChar: v
Encoding: 118 118 89
Width: 588
VWidth: 1177
Flags: W
LayerCount: 2
Fore
SplineSet
227 0 m 1,0,1
 201 108 201 108 181 251.5 c 128,-1,2
 161 395 161 395 158 547 c 1,3,-1
 257 547 l 1,4,5
 258 495 258 495 261.5 436.5 c 128,-1,6
 265 378 265 378 271 319.5 c 128,-1,7
 277 261 277 261 284 207 c 128,-1,8
 291 153 291 153 299 110 c 1,9,10
 331 150 331 150 364.5 204 c 128,-1,11
 398 258 398 258 430 317 c 128,-1,12
 462 376 462 376 488 436 c 128,-1,13
 514 496 514 496 530 547 c 1,14,-1
 629 547 l 1,15,16
 605 478 605 478 570 403.5 c 128,-1,17
 535 329 535 329 493 256.5 c 128,-1,18
 451 184 451 184 405.5 118 c 128,-1,19
 360 52 360 52 317 0 c 1,20,-1
 227 0 l 1,0,1
EndSplineSet
Substitution2: "'case' Case-Sensitive Forms lookup 18 subtable" V
EndChar

StartChar: w
Encoding: 119 119 90
Width: 588
VWidth: 1177
Flags: W
LayerCount: 2
Fore
SplineSet
438 126 m 1,0,1
 487 240 487 240 524 345.5 c 128,-1,2
 561 451 561 451 590 547 c 1,3,-1
 681 547 l 1,4,5
 661 488 661 488 636.5 420 c 128,-1,6
 612 352 612 352 584.5 281.5 c 128,-1,7
 557 211 557 211 526.5 139 c 128,-1,8
 496 67 496 67 464 0 c 1,9,-1
 384 0 l 1,10,11
 378 35 378 35 374 67.5 c 128,-1,12
 370 100 370 100 366 133.5 c 128,-1,13
 362 167 362 167 358.5 203.5 c 128,-1,14
 355 240 355 240 351 285 c 1,15,16
 323 237 323 237 301 200.5 c 128,-1,17
 279 164 279 164 259 131.5 c 128,-1,18
 239 99 239 99 219 68 c 128,-1,19
 199 37 199 37 174 0 c 1,20,-1
 94 0 l 1,21,22
 96 145 96 145 108 287 c 128,-1,23
 120 429 120 429 137 547 c 1,24,-1
 229 547 l 1,25,26
 221 501 221 501 214 456 c 128,-1,27
 207 411 207 411 201.5 361 c 128,-1,28
 196 311 196 311 190 252 c 128,-1,29
 184 193 184 193 178 119 c 1,30,31
 207 168 207 168 229 205.5 c 128,-1,32
 251 243 251 243 270 275 c 128,-1,33
 289 307 289 307 306.5 339.5 c 128,-1,34
 324 372 324 372 346 413 c 1,35,-1
 415 413 l 1,36,37
 416 371 416 371 418 339 c 128,-1,38
 420 307 420 307 423 276 c 128,-1,39
 426 245 426 245 430 210 c 128,-1,40
 434 175 434 175 438 126 c 1,0,1
EndSplineSet
Substitution2: "'case' Case-Sensitive Forms lookup 18 subtable" W
EndChar

StartChar: x
Encoding: 120 120 91
Width: 588
VWidth: 1177
Flags: WO
LayerCount: 2
Fore
SplineSet
363 351 m 1,0,1
 388 378 388 378 413 406.5 c 128,-1,2
 438 435 438 435 461.5 461.5 c 128,-1,3
 485 488 485 488 504 509.5 c 128,-1,4
 523 531 523 531 534 547 c 1,5,-1
 638 547 l 1,6,7
 631 538 631 538 614 517 c 128,-1,8
 597 496 597 496 574.5 470 c 128,-1,9
 552 444 552 444 527 415 c 128,-1,10
 502 386 502 386 478.5 360.5 c 128,-1,11
 455 335 455 335 435.5 313 c 128,-1,12
 416 291 416 291 405 279 c 1,13,14
 439 212 439 212 471 145 c 128,-1,15
 503 78 503 78 530 0 c 1,16,-1
 428 0 l 1,17,18
 407 58 407 58 386 106 c 128,-1,19
 365 154 365 154 339 207 c 1,20,-1
 134 0 l 1,21,-1
 21 0 l 1,22,-1
 296 282 l 1,23,-1
 160 547 l 1,24,-1
 269 547 l 1,25,-1
 363 351 l 1,0,1
EndSplineSet
Substitution2: "'case' Case-Sensitive Forms lookup 18 subtable" X
EndChar

StartChar: y
Encoding: 121 121 92
Width: 588
VWidth: 1177
Flags: W
LayerCount: 2
Fore
SplineSet
333 88 m 1,0,1
 373 152 373 152 405.5 219.5 c 128,-1,2
 438 287 438 287 463 349 c 128,-1,3
 488 411 488 411 505 463 c 128,-1,4
 522 515 522 515 529 547 c 1,5,-1
 631 547 l 1,6,7
 619 507 619 507 598 447.5 c 128,-1,8
 577 388 577 388 547 319 c 128,-1,9
 517 250 517 250 479.5 177.5 c 128,-1,10
 442 105 442 105 398 40 c 0,11,12
 365 -9 365 -9 331.5 -53 c 128,-1,13
 298 -97 298 -97 259.5 -129 c 128,-1,14
 221 -161 221 -161 174.5 -179.5 c 128,-1,15
 128 -198 128 -198 71 -198 c 0,16,17
 42 -198 42 -198 17 -191 c 128,-1,18
 -8 -184 -8 -184 -21 -174 c 1,19,-1
 13 -94 l 1,20,21
 22 -103 22 -103 40.5 -108.5 c 128,-1,22
 59 -114 59 -114 81 -114 c 0,23,24
 142 -114 142 -114 183.5 -89.5 c 128,-1,25
 225 -65 225 -65 265 -7 c 1,26,27
 226 121 226 121 196.5 261.5 c 128,-1,28
 167 402 167 402 161 547 c 1,29,-1
 260 547 l 1,30,31
 261 500 261 500 267 443 c 128,-1,32
 273 386 273 386 283 326 c 128,-1,33
 293 266 293 266 306 204.5 c 128,-1,34
 319 143 319 143 333 88 c 1,0,1
EndSplineSet
Substitution2: "'case' Case-Sensitive Forms lookup 18 subtable" Y
EndChar

StartChar: z
Encoding: 122 122 93
Width: 588
VWidth: 1177
Flags: W
LayerCount: 2
Fore
SplineSet
582 477 m 1,0,1
 551 450 551 450 499.5 400 c 128,-1,2
 448 350 448 350 392 292 c 128,-1,3
 336 234 336 234 284 178 c 128,-1,4
 232 122 232 122 201 82 c 1,5,-1
 496 82 l 1,6,-1
 477 0 l 1,7,-1
 68 0 l 1,8,-1
 84 64 l 1,9,10
 116 110 116 110 163.5 165.5 c 128,-1,11
 211 221 211 221 263.5 277 c 128,-1,12
 316 333 316 333 366.5 382.5 c 128,-1,13
 417 432 417 432 455 465 c 1,14,-1
 194 465 l 1,15,-1
 216 547 l 1,16,-1
 600 547 l 1,17,-1
 582 477 l 1,0,1
EndSplineSet
Substitution2: "'case' Case-Sensitive Forms lookup 18 subtable" Z
EndChar

StartChar: braceleft
Encoding: 123 123 94
Width: 588
VWidth: 1177
Flags: W
LayerCount: 2
Fore
SplineSet
105 277 m 1,0,-1
 124 352 l 1,1,-1
 172 352 l 2,2,3
 196 352 196 352 215 361 c 128,-1,4
 234 370 234 370 249.5 384.5 c 128,-1,5
 265 399 265 399 275 417.5 c 128,-1,6
 285 436 285 436 290 455 c 2,7,-1
 335 644 l 2,8,9
 347 692 347 692 363.5 726.5 c 128,-1,10
 380 761 380 761 408.5 782 c 128,-1,11
 437 803 437 803 477 813 c 128,-1,12
 517 823 517 823 575 823 c 2,13,-1
 674 823 l 1,14,-1
 654 747 l 1,15,-1
 559 747 l 2,16,17
 531 747 531 747 508.5 743.5 c 128,-1,18
 486 740 486 740 470.5 728.5 c 128,-1,19
 455 717 455 717 443 696.5 c 128,-1,20
 431 676 431 676 424 643 c 2,21,-1
 385 481 l 2,22,23
 369 412 369 412 343.5 372.5 c 128,-1,24
 318 333 318 333 274 314 c 1,25,26
 296 295 296 295 306.5 271 c 128,-1,27
 317 247 317 247 317 220 c 0,28,29
 317 201 317 201 313.5 183.5 c 128,-1,30
 310 166 310 166 306 148 c 2,31,-1
 267 -14 l 2,32,33
 260 -45 260 -45 260 -61 c 0,34,35
 260 -95 260 -95 282 -106.5 c 128,-1,36
 304 -118 304 -118 351 -118 c 2,37,-1
 450 -118 l 1,38,-1
 430 -194 l 1,39,-1
 327 -194 l 2,40,41
 250 -194 250 -194 210 -167.5 c 128,-1,42
 170 -141 170 -141 170 -78 c 0,43,44
 170 -49 170 -49 178 -15 c 2,45,-1
 223 174 l 2,46,47
 228 189 228 189 227 205 c 0,48,49
 227 234 227 234 210 255.5 c 128,-1,50
 193 277 193 277 152 277 c 2,51,-1
 105 277 l 1,0,-1
EndSplineSet
Substitution2: "'case' Case-Sensitive Forms lookup 17 subtable" Braceleft
EndChar

StartChar: bar
Encoding: 124 124 95
Width: 588
VWidth: 1177
Flags: W
LayerCount: 2
Fore
SplineSet
425 823 m 1,0,-1
 517 823 l 1,1,-1
 272 -194 l 1,2,-1
 180 -194 l 1,3,-1
 425 823 l 1,0,-1
EndSplineSet
EndChar

StartChar: braceright
Encoding: 125 125 96
Width: 588
VWidth: 1177
Flags: W
LayerCount: 2
Fore
SplineSet
568 352 m 1,0,-1
 549 277 l 1,1,-1
 502 277 l 2,2,3
 478 277 478 277 458 268 c 128,-1,4
 438 259 438 259 423.5 244.5 c 128,-1,5
 409 230 409 230 399 211.5 c 128,-1,6
 389 193 389 193 384 174 c 2,7,-1
 339 -15 l 2,8,9
 327 -63 327 -63 309.5 -97.5 c 128,-1,10
 292 -132 292 -132 264.5 -153 c 128,-1,11
 237 -174 237 -174 196 -184 c 128,-1,12
 155 -194 155 -194 99 -194 c 2,13,-1
 0 -194 l 1,14,-1
 19 -118 l 1,15,-1
 113 -118 l 2,16,17
 142 -118 142 -118 164 -114.5 c 128,-1,18
 186 -111 186 -111 202.5 -99.5 c 128,-1,19
 219 -88 219 -88 231 -67.5 c 128,-1,20
 243 -47 243 -47 250 -14 c 2,21,-1
 289 148 l 2,22,23
 305 217 305 217 330 256.5 c 128,-1,24
 355 296 355 296 398 314 c 1,25,26
 376 333 376 333 366.5 357.5 c 128,-1,27
 357 382 357 382 357 409 c 0,28,29
 357 428 357 428 360 445.5 c 128,-1,30
 363 463 363 463 367 481 c 2,31,-1
 406 643 l 2,32,33
 408 658 408 658 410.5 669.5 c 128,-1,34
 413 681 413 681 413 690 c 0,35,36
 413 724 413 724 391.5 735.5 c 128,-1,37
 370 747 370 747 322 747 c 2,38,-1
 223 747 l 1,39,-1
 243 823 l 1,40,-1
 346 823 l 2,41,42
 423 823 423 823 463.5 796.5 c 128,-1,43
 504 770 504 770 504 707 c 0,44,45
 504 694 504 694 501.5 678 c 128,-1,46
 499 662 499 662 496 644 c 2,47,-1
 450 455 l 2,48,49
 446 437 446 437 446 424 c 0,50,51
 446 395 446 395 462.5 373.5 c 128,-1,52
 479 352 479 352 521 352 c 2,53,-1
 568 352 l 1,0,-1
EndSplineSet
Substitution2: "'case' Case-Sensitive Forms lookup 17 subtable" Braceright
EndChar

StartChar: asciitilde
Encoding: 126 126 97
Width: 588
VWidth: 1177
Flags: W
LayerCount: 2
Fore
SplineSet
363 353 m 0,0,1
 388 337 388 337 406.5 323 c 128,-1,2
 425 309 425 309 453 309 c 0,3,4
 471 309 471 309 484.5 317 c 128,-1,5
 498 325 498 325 509.5 337.5 c 128,-1,6
 521 350 521 350 529 364 c 128,-1,7
 537 378 537 378 543 391 c 1,8,-1
 610 370 l 1,9,10
 602 346 602 346 588 321 c 128,-1,11
 574 296 574 296 552.5 273.5 c 128,-1,12
 531 251 531 251 503.5 237 c 128,-1,13
 476 223 476 223 439 223 c 0,14,15
 401 223 401 223 378.5 237.5 c 128,-1,16
 356 252 356 252 336 266 c 0,17,18
 312 284 312 284 292.5 297.5 c 128,-1,19
 273 311 273 311 245 311 c 0,20,21
 227 311 227 311 213 302.5 c 128,-1,22
 199 294 199 294 188.5 282 c 128,-1,23
 178 270 178 270 169.5 255 c 128,-1,24
 161 240 161 240 155 229 c 1,25,-1
 88 250 l 1,26,27
 96 272 96 272 110.5 298 c 128,-1,28
 125 324 125 324 146 346.5 c 128,-1,29
 167 369 167 369 195 383 c 128,-1,30
 223 397 223 397 259 397 c 0,31,32
 297 397 297 397 320 382.5 c 128,-1,33
 343 368 343 368 363 353 c 0,0,1
EndSplineSet
EndChar

StartChar: Euro
Encoding: 8364 8364 98
Width: 588
VWidth: 1177
Flags: W
LayerCount: 2
Fore
SplineSet
260 239 m 1,0,-1
 260 220 l 2,1,2
 260 175 260 175 271.5 146.5 c 128,-1,3
 283 118 283 118 301.5 101.5 c 128,-1,4
 320 85 320 85 346 78 c 128,-1,5
 372 71 372 71 402 71 c 0,6,7
 450 71 450 71 483 79 c 128,-1,8
 516 87 516 87 542 100 c 1,9,-1
 545 16 l 1,10,11
 538 12 538 12 522 7 c 128,-1,12
 506 2 506 2 485 -2.5 c 128,-1,13
 464 -7 464 -7 439.5 -10.5 c 128,-1,14
 415 -14 415 -14 390 -14 c 0,15,16
 279 -14 279 -14 221.5 43 c 128,-1,17
 164 100 164 100 164 214 c 2,18,-1
 164 239 l 1,19,-1
 67 239 l 1,20,-1
 85 314 l 1,21,-1
 170 314 l 1,22,23
 172 340 172 340 178 366.5 c 128,-1,24
 184 393 184 393 191 420 c 1,25,-1
 110 420 l 1,26,-1
 127 496 l 1,27,-1
 216 496 l 1,28,29
 237 548 237 548 267.5 592.5 c 128,-1,30
 298 637 298 637 340 670.5 c 128,-1,31
 382 704 382 704 435 723 c 128,-1,32
 488 742 488 742 554 742 c 0,33,34
 595 742 595 742 624 736 c 128,-1,35
 653 730 653 730 680 718 c 1,36,-1
 641 640 l 1,37,38
 625 649 625 649 603.5 654.5 c 128,-1,39
 582 660 582 660 541 660 c 256,40,41
 500 660 500 660 466 647.5 c 128,-1,42
 432 635 432 635 404.5 612.5 c 128,-1,43
 377 590 377 590 355 560.5 c 128,-1,44
 333 531 333 531 318 496 c 1,45,-1
 567 496 l 1,46,-1
 536 420 l 1,47,-1
 290 420 l 1,48,49
 281 394 281 394 275.5 367 c 128,-1,50
 270 340 270 340 267 314 c 1,51,-1
 494 314 l 1,52,-1
 464 239 l 1,53,-1
 260 239 l 1,0,-1
EndSplineSet
EndChar

StartChar: florin
Encoding: 402 402 100
Width: 588
VWidth: 1177
Flags: W
LayerCount: 2
Fore
SplineSet
405 465 m 1,0,-1
 310 21 l 2,1,2
 297 -38 297 -38 280 -79.5 c 128,-1,3
 263 -121 263 -121 237 -147.5 c 128,-1,4
 211 -174 211 -174 174 -186 c 128,-1,5
 137 -198 137 -198 86 -198 c 0,6,7
 68 -198 68 -198 44.5 -192 c 128,-1,8
 21 -186 21 -186 11 -180 c 1,9,-1
 33 -98 l 1,10,11
 60 -113 60 -113 101 -113 c 0,12,13
 148 -113 148 -113 174 -76.5 c 128,-1,14
 200 -40 200 -40 213 20 c 2,15,-1
 307 465 l 1,16,-1
 190 465 l 1,17,-1
 210 547 l 1,18,-1
 325 547 l 1,19,-1
 336 596 l 2,20,21
 358 702 358 702 415 759 c 128,-1,22
 472 816 472 816 585 816 c 0,23,24
 622 816 622 816 655 809 c 128,-1,25
 688 802 688 802 704 793 c 1,26,-1
 665 715 l 1,27,28
 656 720 656 720 636.5 726.5 c 128,-1,29
 617 733 617 733 576 733 c 0,30,31
 542 733 542 733 518 723 c 128,-1,32
 494 713 494 713 476.5 694.5 c 128,-1,33
 459 676 459 676 449 650.5 c 128,-1,34
 439 625 439 625 432 595 c 2,35,-1
 422 547 l 1,36,-1
 643 547 l 1,37,-1
 623 465 l 1,38,-1
 405 465 l 1,0,-1
EndSplineSet
EndChar

StartChar: quotedblbase
Encoding: 8222 8222 101
Width: 588
VWidth: 1177
Flags: W
LayerCount: 2
Fore
SplineSet
37 -87 m 1,0,1
 77 -79 77 -79 110 -66 c 128,-1,2
 143 -53 143 -53 158 -12 c 1,3,4
 125 -10 125 -10 108.5 14 c 128,-1,5
 92 38 92 38 92 65 c 0,6,7
 92 94 92 94 111 118.5 c 128,-1,8
 130 143 130 143 170 143 c 0,9,10
 204 143 204 143 228.5 120 c 128,-1,11
 253 97 253 97 253 45 c 0,12,13
 253 16 253 16 241 -16 c 128,-1,14
 229 -48 229 -48 203.5 -76.5 c 128,-1,15
 178 -105 178 -105 141 -126 c 128,-1,16
 104 -147 104 -147 54 -155 c 1,17,-1
 37 -87 l 1,0,1
310 -87 m 1,18,19
 350 -79 350 -79 383 -66 c 128,-1,20
 416 -53 416 -53 431 -12 c 1,21,22
 399 -10 399 -10 382 14 c 128,-1,23
 365 38 365 38 365 65 c 0,24,25
 365 94 365 94 384 118.5 c 128,-1,26
 403 143 403 143 443 143 c 0,27,28
 477 143 477 143 502 120 c 128,-1,29
 527 97 527 97 527 45 c 0,30,31
 527 16 527 16 514.5 -16 c 128,-1,32
 502 -48 502 -48 476.5 -76.5 c 128,-1,33
 451 -105 451 -105 414 -126 c 128,-1,34
 377 -147 377 -147 327 -155 c 1,35,-1
 310 -87 l 1,18,19
EndSplineSet
EndChar

StartChar: ellipsis
Encoding: 8230 8230 102
Width: 588
VWidth: 1177
Flags: W
LayerCount: 2
Fore
SplineSet
279 -14 m 0,0,1
 255 -14 255 -14 239.5 0 c 128,-1,2
 224 14 224 14 224 41 c 0,3,4
 224 75 224 75 243.5 94 c 128,-1,5
 263 113 263 113 290 113 c 0,6,7
 314 113 314 113 330 98.5 c 128,-1,8
 346 84 346 84 346 55 c 0,9,10
 346 23 346 23 325 4.5 c 128,-1,11
 304 -14 304 -14 279 -14 c 0,0,1
477 -14 m 0,12,13
 453 -14 453 -14 437.5 0 c 128,-1,14
 422 14 422 14 422 41 c 0,15,16
 422 75 422 75 441.5 94 c 128,-1,17
 461 113 461 113 488 113 c 0,18,19
 512 113 512 113 528 98.5 c 128,-1,20
 544 84 544 84 544 55 c 0,21,22
 544 23 544 23 523 4.5 c 128,-1,23
 502 -14 502 -14 477 -14 c 0,12,13
84 -14 m 0,24,25
 60 -14 60 -14 44 0 c 128,-1,26
 28 14 28 14 28 41 c 0,27,28
 28 75 28 75 47.5 94 c 128,-1,29
 67 113 67 113 94 113 c 0,30,31
 118 113 118 113 134.5 98.5 c 128,-1,32
 151 84 151 84 151 55 c 0,33,34
 151 23 151 23 130 4.5 c 128,-1,35
 109 -14 109 -14 84 -14 c 0,24,25
EndSplineSet
EndChar

StartChar: dagger
Encoding: 8224 8224 103
Width: 588
VWidth: 1177
Flags: W
LayerCount: 2
Fore
SplineSet
413 419 m 1,0,-1
 349 152 l 2,1,2
 327 64 327 64 306 -8 c 128,-1,3
 285 -80 285 -80 258 -152 c 1,4,-1
 210 -152 l 1,5,6
 218 -80 218 -80 230.5 -8 c 128,-1,7
 243 64 243 64 264 152 c 2,8,-1
 330 419 l 1,9,-1
 163 419 l 1,10,-1
 181 501 l 1,11,-1
 349 501 l 1,12,-1
 403 729 l 1,13,-1
 486 729 l 1,14,-1
 432 501 l 1,15,-1
 600 501 l 1,16,-1
 581 419 l 1,17,-1
 413 419 l 1,0,-1
EndSplineSet
EndChar

StartChar: daggerdbl
Encoding: 8225 8225 104
Width: 588
VWidth: 1177
Flags: W
LayerCount: 2
Fore
SplineSet
346 141 m 1,0,1
 326 55 326 55 305 -13.5 c 128,-1,2
 284 -82 284 -82 258 -152 c 1,3,-1
 210 -152 l 1,4,5
 217 -83 217 -83 229 -14 c 128,-1,6
 241 55 241 55 263 141 c 1,7,-1
 95 141 l 1,8,-1
 114 221 l 1,9,-1
 282 221 l 1,10,-1
 330 419 l 1,11,-1
 163 419 l 1,12,-1
 181 501 l 1,13,-1
 349 501 l 1,14,-1
 403 729 l 1,15,-1
 488 729 l 1,16,-1
 432 501 l 1,17,-1
 600 501 l 1,18,-1
 581 419 l 1,19,-1
 413 419 l 1,20,-1
 365 221 l 1,21,-1
 532 221 l 1,22,-1
 514 141 l 1,23,-1
 346 141 l 1,0,1
EndSplineSet
EndChar

StartChar: circumflex
Encoding: 710 710 105
Width: 588
VWidth: 1177
Flags: W
LayerCount: 2
Fore
SplineSet
438 702 m 1,0,-1
 320 615 l 1,1,-1
 286 663 l 1,2,-1
 457 809 l 1,3,-1
 568 654 l 1,4,-1
 522 610 l 1,5,-1
 438 702 l 1,0,-1
EndSplineSet
EndChar

StartChar: perthousand
Encoding: 8240 8240 106
Width: 588
VWidth: 1177
Flags: W
LayerCount: 2
Fore
SplineSet
212 477 m 0,0,1
 225 477 225 477 237.5 495.5 c 128,-1,2
 250 514 250 514 259.5 541 c 128,-1,3
 269 568 269 568 274.5 597.5 c 128,-1,4
 280 627 280 627 280 650 c 0,5,6
 280 666 280 666 276 677 c 128,-1,7
 272 688 272 688 263 688 c 0,8,9
 250 688 250 688 237.5 669.5 c 128,-1,10
 225 651 225 651 215.5 624.5 c 128,-1,11
 206 598 206 598 200 568 c 128,-1,12
 194 538 194 538 194 516 c 0,13,14
 194 500 194 500 199 488.5 c 128,-1,15
 204 477 204 477 212 477 c 0,0,1
90 241 m 1,16,-1
 68 294 l 1,17,-1
 683 643 l 1,18,-1
 706 590 l 1,19,-1
 90 241 l 1,16,-1
201 420 m 0,20,21
 162 420 162 420 148 448 c 128,-1,22
 134 476 134 476 134 517 c 0,23,24
 134 554 134 554 143 594 c 128,-1,25
 152 634 152 634 170 667.5 c 128,-1,26
 188 701 188 701 215.5 722.5 c 128,-1,27
 243 744 243 744 278 744 c 0,28,29
 316 744 316 744 330 716.5 c 128,-1,30
 344 689 344 689 344 648 c 0,31,32
 344 613 344 613 334.5 572.5 c 128,-1,33
 325 532 325 532 307.5 498.5 c 128,-1,34
 290 465 290 465 263 442.5 c 128,-1,35
 236 420 236 420 201 420 c 0,20,21
238 41 m 0,36,37
 251 41 251 41 263.5 59.5 c 128,-1,38
 276 78 276 78 285 104.5 c 128,-1,39
 294 131 294 131 300 160.5 c 128,-1,40
 306 190 306 190 306 213 c 0,41,42
 306 229 306 229 302 240 c 128,-1,43
 298 251 298 251 289 251 c 0,44,45
 276 251 276 251 263.5 232.5 c 128,-1,46
 251 214 251 214 241.5 187.5 c 128,-1,47
 232 161 232 161 226 131 c 128,-1,48
 220 101 220 101 220 79 c 0,49,50
 220 63 220 63 224.5 52 c 128,-1,51
 229 41 229 41 238 41 c 0,36,37
226 -15 m 0,52,53
 187 -15 187 -15 173.5 12.5 c 128,-1,54
 160 40 160 40 160 81 c 0,55,56
 160 116 160 116 169 156.5 c 128,-1,57
 178 197 178 197 196 230.5 c 128,-1,58
 214 264 214 264 240.5 286.5 c 128,-1,59
 267 309 267 309 303 309 c 0,60,61
 341 309 341 309 355 280.5 c 128,-1,62
 369 252 369 252 369 211 c 0,63,64
 369 176 369 176 359.5 135.5 c 128,-1,65
 350 95 350 95 332 61.5 c 128,-1,66
 314 28 314 28 287.5 6.5 c 128,-1,67
 261 -15 261 -15 226 -15 c 0,52,53
470 41 m 0,68,69
 483 41 483 41 495.5 59.5 c 128,-1,70
 508 78 508 78 517.5 104.5 c 128,-1,71
 527 131 527 131 532.5 160.5 c 128,-1,72
 538 190 538 190 538 213 c 0,73,74
 538 229 538 229 534 240 c 128,-1,75
 530 251 530 251 521 251 c 0,76,77
 508 251 508 251 495.5 232.5 c 128,-1,78
 483 214 483 214 473.5 187.5 c 128,-1,79
 464 161 464 161 458 131 c 128,-1,80
 452 101 452 101 452 79 c 0,81,82
 452 63 452 63 456.5 52 c 128,-1,83
 461 41 461 41 470 41 c 0,68,69
458 -15 m 0,84,85
 420 -15 420 -15 406 12.5 c 128,-1,86
 392 40 392 40 392 81 c 0,87,88
 392 116 392 116 401 156.5 c 128,-1,89
 410 197 410 197 428 230.5 c 128,-1,90
 446 264 446 264 473.5 286.5 c 128,-1,91
 501 309 501 309 536 309 c 0,92,93
 574 309 574 309 588 280.5 c 128,-1,94
 602 252 602 252 602 211 c 0,95,96
 602 176 602 176 592.5 135.5 c 128,-1,97
 583 95 583 95 565.5 61.5 c 128,-1,98
 548 28 548 28 520.5 6.5 c 128,-1,99
 493 -15 493 -15 458 -15 c 0,84,85
EndSplineSet
EndChar

StartChar: guilsinglleft
Encoding: 8249 8249 108
Width: 588
VWidth: 1177
Flags: W
LayerCount: 2
Fore
SplineSet
408 97 m 1,0,-1
 343 66 l 1,1,-1
 219 305 l 1,2,-1
 432 531 l 1,3,-1
 494 495 l 1,4,-1
 329 294 l 1,5,-1
 408 97 l 1,0,-1
EndSplineSet
Substitution2: "'case' Case-Sensitive Forms lookup 17 subtable" Guilsinglleft
EndChar

StartChar: OE
Encoding: 338 338 109
Width: 588
VWidth: 1177
Flags: W
LayerCount: 2
Fore
SplineSet
444 644 m 1,0,1
 431 648 431 648 419.5 650.5 c 128,-1,2
 408 653 408 653 396 653 c 0,3,4
 359 653 359 653 328 633.5 c 128,-1,5
 297 614 297 614 271.5 581.5 c 128,-1,6
 246 549 246 549 227 506 c 128,-1,7
 208 463 208 463 195.5 415 c 128,-1,8
 183 367 183 367 176.5 318 c 128,-1,9
 170 269 170 269 170 224 c 0,10,11
 170 158 170 158 191 117.5 c 128,-1,12
 212 77 212 77 258 77 c 0,13,14
 282 77 282 77 294.5 80.5 c 128,-1,15
 307 84 307 84 310 85 c 2,16,-1
 444 644 l 1,0,1
238 -7 m 0,17,18
 194 -7 194 -7 163 9.5 c 128,-1,19
 132 26 132 26 111.5 56 c 128,-1,20
 91 86 91 86 81.5 127 c 128,-1,21
 72 168 72 168 72 218 c 0,22,23
 72 296 72 296 92 386.5 c 128,-1,24
 112 477 112 477 154 555 c 128,-1,25
 196 633 196 633 261 684.5 c 128,-1,26
 326 736 326 736 417 736 c 0,27,28
 431 736 431 736 447.5 733.5 c 128,-1,29
 464 731 464 731 481 729 c 2,30,-1
 708 729 l 1,31,-1
 688 647 l 1,32,-1
 537 647 l 1,33,-1
 484 423 l 1,34,-1
 607 423 l 1,35,-1
 587 340 l 1,36,-1
 464 340 l 1,37,-1
 402 82 l 1,38,-1
 568 82 l 1,39,-1
 548 0 l 1,40,-1
 305 0 l 1,41,42
 270 -7 270 -7 238 -7 c 0,17,18
EndSplineSet
EndChar

StartChar: quoteleft
Encoding: 8216 8216 110
Width: 588
VWidth: 1177
Flags: W
LayerCount: 2
Fore
SplineSet
428 675 m 1,0,1
 457 670 457 670 472.5 647.5 c 128,-1,2
 488 625 488 625 488 597 c 0,3,4
 488 557 488 557 462.5 530 c 128,-1,5
 437 503 437 503 393 503 c 0,6,7
 353 503 353 503 332.5 530.5 c 128,-1,8
 312 558 312 558 312 600 c 0,9,10
 312 633 312 633 327 671 c 128,-1,11
 342 709 342 709 372 743 c 128,-1,12
 402 777 402 777 449 802.5 c 128,-1,13
 496 828 496 828 561 836 c 1,14,-1
 569 761 l 1,15,16
 549 759 549 759 527 753 c 128,-1,17
 505 747 505 747 485.5 737 c 128,-1,18
 466 727 466 727 450.5 711.5 c 128,-1,19
 435 696 435 696 428 675 c 1,0,1
EndSplineSet
EndChar

StartChar: quoteright
Encoding: 8217 8217 111
Width: 588
VWidth: 1177
Flags: W
LayerCount: 2
Fore
SplineSet
420 661 m 1,0,1
 392 666 392 666 376 688 c 128,-1,2
 360 710 360 710 360 739 c 0,3,4
 360 779 360 779 386 806 c 128,-1,5
 412 833 412 833 456 833 c 0,6,7
 495 833 495 833 515.5 805 c 128,-1,8
 536 777 536 777 536 736 c 0,9,10
 536 702 536 702 522 664.5 c 128,-1,11
 508 627 508 627 478 592.5 c 128,-1,12
 448 558 448 558 400.5 533 c 128,-1,13
 353 508 353 508 289 499 c 1,14,-1
 280 575 l 1,15,16
 300 577 300 577 321.5 583 c 128,-1,17
 343 589 343 589 362.5 599 c 128,-1,18
 382 609 382 609 397.5 624.5 c 128,-1,19
 413 640 413 640 420 661 c 1,0,1
EndSplineSet
EndChar

StartChar: quotedblleft
Encoding: 8220 8220 112
Width: 588
VWidth: 1177
Flags: W
LayerCount: 2
Fore
SplineSet
674 748 m 1,0,1
 654 743 654 743 635 739 c 128,-1,2
 616 735 616 735 600 726.5 c 128,-1,3
 584 718 584 718 571.5 706 c 128,-1,4
 559 694 559 694 552 673 c 1,5,6
 584 671 584 671 601 647 c 128,-1,7
 618 623 618 623 618 595 c 0,8,9
 618 566 618 566 599.5 541.5 c 128,-1,10
 581 517 581 517 541 517 c 0,11,12
 507 517 507 517 482 540.5 c 128,-1,13
 457 564 457 564 457 616 c 0,14,15
 457 645 457 645 469.5 677 c 128,-1,16
 482 709 482 709 507 737.5 c 128,-1,17
 532 766 532 766 569.5 787 c 128,-1,18
 607 808 607 808 656 816 c 1,19,-1
 674 748 l 1,0,1
399 748 m 1,20,21
 379 743 379 743 361 739 c 128,-1,22
 343 735 343 735 327 726.5 c 128,-1,23
 311 718 311 718 298.5 706 c 128,-1,24
 286 694 286 694 279 673 c 1,25,26
 311 671 311 671 328 647 c 128,-1,27
 345 623 345 623 345 595 c 0,28,29
 345 566 345 566 325.5 541.5 c 128,-1,30
 306 517 306 517 267 517 c 0,31,32
 233 517 233 517 208 540.5 c 128,-1,33
 183 564 183 564 183 616 c 0,34,35
 183 645 183 645 195.5 677 c 128,-1,36
 208 709 208 709 233 737.5 c 128,-1,37
 258 766 258 766 295.5 787 c 128,-1,38
 333 808 333 808 383 816 c 1,39,-1
 399 748 l 1,20,21
EndSplineSet
EndChar

StartChar: quotedblright
Encoding: 8221 8221 113
Width: 588
VWidth: 1177
Flags: W
LayerCount: 2
Fore
SplineSet
167 585 m 1,0,1
 187 589 187 589 205.5 593.5 c 128,-1,2
 224 598 224 598 240 606 c 128,-1,3
 256 614 256 614 269 627 c 128,-1,4
 282 640 282 640 289 661 c 1,5,6
 256 663 256 663 238.5 686.5 c 128,-1,7
 221 710 221 710 221 737 c 0,8,9
 221 766 221 766 240.5 790.5 c 128,-1,10
 260 815 260 815 300 815 c 0,11,12
 334 815 334 815 359 791.5 c 128,-1,13
 384 768 384 768 384 716 c 0,14,15
 384 687 384 687 371.5 655 c 128,-1,16
 359 623 359 623 334 595 c 128,-1,17
 309 567 309 567 271 545.5 c 128,-1,18
 233 524 233 524 184 516 c 1,19,-1
 167 585 l 1,0,1
441 585 m 1,20,21
 461 589 461 589 479 593.5 c 128,-1,22
 497 598 497 598 513 606 c 128,-1,23
 529 614 529 614 542 627 c 128,-1,24
 555 640 555 640 562 661 c 1,25,26
 529 663 529 663 512.5 686.5 c 128,-1,27
 496 710 496 710 496 737 c 0,28,29
 496 766 496 766 515 790.5 c 128,-1,30
 534 815 534 815 574 815 c 0,31,32
 608 815 608 815 632.5 791.5 c 128,-1,33
 657 768 657 768 657 716 c 0,34,35
 657 687 657 687 645 655 c 128,-1,36
 633 623 633 623 607.5 595 c 128,-1,37
 582 567 582 567 544 545.5 c 128,-1,38
 506 524 506 524 457 516 c 1,39,-1
 441 585 l 1,20,21
EndSplineSet
EndChar

StartChar: bullet
Encoding: 8226 8226 114
Width: 588
VWidth: 1177
Flags: W
LayerCount: 2
Fore
SplineSet
515 337 m 0,0,1
 515 303 515 303 503.5 272 c 128,-1,2
 492 241 492 241 471.5 218.5 c 128,-1,3
 451 196 451 196 421 182 c 128,-1,4
 391 168 391 168 355 168 c 0,5,6
 317 168 317 168 287.5 182 c 128,-1,7
 258 196 258 196 237.5 218.5 c 128,-1,8
 217 241 217 241 205.5 272 c 128,-1,9
 194 303 194 303 194 337 c 0,10,11
 194 370 194 370 205.5 400.5 c 128,-1,12
 217 431 217 431 237.5 454.5 c 128,-1,13
 258 478 258 478 287.5 491.5 c 128,-1,14
 317 505 317 505 355 505 c 0,15,16
 392 505 392 505 421.5 491.5 c 128,-1,17
 451 478 451 478 471.5 454.5 c 128,-1,18
 492 431 492 431 503.5 400.5 c 128,-1,19
 515 370 515 370 515 337 c 0,0,1
EndSplineSet
Substitution2: "'case' Case-Sensitive Forms lookup 17 subtable" Bullet
EndChar

StartChar: endash
Encoding: 8211 8211 115
Width: 588
VWidth: 1177
Flags: W
LayerCount: 2
Fore
SplineSet
138 360 m 1,0,-1
 565 360 l 1,1,-1
 545 278 l 1,2,-1
 118 278 l 1,3,-1
 138 360 l 1,0,-1
EndSplineSet
Substitution2: "'case' Case-Sensitive Forms lookup 17 subtable" Endash
EndChar

StartChar: emdash
Encoding: 8212 8212 116
Width: 588
VWidth: 1177
Flags: W
LayerCount: 2
Fore
SplineSet
61 360 m 1,0,-1
 650 360 l 1,1,-1
 630 278 l 1,2,-1
 42 278 l 1,3,-1
 61 360 l 1,0,-1
EndSplineSet
Substitution2: "'case' Case-Sensitive Forms lookup 17 subtable" Emdash
EndChar

StartChar: tilde
Encoding: 732 732 117
Width: 588
VWidth: 1177
Flags: W
LayerCount: 2
Fore
SplineSet
444 743 m 0,0,1
 460 735 460 735 472 729.5 c 128,-1,2
 484 724 484 724 497 724 c 0,3,4
 519 724 519 724 534 740.5 c 128,-1,5
 549 757 549 757 561 775 c 1,6,-1
 610 744 l 1,7,8
 589 700 589 700 559.5 677 c 128,-1,9
 530 654 530 654 484 654 c 0,10,11
 463 654 463 654 447 660.5 c 128,-1,12
 431 667 431 667 416 676 c 0,13,14
 400 685 400 685 387.5 690 c 128,-1,15
 375 695 375 695 362 695 c 0,16,17
 340 695 340 695 325.5 679 c 128,-1,18
 311 663 311 663 299 644 c 1,19,-1
 250 675 l 1,20,21
 271 719 271 719 300 743 c 128,-1,22
 329 767 329 767 376 767 c 0,23,24
 397 767 397 767 413 759.5 c 128,-1,25
 429 752 429 752 444 743 c 0,0,1
EndSplineSet
EndChar

StartChar: trademark
Encoding: 8482 8482 118
Width: 588
VWidth: 1177
Flags: W
LayerCount: 2
Fore
SplineSet
358 729 m 1,0,-1
 358 670 l 1,1,-1
 282 670 l 1,2,-1
 282 420 l 1,3,-1
 213 420 l 1,4,-1
 213 670 l 1,5,-1
 138 670 l 1,6,-1
 138 729 l 1,7,-1
 358 729 l 1,0,-1
501 502 m 1,8,-1
 455 638 l 1,9,10
 453 614 453 614 451.5 579 c 128,-1,11
 450 544 450 544 449.5 510.5 c 128,-1,12
 449 477 449 477 448.5 451 c 128,-1,13
 448 425 448 425 448 420 c 1,14,-1
 379 420 l 1,15,16
 383 479 383 479 386.5 523 c 128,-1,17
 390 567 390 567 394 602 c 128,-1,18
 398 637 398 637 402 667 c 128,-1,19
 406 697 406 697 412 729 c 1,20,-1
 476 729 l 1,21,-1
 528 569 l 1,22,-1
 584 729 l 1,23,-1
 647 729 l 1,24,25
 653 697 653 697 657 666.5 c 128,-1,26
 661 636 661 636 664.5 600.5 c 128,-1,27
 668 565 668 565 671 521.5 c 128,-1,28
 674 478 674 478 677 420 c 1,29,-1
 609 420 l 1,30,31
 609 425 609 425 608.5 451 c 128,-1,32
 608 477 608 477 607.5 510.5 c 128,-1,33
 607 544 607 544 606 579.5 c 128,-1,34
 605 615 605 615 604 638 c 1,35,-1
 554 502 l 1,36,-1
 501 502 l 1,8,-1
EndSplineSet
EndChar

StartChar: guilsinglright
Encoding: 8250 8250 120
Width: 588
VWidth: 1177
Flags: W
LayerCount: 2
Fore
SplineSet
277 503 m 1,0,-1
 342 534 l 1,1,-1
 466 294 l 1,2,-1
 252 68 l 1,3,-1
 192 105 l 1,4,-1
 357 305 l 1,5,-1
 277 503 l 1,0,-1
EndSplineSet
Substitution2: "'case' Case-Sensitive Forms lookup 17 subtable" Guilsinglright
EndChar

StartChar: oe
Encoding: 339 339 121
Width: 588
VWidth: 1177
Flags: W
LayerCount: 2
Fore
SplineSet
441 -14 m 0,0,1
 403 -14 403 -14 371.5 13.5 c 128,-1,2
 340 41 340 41 335 81 c 1,3,4
 310 34 310 34 273 10 c 128,-1,5
 236 -14 236 -14 191 -14 c 0,6,7
 124 -14 124 -14 94.5 38 c 128,-1,8
 65 90 65 90 65 177 c 0,9,10
 65 243 65 243 80 311 c 128,-1,11
 95 379 95 379 125 434.5 c 128,-1,12
 155 490 155 490 199 524.5 c 128,-1,13
 243 559 243 559 299 559 c 0,14,15
 325 559 325 559 342.5 551.5 c 128,-1,16
 360 544 360 544 372.5 531.5 c 128,-1,17
 385 519 385 519 392.5 504.5 c 128,-1,18
 400 490 400 490 406 477 c 1,19,20
 433 516 433 516 467.5 537.5 c 128,-1,21
 502 559 502 559 551 559 c 0,22,23
 592 559 592 559 622.5 530 c 128,-1,24
 653 501 653 501 653 437 c 0,25,26
 653 400 653 400 639 363 c 128,-1,27
 625 326 625 326 596 295 c 128,-1,28
 567 264 567 264 520 241.5 c 128,-1,29
 473 219 473 219 408 212 c 0,30,31
 407 207 407 207 406 200.5 c 128,-1,32
 405 194 405 194 405 181 c 0,33,34
 405 124 405 124 418 98.5 c 128,-1,35
 431 73 431 73 464 73 c 0,36,37
 501 73 501 73 549 100 c 1,38,-1
 558 25 l 1,39,40
 534 7 534 7 502 -3.5 c 128,-1,41
 470 -14 470 -14 441 -14 c 0,0,1
559 419 m 0,42,43
 559 448 559 448 549 462.5 c 128,-1,44
 539 477 539 477 523 477 c 0,45,46
 496 477 496 477 464.5 431.5 c 128,-1,47
 433 386 433 386 417 293 c 1,48,49
 456 294 456 294 483.5 306.5 c 128,-1,50
 511 319 511 319 527.5 337 c 128,-1,51
 544 355 544 355 551.5 376.5 c 128,-1,52
 559 398 559 398 559 419 c 0,42,43
163 152 m 0,53,54
 163 115 163 115 174 92 c 128,-1,55
 185 69 185 69 203 69 c 0,56,57
 222 69 222 69 243.5 90 c 128,-1,58
 265 111 265 111 284 152 c 128,-1,59
 303 193 303 193 316 254.5 c 128,-1,60
 329 316 329 316 329 397 c 0,61,62
 329 432 329 432 317 455 c 128,-1,63
 305 478 305 478 287 478 c 0,64,65
 268 478 268 478 246.5 457.5 c 128,-1,66
 225 437 225 437 206 396.5 c 128,-1,67
 187 356 187 356 175 294.5 c 128,-1,68
 163 233 163 233 163 152 c 0,53,54
EndSplineSet
Substitution2: "'case' Case-Sensitive Forms lookup 18 subtable" OE
EndChar

StartChar: exclamdown
Encoding: 161 161 124
Width: 588
VWidth: 1177
Flags: W
LayerCount: 2
Fore
SplineSet
218 4 m 2,0,1
 229 48 229 48 239 84 c 128,-1,2
 249 120 249 120 259.5 153 c 128,-1,3
 270 186 270 186 280.5 218.5 c 128,-1,4
 291 251 291 251 304 286 c 1,5,-1
 371 286 l 1,6,7
 366 251 366 251 362 218.5 c 128,-1,8
 358 186 358 186 352.5 153 c 128,-1,9
 347 120 347 120 340 83.5 c 128,-1,10
 333 47 333 47 323 4 c 2,11,-1
 276 -194 l 1,12,-1
 171 -194 l 1,13,-1
 218 4 l 2,0,1
385 548 m 0,14,15
 416 548 416 548 435.5 531 c 128,-1,16
 455 514 455 514 455 477 c 0,17,18
 455 435 455 435 430.5 412 c 128,-1,19
 406 389 406 389 372 389 c 0,20,21
 341 389 341 389 320.5 407 c 128,-1,22
 300 425 300 425 300 461 c 0,23,24
 300 502 300 502 326.5 525 c 128,-1,25
 353 548 353 548 385 548 c 0,14,15
EndSplineSet
Substitution2: "'case' Case-Sensitive Forms lookup 17 subtable" Exclamdown
EndChar

StartChar: cent
Encoding: 162 162 125
Width: 588
VWidth: 1177
Flags: W
LayerCount: 2
Fore
SplineSet
459 499 m 0,0,1
 402 499 402 499 356 477 c 128,-1,2
 310 455 310 455 277 418.5 c 128,-1,3
 244 382 244 382 225.5 335.5 c 128,-1,4
 207 289 207 289 207 240 c 0,5,6
 207 214 207 214 214 192 c 128,-1,7
 221 170 221 170 239.5 152.5 c 128,-1,8
 258 135 258 135 288.5 125 c 128,-1,9
 319 115 319 115 365 115 c 0,10,11
 385 115 385 115 407 118.5 c 128,-1,12
 429 122 429 122 448.5 127 c 128,-1,13
 468 132 468 132 482.5 138 c 128,-1,14
 497 144 497 144 503 150 c 1,15,-1
 510 68 l 1,16,17
 491 56 491 56 448 45.5 c 128,-1,18
 405 35 405 35 350 33 c 1,19,-1
 316 -114 l 1,20,-1
 231 -114 l 1,21,-1
 266 38 l 1,22,23
 188 57 188 57 150 104.5 c 128,-1,24
 112 152 112 152 112 237 c 0,25,26
 112 294 112 294 130 349.5 c 128,-1,27
 148 405 148 405 184.5 451.5 c 128,-1,28
 221 498 221 498 274 531.5 c 128,-1,29
 327 565 327 565 398 577 c 1,30,-1
 433 729 l 1,31,-1
 518 729 l 1,32,-1
 484 583 l 1,33,34
 515 581 515 581 544.5 575.5 c 128,-1,35
 574 570 574 570 601 557 c 1,36,-1
 565 479 l 1,37,38
 546 488 546 488 521.5 493.5 c 128,-1,39
 497 499 497 499 459 499 c 0,0,1
EndSplineSet
EndChar

StartChar: sterling
Encoding: 163 163 126
Width: 588
VWidth: 1177
Flags: W
LayerCount: 2
Fore
SplineSet
325 392 m 1,0,-1
 524 392 l 1,1,-1
 505 313 l 1,2,-1
 306 313 l 1,3,-1
 304 305 l 2,4,5
 291 252 291 252 272.5 194.5 c 128,-1,6
 254 137 254 137 233 84 c 1,7,-1
 538 84 l 1,8,-1
 518 0 l 1,9,-1
 104 0 l 1,10,11
 133 75 133 75 159.5 149 c 128,-1,12
 186 223 186 223 204 298 c 1,13,-1
 208 313 l 1,14,-1
 111 313 l 1,15,-1
 130 392 l 1,16,-1
 227 392 l 1,17,-1
 249 479 l 2,18,19
 268 558 268 558 293 609.5 c 128,-1,20
 318 661 318 661 352 690.5 c 128,-1,21
 386 720 386 720 429 731 c 128,-1,22
 472 742 472 742 527 742 c 256,23,24
 581 742 581 742 611.5 732 c 128,-1,25
 642 722 642 722 665 709 c 1,26,-1
 622 630 l 1,27,28
 597 643 597 643 571 650 c 128,-1,29
 545 657 545 657 514 657 c 256,30,31
 483 657 483 657 457.5 648.5 c 128,-1,32
 432 640 432 640 411.5 620 c 128,-1,33
 391 600 391 600 374.5 566 c 128,-1,34
 358 532 358 532 346 482 c 2,35,-1
 325 392 l 1,0,-1
EndSplineSet
EndChar

StartChar: currency
Encoding: 164 164 127
Width: 588
VWidth: 1177
Flags: W
LayerCount: 2
Fore
SplineSet
154 365 m 0,0,1
 154 430 154 430 184 477 c 1,2,-1
 107 555 l 1,3,-1
 168 615 l 1,4,-1
 246 536 l 1,5,6
 297 567 297 567 358 567 c 256,7,8
 419 567 419 567 468 536 c 1,9,-1
 547 615 l 1,10,-1
 608 555 l 1,11,-1
 530 477 l 1,12,13
 561 430 561 430 561 365 c 0,14,15
 561 331 561 331 553 304 c 128,-1,16
 545 277 545 277 530 253 c 1,17,-1
 608 176 l 1,18,-1
 547 114 l 1,19,-1
 468 192 l 1,20,21
 420 163 420 163 358 163 c 0,22,23
 294 163 294 163 246 192 c 1,24,-1
 168 114 l 1,25,-1
 107 176 l 1,26,-1
 184 252 l 1,27,28
 154 299 154 299 154 365 c 0,0,1
482 365 m 256,29,30
 482 425 482 425 445.5 460.5 c 128,-1,31
 409 496 409 496 358 496 c 0,32,33
 332 496 332 496 309.5 486.5 c 128,-1,34
 287 477 287 477 270 460.5 c 128,-1,35
 253 444 253 444 243 419.5 c 128,-1,36
 233 395 233 395 233 365 c 0,37,38
 233 334 233 334 243 310 c 128,-1,39
 253 286 253 286 270 269.5 c 128,-1,40
 287 253 287 253 309.5 243.5 c 128,-1,41
 332 234 332 234 358 234 c 0,42,43
 409 234 409 234 445.5 269.5 c 128,-1,44
 482 305 482 305 482 365 c 256,29,30
EndSplineSet
EndChar

StartChar: yen
Encoding: 165 165 128
Width: 588
VWidth: 1177
Flags: W
LayerCount: 2
Fore
SplineSet
231 0 m 1,0,-1
 258 112 l 1,1,-1
 87 112 l 1,2,-1
 105 186 l 1,3,-1
 276 186 l 1,4,-1
 300 293 l 1,5,-1
 131 293 l 1,6,-1
 148 369 l 1,7,-1
 291 369 l 1,8,9
 253 463 253 463 226 548.5 c 128,-1,10
 199 634 199 634 173 729 c 1,11,-1
 276 729 l 1,12,13
 292 643 292 643 318.5 559.5 c 128,-1,14
 345 476 345 476 372 405 c 1,15,16
 433 478 433 478 497.5 563 c 128,-1,17
 562 648 562 648 615 729 c 1,18,-1
 726 729 l 1,19,20
 659 635 659 635 589 548 c 128,-1,21
 519 461 519 461 441 369 c 1,22,-1
 585 369 l 1,23,-1
 567 293 l 1,24,-1
 398 293 l 1,25,-1
 372 186 l 1,26,-1
 542 186 l 1,27,-1
 524 112 l 1,28,-1
 355 112 l 1,29,-1
 327 0 l 1,30,-1
 231 0 l 1,0,-1
EndSplineSet
EndChar

StartChar: brokenbar
Encoding: 166 166 129
Width: 588
VWidth: 1177
Flags: W
LayerCount: 2
Fore
SplineSet
277 208 m 1,0,-1
 369 208 l 1,1,-1
 272 -194 l 1,2,-1
 180 -194 l 1,3,-1
 277 208 l 1,0,-1
425 823 m 1,4,-1
 517 823 l 1,5,-1
 419 420 l 1,6,-1
 329 420 l 1,7,-1
 425 823 l 1,4,-1
EndSplineSet
EndChar

StartChar: section
Encoding: 167 167 130
Width: 588
VWidth: 1177
Flags: W
LayerCount: 2
Fore
SplineSet
280 143 m 0,0,1
 251 154 251 154 225 165 c 128,-1,2
 199 176 199 176 179.5 193.5 c 128,-1,3
 160 211 160 211 149 236 c 128,-1,4
 138 261 138 261 138 300 c 0,5,6
 138 357 138 357 175 403.5 c 128,-1,7
 212 450 212 450 266 479 c 1,8,9
 235 510 235 510 236 565 c 0,10,11
 236 607 236 607 253 641 c 128,-1,12
 270 675 270 675 300 698 c 128,-1,13
 330 721 330 721 372.5 733.5 c 128,-1,14
 415 746 415 746 466 746 c 0,15,16
 519 746 519 746 557.5 735 c 128,-1,17
 596 724 596 724 621 713 c 1,18,-1
 584 636 l 1,19,20
 565 645 565 645 535.5 656 c 128,-1,21
 506 667 506 667 458 667 c 0,22,23
 401 667 401 667 366 647 c 128,-1,24
 331 627 331 627 331 580 c 0,25,26
 331 549 331 549 351.5 532 c 128,-1,27
 372 515 372 515 418 498 c 0,28,29
 447 486 447 486 473 475 c 128,-1,30
 499 464 499 464 518 447 c 128,-1,31
 537 430 537 430 548 404.5 c 128,-1,32
 559 379 559 379 559 340 c 0,33,34
 559 280 559 280 522.5 236 c 128,-1,35
 486 192 486 192 431 161 c 1,36,37
 446 147 446 147 459 124.5 c 128,-1,38
 472 102 472 102 472 62 c 0,39,40
 472 23 472 23 456.5 -9 c 128,-1,41
 441 -41 441 -41 410 -64.5 c 128,-1,42
 379 -88 379 -88 334 -101 c 128,-1,43
 289 -114 289 -114 230 -114 c 0,44,45
 172 -114 172 -114 128 -104 c 128,-1,46
 84 -94 84 -94 53 -78 c 1,47,-1
 91 -1 l 1,48,49
 111 -13 111 -13 148.5 -24 c 128,-1,50
 186 -35 186 -35 237 -35 c 0,51,52
 306 -35 306 -35 341.5 -11.5 c 128,-1,53
 377 12 377 12 377 53 c 0,54,55
 377 73 377 73 370 86 c 128,-1,56
 363 99 363 99 350.5 109 c 128,-1,57
 338 119 338 119 320 127 c 128,-1,58
 302 135 302 135 280 143 c 0,0,1
371 201 m 0,59,60
 406 217 406 217 437 251 c 128,-1,61
 468 285 468 285 468 330 c 0,62,63
 468 350 468 350 458.5 365 c 128,-1,64
 449 380 449 380 432.5 391.5 c 128,-1,65
 416 403 416 403 394 412.5 c 128,-1,66
 372 422 372 422 346 431 c 0,67,68
 331 437 331 437 329 439 c 0,69,70
 311 431 311 431 293.5 418 c 128,-1,71
 276 405 276 405 261.5 388.5 c 128,-1,72
 247 372 247 372 238.5 352 c 128,-1,73
 230 332 230 332 230 311 c 0,74,75
 230 291 230 291 239.5 275.5 c 128,-1,76
 249 260 249 260 266 249 c 128,-1,77
 283 238 283 238 304.5 228.5 c 128,-1,78
 326 219 326 219 351 210 c 0,79,80
 357 208 357 208 362 205.5 c 128,-1,81
 367 203 367 203 371 201 c 0,59,60
EndSplineSet
EndChar

StartChar: dieresis
Encoding: 168 168 131
Width: 588
VWidth: 1177
Flags: W
LayerCount: 2
Fore
SplineSet
338 648 m 256,0,1
 314 648 314 648 298.5 662.5 c 128,-1,2
 283 677 283 677 283 702 c 0,3,4
 283 733 283 733 304 752 c 128,-1,5
 325 771 325 771 349 771 c 256,6,7
 373 771 373 771 389 756.5 c 128,-1,8
 405 742 405 742 405 716 c 0,9,10
 405 685 405 685 383.5 666.5 c 128,-1,11
 362 648 362 648 338 648 c 256,0,1
537 648 m 0,12,13
 513 648 513 648 498 662.5 c 128,-1,14
 483 677 483 677 483 702 c 0,15,16
 483 733 483 733 503.5 752 c 128,-1,17
 524 771 524 771 549 771 c 0,18,19
 573 771 573 771 588.5 756.5 c 128,-1,20
 604 742 604 742 604 716 c 0,21,22
 604 685 604 685 583 666.5 c 128,-1,23
 562 648 562 648 537 648 c 0,12,13
EndSplineSet
EndChar

StartChar: copyright
Encoding: 169 169 132
Width: 588
VWidth: 1177
Flags: W
LayerCount: 2
Fore
SplineSet
525 272 m 0,0,1
 525 329 525 329 509.5 370.5 c 128,-1,2
 494 412 494 412 467.5 440 c 128,-1,3
 441 468 441 468 407 482 c 128,-1,4
 373 496 373 496 339 496 c 0,5,6
 304 496 304 496 270.5 482 c 128,-1,7
 237 468 237 468 210.5 440 c 128,-1,8
 184 412 184 412 168 370.5 c 128,-1,9
 152 329 152 329 152 274 c 0,10,11
 152 217 152 217 168 175.5 c 128,-1,12
 184 134 184 134 210.5 106.5 c 128,-1,13
 237 79 237 79 270.5 65 c 128,-1,14
 304 51 304 51 339 51 c 256,15,16
 374 51 374 51 407.5 65 c 128,-1,17
 441 79 441 79 467.5 106.5 c 128,-1,18
 494 134 494 134 509.5 175.5 c 128,-1,19
 525 217 525 217 525 272 c 0,0,1
429 141 m 1,20,21
 409 132 409 132 387 127 c 128,-1,22
 365 122 365 122 346 122 c 0,23,24
 312 122 312 122 286.5 134.5 c 128,-1,25
 261 147 261 147 244 167.5 c 128,-1,26
 227 188 227 188 219 214.5 c 128,-1,27
 211 241 211 241 211 270 c 256,28,29
 211 298 211 298 219 325 c 128,-1,30
 227 352 227 352 243.5 373.5 c 128,-1,31
 260 395 260 395 286 407.5 c 128,-1,32
 312 420 312 420 347 420 c 0,33,34
 365 420 365 420 385.5 417.5 c 128,-1,35
 406 415 406 415 428 405 c 1,36,-1
 403 342 l 1,37,38
 390 348 390 348 377.5 349.5 c 128,-1,39
 365 351 365 351 353 351 c 0,40,41
 316 351 316 351 300.5 327.5 c 128,-1,42
 285 304 285 304 285 274 c 0,43,44
 285 236 285 236 304 214.5 c 128,-1,45
 323 193 323 193 359 193 c 0,46,47
 368 193 368 193 382.5 195.5 c 128,-1,48
 397 198 397 198 409 204 c 1,49,-1
 429 141 l 1,20,21
84 272 m 0,50,51
 84 344 84 344 106 398 c 128,-1,52
 128 452 128 452 164 488 c 128,-1,53
 200 524 200 524 246 541.5 c 128,-1,54
 292 559 292 559 339 559 c 256,55,56
 386 559 386 559 432 541.5 c 128,-1,57
 478 524 478 524 514 488 c 128,-1,58
 550 452 550 452 572 398.5 c 128,-1,59
 594 345 594 345 594 274 c 0,60,61
 594 202 594 202 571.5 148.5 c 128,-1,62
 549 95 549 95 513 59.5 c 128,-1,63
 477 24 477 24 431 5.5 c 128,-1,64
 385 -13 385 -13 338 -13 c 0,65,66
 290 -13 290 -13 244.5 5.5 c 128,-1,67
 199 24 199 24 163 59 c 128,-1,68
 127 94 127 94 105.5 147.5 c 128,-1,69
 84 201 84 201 84 272 c 0,50,51
EndSplineSet
EndChar

StartChar: ordfeminine
Encoding: 170 170 133
Width: 588
VWidth: 1177
Flags: W
LayerCount: 2
Fore
SplineSet
339 347 m 0,0,1
 271 347 271 347 241 385 c 128,-1,2
 211 423 211 423 211 486 c 0,3,4
 211 534 211 534 228 581 c 128,-1,5
 245 628 245 628 278.5 664 c 128,-1,6
 312 700 312 700 362.5 722 c 128,-1,7
 413 744 413 744 481 744 c 0,8,9
 501 744 501 744 528 739.5 c 128,-1,10
 555 735 555 735 578 726 c 1,11,-1
 521 512 l 2,12,13
 512 477 512 477 511 448 c 0,14,15
 511 421 511 421 516 402.5 c 128,-1,16
 521 384 521 384 530 362 c 1,17,-1
 457 349 l 1,18,19
 453 355 453 355 448.5 365.5 c 128,-1,20
 444 376 444 376 442 386 c 1,21,22
 427 371 427 371 401.5 359 c 128,-1,23
 376 347 376 347 339 347 c 0,0,1
488 677 m 2,24,25
 486 678 486 678 480.5 679.5 c 128,-1,26
 475 681 475 681 466 681 c 0,27,28
 426 681 426 681 393 665.5 c 128,-1,29
 360 650 360 650 336.5 624 c 128,-1,30
 313 598 313 598 300 564 c 128,-1,31
 287 530 287 530 287 494 c 0,32,33
 287 462 287 462 300.5 436.5 c 128,-1,34
 314 411 314 411 357 411 c 0,35,36
 381 411 381 411 400 423 c 128,-1,37
 419 435 419 435 436 451 c 1,38,39
 436 467 436 467 439.5 485.5 c 128,-1,40
 443 504 443 504 446 517 c 2,41,-1
 488 677 l 2,24,25
EndSplineSet
EndChar

StartChar: guillemotleft
Encoding: 171 171 134
Width: 588
VWidth: 1177
Flags: W
LayerCount: 2
Fore
SplineSet
126 299 m 1,0,-1
 316 516 l 1,1,-1
 370 475 l 1,2,-1
 225 293 l 1,3,-1
 284 130 l 1,4,-1
 221 95 l 1,5,-1
 126 299 l 1,0,-1
338 299 m 1,6,-1
 527 516 l 1,7,-1
 582 475 l 1,8,-1
 437 293 l 1,9,-1
 496 130 l 1,10,-1
 433 95 l 1,11,-1
 338 299 l 1,6,-1
EndSplineSet
Substitution2: "'case' Case-Sensitive Forms lookup 17 subtable" Guillemotleft
EndChar

StartChar: logicalnot
Encoding: 172 172 135
Width: 588
VWidth: 1177
Flags: W
LayerCount: 2
Fore
SplineSet
610 409 m 1,0,-1
 525 51 l 1,1,-1
 441 51 l 1,2,-1
 506 326 l 1,3,-1
 108 326 l 1,4,-1
 128 409 l 1,5,-1
 610 409 l 1,0,-1
EndSplineSet
EndChar

StartChar: registered
Encoding: 174 174 137
Width: 588
VWidth: 1177
Flags: W
LayerCount: 2
Fore
SplineSet
525 272 m 0,0,1
 525 329 525 329 509.5 370.5 c 128,-1,2
 494 412 494 412 467.5 440 c 128,-1,3
 441 468 441 468 407 482 c 128,-1,4
 373 496 373 496 339 496 c 0,5,6
 304 496 304 496 270.5 482 c 128,-1,7
 237 468 237 468 210.5 440 c 128,-1,8
 184 412 184 412 168 370.5 c 128,-1,9
 152 329 152 329 152 274 c 0,10,11
 152 217 152 217 168 175.5 c 128,-1,12
 184 134 184 134 210.5 106.5 c 128,-1,13
 237 79 237 79 270.5 65 c 128,-1,14
 304 51 304 51 339 51 c 256,15,16
 374 51 374 51 407.5 65 c 128,-1,17
 441 79 441 79 467.5 106.5 c 128,-1,18
 494 134 494 134 509.5 175.5 c 128,-1,19
 525 217 525 217 525 272 c 0,0,1
84 272 m 0,20,21
 84 344 84 344 106 398 c 128,-1,22
 128 452 128 452 164 488 c 128,-1,23
 200 524 200 524 246 541.5 c 128,-1,24
 292 559 292 559 339 559 c 256,25,26
 386 559 386 559 432 541.5 c 128,-1,27
 478 524 478 524 514 488 c 128,-1,28
 550 452 550 452 572 398.5 c 128,-1,29
 594 345 594 345 594 274 c 0,30,31
 594 202 594 202 571.5 148.5 c 128,-1,32
 549 95 549 95 513 59.5 c 128,-1,33
 477 24 477 24 431 5.5 c 128,-1,34
 385 -13 385 -13 338 -13 c 0,35,36
 290 -13 290 -13 244.5 5.5 c 128,-1,37
 199 24 199 24 163 59 c 128,-1,38
 127 94 127 94 105.5 147.5 c 128,-1,39
 84 201 84 201 84 272 c 0,20,21
303 220 m 1,40,-1
 303 130 l 1,41,-1
 240 130 l 1,42,-1
 240 410 l 1,43,44
 255 415 255 415 276 417.5 c 128,-1,45
 297 420 297 420 319 420 c 0,46,47
 386 420 386 420 418 394.5 c 128,-1,48
 450 369 450 369 450 319 c 0,49,50
 450 261 450 261 404 236 c 1,51,52
 417 216 417 216 433 188 c 128,-1,53
 449 160 449 160 464 130 c 1,54,-1
 397 130 l 1,55,56
 382 158 382 158 369.5 179.5 c 128,-1,57
 357 201 357 201 346 220 c 1,58,-1
 303 220 l 1,40,-1
303 279 m 1,59,-1
 325 279 l 2,60,61
 357 279 357 279 372.5 287.5 c 128,-1,62
 388 296 388 296 388 323 c 0,63,64
 388 347 388 347 369 354.5 c 128,-1,65
 350 362 350 362 330 362 c 0,66,67
 322 362 322 362 315.5 361 c 128,-1,68
 309 360 309 360 303 359 c 1,69,-1
 303 279 l 1,59,-1
EndSplineSet
EndChar

StartChar: macron
Encoding: 175 175 138
Width: 588
VWidth: 1177
Flags: W
LayerCount: 2
Fore
SplineSet
294 748 m 1,0,-1
 589 748 l 1,1,-1
 571 673 l 1,2,-1
 277 673 l 1,3,-1
 294 748 l 1,0,-1
EndSplineSet
EndChar

StartChar: degree
Encoding: 176 176 139
Width: 588
VWidth: 1177
Flags: W
LayerCount: 2
Fore
SplineSet
557 670 m 256,0,1
 557 636 557 636 545.5 609 c 128,-1,2
 534 582 534 582 513 563 c 128,-1,3
 492 544 492 544 465.5 534 c 128,-1,4
 439 524 439 524 410 524 c 256,5,6
 381 524 381 524 354 534 c 128,-1,7
 327 544 327 544 306.5 563 c 128,-1,8
 286 582 286 582 274.5 609 c 128,-1,9
 263 636 263 636 263 670 c 256,10,11
 263 704 263 704 274.5 731.5 c 128,-1,12
 286 759 286 759 306.5 777.5 c 128,-1,13
 327 796 327 796 353.5 806 c 128,-1,14
 380 816 380 816 410 816 c 256,15,16
 439 816 439 816 465.5 806 c 128,-1,17
 492 796 492 796 513 777.5 c 128,-1,18
 534 759 534 759 545.5 731.5 c 128,-1,19
 557 704 557 704 557 670 c 256,0,1
486 670 m 256,20,21
 486 708 486 708 464 729 c 128,-1,22
 442 750 442 750 410 750 c 0,23,24
 379 750 379 750 356 729 c 128,-1,25
 333 708 333 708 333 670 c 256,26,27
 333 632 333 632 356 611 c 128,-1,28
 379 590 379 590 410 590 c 0,29,30
 442 590 442 590 464 611 c 128,-1,31
 486 632 486 632 486 670 c 256,20,21
EndSplineSet
EndChar

StartChar: plusminus
Encoding: 177 177 140
Width: 588
VWidth: 1177
Flags: W
LayerCount: 2
Fore
SplineSet
477 653 m 1,0,-1
 428 441 l 1,1,-1
 618 441 l 1,2,-1
 598 358 l 1,3,-1
 408 358 l 1,4,-1
 356 146 l 1,5,-1
 267 146 l 1,6,-1
 318 358 l 1,7,-1
 126 358 l 1,8,-1
 146 441 l 1,9,-1
 338 441 l 1,10,-1
 389 653 l 1,11,-1
 477 653 l 1,0,-1
531 84 m 1,12,-1
 511 0 l 1,13,-1
 39 0 l 1,14,-1
 59 84 l 1,15,-1
 531 84 l 1,12,-1
EndSplineSet
EndChar

StartChar: twosuperior
Encoding: 178 178 141
Width: 588
VWidth: 1177
Flags: W
LayerCount: 2
Fore
SplineSet
509 398 m 1,0,-1
 494 331 l 1,1,-1
 217 331 l 1,2,3
 222 369 222 369 234 397 c 128,-1,4
 246 425 246 425 265 447 c 128,-1,5
 284 469 284 469 308 487 c 128,-1,6
 332 505 332 505 359 522 c 256,7,8
 386 538 386 538 407 551.5 c 128,-1,9
 428 565 428 565 441.5 578 c 128,-1,10
 455 591 455 591 462 605.5 c 128,-1,11
 469 620 469 620 469 637 c 0,12,13
 469 659 469 659 454 670 c 128,-1,14
 439 681 439 681 418 681 c 0,15,16
 373 681 373 681 347.5 665.5 c 128,-1,17
 322 650 322 650 309 638 c 1,18,-1
 283 690 l 1,19,20
 304 710 304 710 340.5 728 c 128,-1,21
 377 746 377 746 426 746 c 0,22,23
 486 746 486 746 515 718 c 128,-1,24
 544 690 544 690 544 643 c 0,25,26
 544 612 544 612 529.5 587 c 128,-1,27
 515 562 515 562 493 540.5 c 128,-1,28
 471 519 471 519 444.5 501.5 c 128,-1,29
 418 484 418 484 395 470 c 0,30,31
 373 455 373 455 346 438.5 c 128,-1,32
 319 422 319 422 310 398 c 1,33,-1
 509 398 l 1,0,-1
EndSplineSet
Substitution2: "Single Substitution lookup 22 subtable" twoinferior
Substitution2: "'sinf' Scientific Inferiors lookup 11 subtable" two.sinf
Substitution2: "'subs' Subscript lookup 10 subtable" two.sinf
Substitution2: "'sups' Superscript lookup 9 subtable" two.sups
Substitution2: "'dnom' Denominators lookup 8 subtable" twoinferior
EndChar

StartChar: threesuperior
Encoding: 179 179 142
Width: 588
VWidth: 1177
Flags: W
LayerCount: 2
Fore
SplineSet
340 388 m 0,0,1
 361 388 361 388 382.5 391.5 c 128,-1,2
 404 395 404 395 420 403 c 128,-1,3
 436 411 436 411 446 426 c 128,-1,4
 456 441 456 441 456 463 c 0,5,6
 456 492 456 492 428 504.5 c 128,-1,7
 400 517 400 517 356 517 c 2,8,-1
 333 517 l 1,9,-1
 349 576 l 1,10,-1
 375 576 l 2,11,12
 389 576 389 576 407 579.5 c 128,-1,13
 425 583 425 583 441 590 c 128,-1,14
 457 597 457 597 468 609 c 128,-1,15
 479 621 479 621 479 638 c 0,16,17
 479 663 479 663 465 672.5 c 128,-1,18
 451 682 451 682 420 682 c 0,19,20
 392 682 392 682 365 673.5 c 128,-1,21
 338 665 338 665 322 656 c 1,22,-1
 307 711 l 1,23,24
 315 717 315 717 331 723 c 128,-1,25
 347 729 347 729 365.5 734.5 c 128,-1,26
 384 740 384 740 403 743 c 128,-1,27
 422 746 422 746 438 746 c 0,28,29
 502 746 502 746 527 720.5 c 128,-1,30
 552 695 552 695 552 660 c 0,31,32
 552 619 552 619 530.5 593.5 c 128,-1,33
 509 568 509 568 471 549 c 1,34,35
 497 540 497 540 513 519.5 c 128,-1,36
 529 499 529 499 529 465 c 0,37,38
 529 394 529 394 476.5 358.5 c 128,-1,39
 424 323 424 323 339 323 c 0,40,41
 297 323 297 323 267 331 c 128,-1,42
 237 339 237 339 216 351 c 1,43,-1
 244 410 l 1,44,45
 263 401 263 401 288 394.5 c 128,-1,46
 313 388 313 388 340 388 c 0,0,1
EndSplineSet
Substitution2: "Single Substitution lookup 22 subtable" threeinferior
Substitution2: "'sinf' Scientific Inferiors lookup 11 subtable" three.sinf
Substitution2: "'subs' Subscript lookup 10 subtable" three.sinf
Substitution2: "'sups' Superscript lookup 9 subtable" three.sups
Substitution2: "'dnom' Denominators lookup 8 subtable" threeinferior
EndChar

StartChar: acute
Encoding: 180 180 143
Width: 588
VWidth: 1177
Flags: W
LayerCount: 2
Fore
SplineSet
578 737 m 1,0,-1
 400 603 l 1,1,-1
 359 655 l 1,2,-1
 525 814 l 1,3,-1
 578 737 l 1,0,-1
EndSplineSet
EndChar

StartChar: mu
Encoding: 181 181 144
Width: 588
VWidth: 1177
Flags: W
LayerCount: 2
Fore
SplineSet
417 121 m 1,0,1
 417 148 417 148 419.5 174.5 c 128,-1,2
 422 201 422 201 429 231 c 2,3,-1
 506 547 l 1,4,-1
 603 547 l 1,5,-1
 525 221 l 2,6,7
 519 197 519 197 515 177 c 128,-1,8
 511 157 511 157 511 138 c 0,9,10
 511 111 511 111 524 93 c 128,-1,11
 537 75 537 75 571 69 c 1,12,-1
 549 -9 l 1,13,14
 505 -8 505 -8 478.5 6 c 128,-1,15
 452 20 452 20 437 46 c 1,16,17
 360 -13 360 -13 257 -13 c 0,18,19
 224 -13 224 -13 195.5 1 c 128,-1,20
 167 15 167 15 152 40 c 1,21,22
 147 13 147 13 141 -20.5 c 128,-1,23
 135 -54 135 -54 127 -86 c 2,24,-1
 101 -194 l 1,25,-1
 5 -194 l 1,26,-1
 181 547 l 1,27,-1
 279 547 l 1,28,-1
 217 289 l 2,29,30
 211 264 211 264 203.5 231.5 c 128,-1,31
 196 199 196 199 196 166 c 0,32,33
 196 147 196 147 199.5 130 c 128,-1,34
 203 113 203 113 213 100.5 c 128,-1,35
 223 88 223 88 240 81 c 128,-1,36
 257 74 257 74 284 74 c 0,37,38
 325 74 325 74 356.5 85 c 128,-1,39
 388 96 388 96 417 121 c 1,0,1
EndSplineSet
EndChar

StartChar: paragraph
Encoding: 182 182 145
Width: 588
VWidth: 1177
Flags: W
LayerCount: 2
Fore
SplineSet
495 655 m 0,0,1
 489 655 489 655 482.5 655 c 128,-1,2
 476 655 476 655 470 654 c 1,3,-1
 266 -194 l 1,4,-1
 184 -194 l 1,5,-1
 297 276 l 1,6,7
 244 280 244 280 208 293.5 c 128,-1,8
 172 307 172 307 150 330 c 128,-1,9
 128 353 128 353 119.5 382.5 c 128,-1,10
 111 412 111 412 111 446 c 0,11,12
 111 523 111 523 144 578 c 128,-1,13
 177 633 177 633 231 668 c 128,-1,14
 285 703 285 703 352.5 719.5 c 128,-1,15
 420 736 420 736 490 736 c 0,16,17
 531 736 531 736 578 732.5 c 128,-1,18
 625 729 625 729 663 718 c 1,19,-1
 444 -194 l 1,20,-1
 362 -194 l 1,21,-1
 565 650 l 1,22,23
 554 652 554 652 536.5 653.5 c 128,-1,24
 519 655 519 655 495 655 c 0,0,1
EndSplineSet
EndChar

StartChar: cedilla
Encoding: 184 184 147
Width: 588
VWidth: 1177
Flags: W
LayerCount: 2
Fore
SplineSet
306 -40 m 1,0,1
 327 -52 327 -52 338 -65.5 c 128,-1,2
 349 -79 349 -79 349 -104 c 0,3,4
 349 -150 349 -150 316 -174.5 c 128,-1,5
 283 -199 283 -199 226 -199 c 0,6,7
 195 -199 195 -199 174.5 -194.5 c 128,-1,8
 154 -190 154 -190 141 -183 c 1,9,-1
 165 -125 l 1,10,11
 174 -130 174 -130 187.5 -133.5 c 128,-1,12
 201 -137 201 -137 221 -137 c 0,13,14
 239 -137 239 -137 250 -131.5 c 128,-1,15
 261 -126 261 -126 261 -111 c 0,16,17
 261 -93 261 -93 247.5 -85 c 128,-1,18
 234 -77 234 -77 219 -73 c 1,19,20
 225 -62 225 -62 234.5 -48 c 128,-1,21
 244 -34 244 -34 253.5 -20.5 c 128,-1,22
 263 -7 263 -7 271 4 c 128,-1,23
 279 15 279 15 284 21 c 1,24,-1
 351 21 l 1,25,26
 342 8 342 8 328.5 -9.5 c 128,-1,27
 315 -27 315 -27 306 -40 c 1,0,1
EndSplineSet
EndChar

StartChar: onesuperior
Encoding: 185 185 148
Width: 588
VWidth: 1177
Flags: W
LayerCount: 2
Fore
SplineSet
285 655 m 1,0,1
 378 688 378 688 442 737 c 1,2,-1
 494 737 l 1,3,-1
 411 398 l 1,4,-1
 506 398 l 1,5,-1
 490 331 l 1,6,-1
 216 331 l 1,7,-1
 231 398 l 1,8,-1
 337 398 l 1,9,-1
 396 635 l 1,10,11
 369 620 369 620 342.5 611 c 128,-1,12
 316 602 316 602 294 595 c 1,13,-1
 285 655 l 1,0,1
EndSplineSet
Substitution2: "Single Substitution lookup 22 subtable" oneinferior
Substitution2: "'sinf' Scientific Inferiors lookup 11 subtable" one.sinf
Substitution2: "'subs' Subscript lookup 10 subtable" one.sinf
Substitution2: "'sups' Superscript lookup 9 subtable" one.sups
Substitution2: "'dnom' Denominators lookup 8 subtable" oneinferior
EndChar

StartChar: ordmasculine
Encoding: 186 186 149
Width: 588
VWidth: 1177
Flags: W
LayerCount: 2
Fore
SplineSet
453 746 m 0,0,1
 517 746 517 746 553 710.5 c 128,-1,2
 589 675 589 675 589 611 c 0,3,4
 589 569 589 569 576.5 522 c 128,-1,5
 564 475 564 475 536.5 436 c 128,-1,6
 509 397 509 397 464 371 c 128,-1,7
 419 345 419 345 355 345 c 256,8,9
 291 345 291 345 255 380.5 c 128,-1,10
 219 416 219 416 219 479 c 0,11,12
 219 521 219 521 231.5 568.5 c 128,-1,13
 244 616 244 616 271.5 655 c 128,-1,14
 299 694 299 694 343.5 720 c 128,-1,15
 388 746 388 746 453 746 c 0,0,1
369 410 m 0,16,17
 402 410 402 410 428.5 428 c 128,-1,18
 455 446 455 446 473 475 c 128,-1,19
 491 504 491 504 500.5 538 c 128,-1,20
 510 572 510 572 510 604 c 0,21,22
 510 638 510 638 493.5 659.5 c 128,-1,23
 477 681 477 681 439 681 c 0,24,25
 405 681 405 681 379 662.5 c 128,-1,26
 353 644 353 644 335 615.5 c 128,-1,27
 317 587 317 587 307.5 552.5 c 128,-1,28
 298 518 298 518 298 486 c 0,29,30
 298 452 298 452 314.5 431 c 128,-1,31
 331 410 331 410 369 410 c 0,16,17
EndSplineSet
EndChar

StartChar: guillemotright
Encoding: 187 187 150
Width: 588
VWidth: 1177
Flags: W
LayerCount: 2
Fore
SplineSet
567 300 m 1,0,-1
 378 84 l 1,1,-1
 323 125 l 1,2,-1
 468 306 l 1,3,-1
 409 470 l 1,4,-1
 471 504 l 1,5,-1
 567 300 l 1,0,-1
356 300 m 1,6,-1
 166 84 l 1,7,-1
 112 125 l 1,8,-1
 257 306 l 1,9,-1
 198 470 l 1,10,-1
 260 504 l 1,11,-1
 356 300 l 1,6,-1
EndSplineSet
Substitution2: "'case' Case-Sensitive Forms lookup 17 subtable" Guillemotright
EndChar

StartChar: onequarter
Encoding: 188 188 151
Width: 588
VWidth: 1177
Flags: W
LayerCount: 2
Fore
SplineSet
163 661 m 1,0,1
 208 677 208 677 240 693.5 c 128,-1,2
 272 710 272 710 307 737 c 1,3,-1
 355 737 l 1,4,-1
 283 443 l 1,5,-1
 213 443 l 1,6,-1
 263 644 l 1,7,8
 236 631 236 631 215 623 c 128,-1,9
 194 615 194 615 171 608 c 1,10,-1
 163 661 l 1,0,1
584 294 m 1,11,-1
 541 115 l 1,12,-1
 583 115 l 1,13,-1
 569 57 l 1,14,-1
 527 57 l 1,15,-1
 514 0 l 1,16,-1
 444 0 l 1,17,-1
 457 57 l 1,18,-1
 305 57 l 1,19,-1
 317 105 l 1,20,21
 362 159 362 159 409.5 205.5 c 128,-1,22
 457 252 457 252 516 294 c 1,23,-1
 584 294 l 1,11,-1
496 218 m 1,24,25
 478 204 478 204 464.5 191.5 c 128,-1,26
 451 179 451 179 440 167 c 128,-1,27
 429 155 429 155 417.5 143 c 128,-1,28
 406 131 406 131 395 115 c 1,29,-1
 471 115 l 1,30,-1
 496 218 l 1,24,25
122 0 m 1,31,-1
 33 0 l 1,32,-1
 601 729 l 1,33,-1
 693 729 l 1,34,-1
 122 0 l 1,31,-1
EndSplineSet
Ligature2: "'frac' Diagonal Fractions lookup 13 subtable" one.sinf fraction four.sinf
Ligature2: "'frac' Diagonal Fractions lookup 13 subtable" one.sinf fraction four.sups
Ligature2: "'frac' Diagonal Fractions lookup 13 subtable" one.sinf fraction fourinferior
Ligature2: "'frac' Diagonal Fractions lookup 13 subtable" one.sinf fraction foursuperior
Ligature2: "'frac' Diagonal Fractions lookup 13 subtable" one.sinf fraction four
Ligature2: "'frac' Diagonal Fractions lookup 13 subtable" one.sups fraction four.sinf
Ligature2: "'frac' Diagonal Fractions lookup 13 subtable" one.sups fraction four.sups
Ligature2: "'frac' Diagonal Fractions lookup 13 subtable" one.sups fraction fourinferior
Ligature2: "'frac' Diagonal Fractions lookup 13 subtable" one.sups fraction foursuperior
Ligature2: "'frac' Diagonal Fractions lookup 13 subtable" one.sups fraction four
Ligature2: "'frac' Diagonal Fractions lookup 13 subtable" oneinferior fraction four.sinf
Ligature2: "'frac' Diagonal Fractions lookup 13 subtable" oneinferior fraction four.sups
Ligature2: "'frac' Diagonal Fractions lookup 13 subtable" oneinferior fraction fourinferior
Ligature2: "'frac' Diagonal Fractions lookup 13 subtable" oneinferior fraction foursuperior
Ligature2: "'frac' Diagonal Fractions lookup 13 subtable" oneinferior fraction four
Ligature2: "'frac' Diagonal Fractions lookup 13 subtable" onesuperior fraction four.sinf
Ligature2: "'frac' Diagonal Fractions lookup 13 subtable" onesuperior fraction four.sups
Ligature2: "'frac' Diagonal Fractions lookup 13 subtable" onesuperior fraction fourinferior
Ligature2: "'frac' Diagonal Fractions lookup 13 subtable" onesuperior fraction foursuperior
Ligature2: "'frac' Diagonal Fractions lookup 13 subtable" onesuperior fraction four
Ligature2: "'frac' Diagonal Fractions lookup 13 subtable" one fraction four.sinf
Ligature2: "'frac' Diagonal Fractions lookup 13 subtable" one fraction four.sups
Ligature2: "'frac' Diagonal Fractions lookup 13 subtable" one fraction fourinferior
Ligature2: "'frac' Diagonal Fractions lookup 13 subtable" one fraction foursuperior
Ligature2: "'frac' Diagonal Fractions lookup 13 subtable" one fraction four
EndChar

StartChar: onehalf
Encoding: 189 189 152
Width: 588
VWidth: 1177
Flags: W
LayerCount: 2
Fore
SplineSet
163 661 m 1,0,1
 208 677 208 677 240 693.5 c 128,-1,2
 272 710 272 710 307 737 c 1,3,-1
 355 737 l 1,4,-1
 283 443 l 1,5,-1
 213 443 l 1,6,-1
 263 644 l 1,7,8
 236 631 236 631 215 623 c 128,-1,9
 194 615 194 615 171 608 c 1,10,-1
 163 661 l 1,0,1
558 59 m 1,11,-1
 545 0 l 1,12,-1
 323 0 l 1,13,14
 328 26 328 26 333.5 43.5 c 128,-1,15
 339 61 339 61 349.5 75.5 c 128,-1,16
 360 90 360 90 376.5 101.5 c 128,-1,17
 393 113 393 113 418 127 c 2,18,-1
 448 144 l 2,19,20
 483 164 483 164 499 177.5 c 128,-1,21
 515 191 515 191 515 211 c 0,22,23
 515 227 515 227 504.5 233.5 c 128,-1,24
 494 240 494 240 477 240 c 0,25,26
 457 240 457 240 436 232 c 128,-1,27
 415 224 415 224 399 211 c 1,28,-1
 372 257 l 1,29,30
 393 277 393 277 426 289.5 c 128,-1,31
 459 302 459 302 492 302 c 0,32,33
 527 302 527 302 553.5 284 c 128,-1,34
 580 266 580 266 580 221 c 0,35,36
 580 196 580 196 567.5 176.5 c 128,-1,37
 555 157 555 157 536.5 140.5 c 128,-1,38
 518 124 518 124 497 111 c 128,-1,39
 476 98 476 98 457 88.5 c 128,-1,40
 438 79 438 79 424.5 71.5 c 128,-1,41
 411 64 411 64 409 59 c 1,42,-1
 558 59 l 1,11,-1
112 0 m 1,43,-1
 22 0 l 1,44,-1
 590 729 l 1,45,-1
 682 729 l 1,46,-1
 112 0 l 1,43,-1
EndSplineSet
Ligature2: "'frac' Diagonal Fractions lookup 13 subtable" one.sinf fraction two.sinf
Ligature2: "'frac' Diagonal Fractions lookup 13 subtable" one.sinf fraction two.sups
Ligature2: "'frac' Diagonal Fractions lookup 13 subtable" one.sinf fraction twoinferior
Ligature2: "'frac' Diagonal Fractions lookup 13 subtable" one.sinf fraction twosuperior
Ligature2: "'frac' Diagonal Fractions lookup 13 subtable" one.sinf fraction two
Ligature2: "'frac' Diagonal Fractions lookup 13 subtable" one.sups fraction two.sinf
Ligature2: "'frac' Diagonal Fractions lookup 13 subtable" one.sups fraction two.sups
Ligature2: "'frac' Diagonal Fractions lookup 13 subtable" one.sups fraction twoinferior
Ligature2: "'frac' Diagonal Fractions lookup 13 subtable" one.sups fraction twosuperior
Ligature2: "'frac' Diagonal Fractions lookup 13 subtable" one.sups fraction two
Ligature2: "'frac' Diagonal Fractions lookup 13 subtable" oneinferior fraction two.sinf
Ligature2: "'frac' Diagonal Fractions lookup 13 subtable" oneinferior fraction two.sups
Ligature2: "'frac' Diagonal Fractions lookup 13 subtable" oneinferior fraction twoinferior
Ligature2: "'frac' Diagonal Fractions lookup 13 subtable" oneinferior fraction twosuperior
Ligature2: "'frac' Diagonal Fractions lookup 13 subtable" oneinferior fraction two
Ligature2: "'frac' Diagonal Fractions lookup 13 subtable" onesuperior fraction two.sinf
Ligature2: "'frac' Diagonal Fractions lookup 13 subtable" onesuperior fraction two.sups
Ligature2: "'frac' Diagonal Fractions lookup 13 subtable" onesuperior fraction twoinferior
Ligature2: "'frac' Diagonal Fractions lookup 13 subtable" onesuperior fraction twosuperior
Ligature2: "'frac' Diagonal Fractions lookup 13 subtable" onesuperior fraction two
Ligature2: "'frac' Diagonal Fractions lookup 13 subtable" one fraction two.sinf
Ligature2: "'frac' Diagonal Fractions lookup 13 subtable" one fraction two.sups
Ligature2: "'frac' Diagonal Fractions lookup 13 subtable" one fraction twoinferior
Ligature2: "'frac' Diagonal Fractions lookup 13 subtable" one fraction twosuperior
Ligature2: "'frac' Diagonal Fractions lookup 13 subtable" one fraction two
EndChar

StartChar: threequarters
Encoding: 190 190 153
Width: 588
VWidth: 1177
Flags: W
LayerCount: 2
Fore
SplineSet
124 506 m 1,0,1
 136 500 136 500 154.5 495.5 c 128,-1,2
 173 491 173 491 197 491 c 0,3,4
 228 491 228 491 249.5 501 c 128,-1,5
 271 511 271 511 271 536 c 0,6,7
 271 555 271 555 250 560 c 128,-1,8
 229 565 229 565 190 565 c 2,9,-1
 176 565 l 1,10,-1
 190 624 l 1,11,-1
 231 624 l 2,12,13
 258 624 258 624 273.5 634.5 c 128,-1,14
 289 645 289 645 289 662 c 0,15,16
 289 687 289 687 247 687 c 0,17,18
 231 687 231 687 209 681 c 128,-1,19
 187 675 187 675 171 669 c 1,20,-1
 161 720 l 1,21,22
 179 729 179 729 209 737.5 c 128,-1,23
 239 746 239 746 270 746 c 0,24,25
 304 746 304 746 330.5 731 c 128,-1,26
 357 716 357 716 357 677 c 0,27,28
 357 657 357 657 343.5 636 c 128,-1,29
 330 615 330 615 303 601 c 1,30,31
 338 579 338 579 338 539 c 0,32,33
 338 520 338 520 328.5 501 c 128,-1,34
 319 482 319 482 300.5 466.5 c 128,-1,35
 282 451 282 451 253.5 441.5 c 128,-1,36
 225 432 225 432 187 432 c 0,37,38
 134 432 134 432 94 452 c 1,39,-1
 124 506 l 1,0,1
584 294 m 1,40,-1
 541 115 l 1,41,-1
 583 115 l 1,42,-1
 569 57 l 1,43,-1
 527 57 l 1,44,-1
 514 0 l 1,45,-1
 444 0 l 1,46,-1
 457 57 l 1,47,-1
 305 57 l 1,48,-1
 317 105 l 1,49,50
 362 159 362 159 409.5 205.5 c 128,-1,51
 457 252 457 252 516 294 c 1,52,-1
 584 294 l 1,40,-1
496 218 m 1,53,54
 478 204 478 204 464.5 191.5 c 128,-1,55
 451 179 451 179 440 167 c 128,-1,56
 429 155 429 155 417.5 143 c 128,-1,57
 406 131 406 131 395 115 c 1,58,-1
 471 115 l 1,59,-1
 496 218 l 1,53,54
122 0 m 1,60,-1
 33 0 l 1,61,-1
 601 729 l 1,62,-1
 693 729 l 1,63,-1
 122 0 l 1,60,-1
EndSplineSet
Ligature2: "'frac' Diagonal Fractions lookup 13 subtable" three.sinf fraction four.sinf
Ligature2: "'frac' Diagonal Fractions lookup 13 subtable" three.sinf fraction four.sups
Ligature2: "'frac' Diagonal Fractions lookup 13 subtable" three.sinf fraction fourinferior
Ligature2: "'frac' Diagonal Fractions lookup 13 subtable" three.sinf fraction foursuperior
Ligature2: "'frac' Diagonal Fractions lookup 13 subtable" three.sinf fraction four
Ligature2: "'frac' Diagonal Fractions lookup 13 subtable" three.sups fraction four.sinf
Ligature2: "'frac' Diagonal Fractions lookup 13 subtable" three.sups fraction four.sups
Ligature2: "'frac' Diagonal Fractions lookup 13 subtable" three.sups fraction fourinferior
Ligature2: "'frac' Diagonal Fractions lookup 13 subtable" three.sups fraction foursuperior
Ligature2: "'frac' Diagonal Fractions lookup 13 subtable" three.sups fraction four
Ligature2: "'frac' Diagonal Fractions lookup 13 subtable" threeinferior fraction four.sinf
Ligature2: "'frac' Diagonal Fractions lookup 13 subtable" threeinferior fraction four.sups
Ligature2: "'frac' Diagonal Fractions lookup 13 subtable" threeinferior fraction fourinferior
Ligature2: "'frac' Diagonal Fractions lookup 13 subtable" threeinferior fraction foursuperior
Ligature2: "'frac' Diagonal Fractions lookup 13 subtable" threeinferior fraction four
Ligature2: "'frac' Diagonal Fractions lookup 13 subtable" threesuperior fraction four.sinf
Ligature2: "'frac' Diagonal Fractions lookup 13 subtable" threesuperior fraction four.sups
Ligature2: "'frac' Diagonal Fractions lookup 13 subtable" threesuperior fraction fourinferior
Ligature2: "'frac' Diagonal Fractions lookup 13 subtable" threesuperior fraction foursuperior
Ligature2: "'frac' Diagonal Fractions lookup 13 subtable" threesuperior fraction four
Ligature2: "'frac' Diagonal Fractions lookup 13 subtable" three fraction four.sinf
Ligature2: "'frac' Diagonal Fractions lookup 13 subtable" three fraction four.sups
Ligature2: "'frac' Diagonal Fractions lookup 13 subtable" three fraction fourinferior
Ligature2: "'frac' Diagonal Fractions lookup 13 subtable" three fraction foursuperior
Ligature2: "'frac' Diagonal Fractions lookup 13 subtable" three fraction four
EndChar

StartChar: questiondown
Encoding: 191 191 154
Width: 588
VWidth: 1177
Flags: W
LayerCount: 2
Fore
SplineSet
435 286 m 1,0,-1
 431 263 l 2,1,2
 426 228 426 228 405.5 200.5 c 128,-1,3
 385 173 385 173 358 149 c 128,-1,4
 331 125 331 125 301 103.5 c 128,-1,5
 271 82 271 82 245.5 59.5 c 128,-1,6
 220 37 220 37 203.5 11.5 c 128,-1,7
 187 -14 187 -14 187 -45 c 0,8,9
 187 -79 187 -79 209 -99.5 c 128,-1,10
 231 -120 231 -120 280 -120 c 0,11,12
 314 -120 314 -120 346.5 -113 c 128,-1,13
 379 -106 379 -106 417 -87 c 1,14,-1
 428 -163 l 1,15,16
 399 -178 399 -178 355.5 -189 c 128,-1,17
 312 -200 312 -200 266 -200 c 0,18,19
 232 -200 232 -200 201 -193 c 128,-1,20
 170 -186 170 -186 145 -169.5 c 128,-1,21
 120 -153 120 -153 105.5 -126 c 128,-1,22
 91 -99 91 -99 91 -58 c 0,23,24
 91 -14 91 -14 108 18.5 c 128,-1,25
 125 51 125 51 151.5 77.5 c 128,-1,26
 178 104 178 104 209.5 126 c 128,-1,27
 241 148 241 148 269.5 172 c 128,-1,28
 298 196 298 196 320 223 c 128,-1,29
 342 250 342 250 349 286 c 1,30,-1
 435 286 l 1,0,-1
438 548 m 256,31,32
 469 548 469 548 488.5 531 c 128,-1,33
 508 514 508 514 508 477 c 0,34,35
 508 435 508 435 483.5 412 c 128,-1,36
 459 389 459 389 426 389 c 0,37,38
 395 389 395 389 375 407 c 128,-1,39
 355 425 355 425 355 461 c 0,40,41
 355 502 355 502 381 525 c 128,-1,42
 407 548 407 548 438 548 c 256,31,32
EndSplineSet
Substitution2: "'case' Case-Sensitive Forms lookup 17 subtable" Questiondown
EndChar

StartChar: Aring
Encoding: 197 197 160
Width: 588
VWidth: 1177
Flags: W
LayerCount: 2
Fore
SplineSet
451 0 m 1,0,-1
 452 191 l 1,1,-1
 172 191 l 1,2,-1
 82 0 l 1,3,-1
 -15 0 l 1,4,5
 20 72 20 72 65 158.5 c 128,-1,6
 110 245 110 245 160 337.5 c 128,-1,7
 210 430 210 430 262 522.5 c 128,-1,8
 314 615 314 615 366 698 c 1,9,10
 353 712 353 712 345 731.5 c 128,-1,11
 337 751 337 751 337 775 c 0,12,13
 337 824 337 824 369.5 853 c 128,-1,14
 402 882 402 882 445 882 c 256,15,16
 489 882 489 882 521.5 853 c 128,-1,17
 554 824 554 824 554 775 c 0,18,19
 554 748 554 748 541.5 722.5 c 128,-1,20
 529 697 529 697 506 683 c 1,21,22
 515 602 515 602 523 510.5 c 128,-1,23
 531 419 531 419 537 328.5 c 128,-1,24
 543 238 543 238 546.5 153 c 128,-1,25
 550 68 550 68 552 0 c 1,26,-1
 451 0 l 1,0,-1
420 644 m 1,27,28
 375 570 375 570 321 472.5 c 128,-1,29
 267 375 267 375 213 271 c 1,30,-1
 449 271 l 1,31,32
 447 377 447 377 438 475 c 128,-1,33
 429 573 429 573 420 644 c 1,27,28
501 775 m 256,34,35
 501 802 501 802 485 817.5 c 128,-1,36
 469 833 469 833 445 833 c 256,37,38
 421 833 421 833 405.5 817.5 c 128,-1,39
 390 802 390 802 390 775 c 256,40,41
 390 748 390 748 406 732.5 c 128,-1,42
 422 717 422 717 445 717 c 256,43,44
 469 717 469 717 485 732.5 c 128,-1,45
 501 748 501 748 501 775 c 256,34,35
EndSplineSet
EndChar

StartChar: AE
Encoding: 198 198 161
Width: 588
VWidth: 1177
Flags: W
LayerCount: 2
Fore
SplineSet
289 0 m 1,0,-1
 336 191 l 1,1,-1
 193 191 l 1,2,-1
 104 0 l 1,3,-1
 9 0 l 1,4,5
 109 205 109 205 207 384.5 c 128,-1,6
 305 564 305 564 410 729 c 1,7,-1
 708 729 l 1,8,-1
 688 647 l 1,9,-1
 537 647 l 1,10,-1
 484 423 l 1,11,-1
 607 423 l 1,12,-1
 587 340 l 1,13,-1
 464 340 l 1,14,-1
 402 82 l 1,15,-1
 568 82 l 1,16,-1
 548 0 l 1,17,-1
 289 0 l 1,0,-1
450 667 m 1,18,19
 391 563 391 563 335 460.5 c 128,-1,20
 279 358 279 358 234 271 c 1,21,-1
 355 271 l 1,22,-1
 450 667 l 1,18,19
EndSplineSet
EndChar

StartChar: Ccedilla
Encoding: 199 199 162
Width: 588
VWidth: 1177
Flags: W
LayerCount: 2
Fore
SplineSet
330 -40 m 1,0,1
 351 -52 351 -52 361.5 -65.5 c 128,-1,2
 372 -79 372 -79 372 -104 c 0,3,4
 372 -150 372 -150 339 -174.5 c 128,-1,5
 306 -199 306 -199 250 -199 c 0,6,7
 219 -199 219 -199 198.5 -194.5 c 128,-1,8
 178 -190 178 -190 165 -183 c 1,9,-1
 188 -125 l 1,10,11
 197 -130 197 -130 211 -133.5 c 128,-1,12
 225 -137 225 -137 245 -137 c 0,13,14
 263 -137 263 -137 274 -131.5 c 128,-1,15
 285 -126 285 -126 285 -111 c 0,16,17
 285 -93 285 -93 271.5 -85 c 128,-1,18
 258 -77 258 -77 243 -73 c 1,19,20
 250 -60 250 -60 261 -43.5 c 128,-1,21
 272 -27 272 -27 283 -11 c 1,22,23
 201 3 201 3 153 68.5 c 128,-1,24
 105 134 105 134 105 238 c 0,25,26
 105 331 105 331 132 422.5 c 128,-1,27
 159 514 159 514 210 585.5 c 128,-1,28
 261 657 261 657 334.5 701.5 c 128,-1,29
 408 746 408 746 499 746 c 0,30,31
 570 746 570 746 613 727 c 128,-1,32
 656 708 656 708 676 691 c 1,33,-1
 630 614 l 1,34,35
 610 632 610 632 572 646 c 128,-1,36
 534 660 534 660 492 660 c 0,37,38
 424 660 424 660 370.5 624.5 c 128,-1,39
 317 589 317 589 280 531 c 128,-1,40
 243 473 243 473 223 401 c 128,-1,41
 203 329 203 329 203 253 c 0,42,43
 203 168 203 168 240.5 119.5 c 128,-1,44
 278 71 278 71 350 71 c 0,45,46
 407 71 407 71 450.5 85.5 c 128,-1,47
 494 100 494 100 515 113 c 1,48,-1
 525 31 l 1,49,50
 518 25 518 25 502 18 c 128,-1,51
 486 11 486 11 462.5 3.5 c 128,-1,52
 439 -4 439 -4 409.5 -9 c 128,-1,53
 380 -14 380 -14 347 -15 c 1,54,-1
 330 -40 l 1,0,1
EndSplineSet
EndChar

StartChar: Eth
Encoding: 208 208 171
Width: 588
VWidth: 1177
Flags: W
LayerCount: 2
Fore
SplineSet
615 477 m 0,0,1
 615 384 615 384 592 297 c 128,-1,2
 569 210 569 210 520.5 142.5 c 128,-1,3
 472 75 472 75 397.5 34.5 c 128,-1,4
 323 -6 323 -6 220 -6 c 0,5,6
 186 -6 186 -6 149.5 -2.5 c 128,-1,7
 113 1 113 1 82 11 c 1,8,-1
 160 340 l 1,9,-1
 77 340 l 1,10,-1
 97 419 l 1,11,-1
 180 419 l 1,12,-1
 251 718 l 1,13,14
 323 736 323 736 389 736 c 0,15,16
 495 736 495 736 555 668.5 c 128,-1,17
 615 601 615 601 615 477 c 0,0,1
197 84 m 1,18,19
 204 82 204 82 217 80 c 128,-1,20
 230 78 230 78 240 78 c 0,21,22
 299 78 299 78 349.5 106 c 128,-1,23
 400 134 400 134 437.5 185.5 c 128,-1,24
 475 237 475 237 496 308.5 c 128,-1,25
 517 380 517 380 517 466 c 0,26,27
 517 556 517 556 483 604.5 c 128,-1,28
 449 653 449 653 376 653 c 0,29,30
 350 653 350 653 331 649 c 1,31,-1
 277 419 l 1,32,-1
 371 419 l 1,33,-1
 351 340 l 1,34,-1
 258 340 l 1,35,-1
 197 84 l 1,18,19
EndSplineSet
EndChar

StartChar: multiply
Encoding: 215 215 178
Width: 588
VWidth: 1177
Flags: W
LayerCount: 2
Fore
SplineSet
342 251 m 1,0,-1
 152 97 l 1,1,-1
 104 160 l 1,2,-1
 294 314 l 1,3,-1
 180 466 l 1,4,-1
 246 519 l 1,5,-1
 360 369 l 1,6,-1
 550 523 l 1,7,-1
 600 459 l 1,8,-1
 408 305 l 1,9,-1
 523 153 l 1,10,-1
 457 100 l 1,11,-1
 342 251 l 1,0,-1
EndSplineSet
EndChar

StartChar: Oslash
Encoding: 216 216 179
Width: 588
VWidth: 1177
Flags: W
LayerCount: 2
Fore
SplineSet
436 746 m 0,0,1
 509 746 509 746 556 706 c 1,2,-1
 601 767 l 1,3,-1
 661 723 l 1,4,-1
 603 644 l 1,5,6
 627 591 627 591 627 514 c 0,7,8
 627 470 627 470 618.5 414 c 128,-1,9
 610 358 610 358 592.5 299 c 128,-1,10
 575 240 575 240 547 183.5 c 128,-1,11
 519 127 519 127 480.5 83 c 128,-1,12
 442 39 442 39 391 12 c 128,-1,13
 340 -15 340 -15 277 -15 c 0,14,15
 202 -15 202 -15 153 25 c 1,16,-1
 107 -39 l 1,17,-1
 48 4 l 1,18,-1
 108 86 l 1,19,20
 96 112 96 112 90 144.5 c 128,-1,21
 84 177 84 177 84 217 c 0,22,23
 84 261 84 261 92 316.5 c 128,-1,24
 100 372 100 372 117.5 431 c 128,-1,25
 135 490 135 490 163.5 546.5 c 128,-1,26
 192 603 192 603 231 647 c 128,-1,27
 270 691 270 691 321 718.5 c 128,-1,28
 372 746 372 746 436 746 c 0,0,1
534 506 m 0,29,30
 534 515 534 515 533 525.5 c 128,-1,31
 532 536 532 536 531 545 c 1,32,-1
 208 101 l 1,33,34
 236 68 236 68 289 68 c 0,35,36
 347 68 347 68 392 111 c 128,-1,37
 437 154 437 154 469 219.5 c 128,-1,38
 501 285 501 285 517.5 362 c 128,-1,39
 534 439 534 439 534 506 c 0,29,30
424 662 m 0,40,41
 366 662 366 662 321 619 c 128,-1,42
 276 576 276 576 244 510.5 c 128,-1,43
 212 445 212 445 195.5 368 c 128,-1,44
 179 291 179 291 179 224 c 0,45,46
 179 215 179 215 179 204.5 c 128,-1,47
 179 194 179 194 180 185 c 1,48,-1
 502 630 l 1,49,50
 473 662 473 662 424 662 c 0,40,41
EndSplineSet
EndChar

StartChar: Thorn
Encoding: 222 222 185
Width: 588
VWidth: 1177
Flags: W
LayerCount: 2
Fore
SplineSet
238 729 m 1,0,-1
 335 729 l 1,1,-1
 306 609 l 1,2,3
 343 613 343 613 378 612 c 0,4,5
 495 612 495 612 552.5 561 c 128,-1,6
 610 510 610 510 610 428 c 0,7,8
 610 347 610 347 577.5 293 c 128,-1,9
 545 239 545 239 493 207.5 c 128,-1,10
 441 176 441 176 374 163 c 128,-1,11
 307 150 307 150 239 150 c 2,12,-1
 196 150 l 1,13,-1
 159 0 l 1,14,-1
 62 0 l 1,15,-1
 238 729 l 1,0,-1
216 234 m 1,16,-1
 261 234 l 2,17,18
 309 234 309 234 353.5 243.5 c 128,-1,19
 398 253 398 253 432 275 c 128,-1,20
 466 297 466 297 486 331.5 c 128,-1,21
 506 366 506 366 506 418 c 0,22,23
 506 462 506 462 482 484 c 128,-1,24
 458 506 458 506 424 515.5 c 128,-1,25
 390 525 390 525 351 524.5 c 128,-1,26
 312 524 312 524 284 522 c 1,27,-1
 216 234 l 1,16,-1
EndSplineSet
EndChar

StartChar: germandbls
Encoding: 223 223 186
Width: 588
VWidth: 1177
Flags: W
LayerCount: 2
Fore
SplineSet
206 545 m 2,0,1
 221 610 221 610 240 660 c 128,-1,2
 259 710 259 710 286.5 745 c 128,-1,3
 314 780 314 780 352.5 798 c 128,-1,4
 391 816 391 816 445 816 c 0,5,6
 529 816 529 816 568 776 c 128,-1,7
 607 736 607 736 607 674 c 0,8,9
 607 643 607 643 600.5 620.5 c 128,-1,10
 594 598 594 598 580.5 578 c 128,-1,11
 567 558 567 558 546 538.5 c 128,-1,12
 525 519 525 519 497 495 c 0,13,14
 479 479 479 479 466 467.5 c 128,-1,15
 453 456 453 456 444.5 444.5 c 128,-1,16
 436 433 436 433 432 421.5 c 128,-1,17
 428 410 428 410 428 395 c 0,18,19
 428 379 428 379 439.5 365.5 c 128,-1,20
 451 352 451 352 468.5 339 c 128,-1,21
 486 326 486 326 506.5 312.5 c 128,-1,22
 527 299 527 299 544.5 280 c 128,-1,23
 562 261 562 261 573.5 236 c 128,-1,24
 585 211 585 211 585 177 c 0,25,26
 585 128 585 128 566.5 91.5 c 128,-1,27
 548 55 548 55 516.5 31.5 c 128,-1,28
 485 8 485 8 445 -3 c 128,-1,29
 405 -14 405 -14 363 -14 c 0,30,31
 326 -14 326 -14 297.5 -7.5 c 128,-1,32
 269 -1 269 -1 238 14 c 1,33,-1
 274 99 l 1,34,35
 298 84 298 84 320 77.5 c 128,-1,36
 342 71 342 71 372 71 c 0,37,38
 394 71 394 71 415.5 76 c 128,-1,39
 437 81 437 81 453.5 93.5 c 128,-1,40
 470 106 470 106 479.5 125 c 128,-1,41
 489 144 489 144 489 171 c 256,42,43
 489 198 489 198 477 215.5 c 128,-1,44
 465 233 465 233 447.5 246.5 c 128,-1,45
 430 260 430 260 409.5 272 c 128,-1,46
 389 284 389 284 371 299 c 128,-1,47
 353 314 353 314 341.5 335.5 c 128,-1,48
 330 357 330 357 330 389 c 0,49,50
 330 436 330 436 358 469 c 128,-1,51
 386 502 386 502 420.5 530.5 c 128,-1,52
 455 559 455 559 483 589.5 c 128,-1,53
 511 620 511 620 511 663 c 0,54,55
 511 732 511 732 439 733 c 0,56,57
 384 733 384 733 353 680.5 c 128,-1,58
 322 628 322 628 303 543 c 2,59,-1
 191 21 l 2,60,61
 178 -38 178 -38 161 -79.5 c 128,-1,62
 144 -121 144 -121 117.5 -147.5 c 128,-1,63
 91 -174 91 -174 54.5 -186 c 128,-1,64
 18 -198 18 -198 -34 -198 c 0,65,66
 -52 -198 -52 -198 -74.5 -193 c 128,-1,67
 -97 -188 -97 -188 -110 -179 c 1,68,-1
 -87 -98 l 1,69,70
 -62 -113 -62 -113 -19 -113 c 0,71,72
 29 -113 29 -113 54.5 -76.5 c 128,-1,73
 80 -40 80 -40 93 20 c 2,74,-1
 206 545 l 2,0,1
EndSplineSet
EndChar

StartChar: ae
Encoding: 230 230 193
Width: 588
VWidth: 1177
Flags: W
LayerCount: 2
Fore
SplineSet
313 93 m 1,0,1
 300 68 300 68 282 48 c 128,-1,2
 264 28 264 28 242.5 14.5 c 128,-1,3
 221 1 221 1 199 -6 c 128,-1,4
 177 -13 177 -13 155 -13 c 0,5,6
 114 -13 114 -13 84 16.5 c 128,-1,7
 54 46 54 46 54 110 c 0,8,9
 54 147 54 147 69.5 185 c 128,-1,10
 85 223 85 223 116 256 c 128,-1,11
 147 289 147 289 195.5 310.5 c 128,-1,12
 244 332 244 332 310 335 c 1,13,14
 311 343 311 343 311 350 c 128,-1,15
 311 357 311 357 311 366 c 0,16,17
 311 421 311 421 290 448 c 128,-1,18
 269 475 269 475 232 475 c 256,19,20
 195 475 195 475 147 448 c 1,21,-1
 153 529 l 1,22,23
 179 545 179 545 205 552 c 128,-1,24
 231 559 231 559 256 559 c 0,25,26
 277 559 277 559 298 553.5 c 128,-1,27
 319 548 319 548 338 535.5 c 128,-1,28
 357 523 357 523 370.5 503 c 128,-1,29
 384 483 384 483 389 453 c 1,30,31
 414 504 414 504 456.5 531.5 c 128,-1,32
 499 559 499 559 541 559 c 256,33,34
 582 559 582 559 612 530 c 128,-1,35
 642 501 642 501 642 437 c 0,36,37
 642 400 642 400 627 362 c 128,-1,38
 612 324 612 324 580.5 291.5 c 128,-1,39
 549 259 549 259 500.5 237.5 c 128,-1,40
 452 216 452 216 385 212 c 1,41,-1
 385 181 l 2,42,43
 385 124 385 124 406.5 98.5 c 128,-1,44
 428 73 428 73 464 73 c 256,45,46
 501 73 501 73 549 100 c 1,47,-1
 543 18 l 1,48,49
 517 2 517 2 491 -5.5 c 128,-1,50
 465 -13 465 -13 441 -13 c 0,51,52
 420 -13 420 -13 399.5 -7 c 128,-1,53
 379 -1 379 -1 361.5 11.5 c 128,-1,54
 344 24 344 24 331 44 c 128,-1,55
 318 64 318 64 313 93 c 1,0,1
184 69 m 0,56,57
 198 69 198 69 215 81 c 128,-1,58
 232 93 232 93 248.5 116 c 128,-1,59
 265 139 265 139 279 173 c 128,-1,60
 293 207 293 207 302 253 c 1,61,62
 258 251 258 251 228.5 239 c 128,-1,63
 199 227 199 227 181 209.5 c 128,-1,64
 163 192 163 192 155 171 c 128,-1,65
 147 150 147 150 147 131 c 0,66,67
 147 100 147 100 157.5 84.5 c 128,-1,68
 168 69 168 69 184 69 c 0,56,57
512 477 m 0,69,70
 498 477 498 477 481 465 c 128,-1,71
 464 453 464 453 447.5 430.5 c 128,-1,72
 431 408 431 408 417 373.5 c 128,-1,73
 403 339 403 339 395 293 c 1,74,75
 439 294 439 294 468 306.5 c 128,-1,76
 497 319 497 319 515.5 337.5 c 128,-1,77
 534 356 534 356 541.5 376.5 c 128,-1,78
 549 397 549 397 549 417 c 0,79,80
 549 448 549 448 538.5 462.5 c 128,-1,81
 528 477 528 477 512 477 c 0,69,70
EndSplineSet
Substitution2: "'case' Case-Sensitive Forms lookup 18 subtable" AE
EndChar

StartChar: ccedilla
Encoding: 231 231 194
Width: 588
VWidth: 1177
Flags: W
LayerCount: 2
Fore
SplineSet
306 -40 m 1,0,1
 327 -52 327 -52 338 -65.5 c 128,-1,2
 349 -79 349 -79 349 -104 c 0,3,4
 349 -150 349 -150 316 -174.5 c 128,-1,5
 283 -199 283 -199 226 -199 c 0,6,7
 195 -199 195 -199 174.5 -194.5 c 128,-1,8
 154 -190 154 -190 141 -183 c 1,9,-1
 165 -125 l 1,10,11
 174 -130 174 -130 187.5 -133.5 c 128,-1,12
 201 -137 201 -137 221 -137 c 0,13,14
 239 -137 239 -137 250 -131.5 c 128,-1,15
 261 -126 261 -126 261 -111 c 0,16,17
 261 -93 261 -93 247.5 -85 c 128,-1,18
 234 -77 234 -77 219 -73 c 1,19,20
 226 -60 226 -60 238.5 -42.5 c 128,-1,21
 251 -25 251 -25 261 -8 c 1,22,23
 171 8 171 8 127.5 62.5 c 128,-1,24
 84 117 84 117 84 196 c 0,25,26
 84 268 84 268 108 333.5 c 128,-1,27
 132 399 132 399 178.5 450 c 128,-1,28
 225 501 225 501 292.5 531 c 128,-1,29
 360 561 360 561 449 561 c 0,30,31
 497 561 497 561 533.5 554.5 c 128,-1,32
 570 548 570 548 602 535 c 1,33,-1
 565 452 l 1,34,35
 545 461 545 461 517.5 469.5 c 128,-1,36
 490 478 490 478 441 478 c 0,37,38
 381 478 381 478 332.5 455 c 128,-1,39
 284 432 284 432 250.5 394 c 128,-1,40
 217 356 217 356 199 307 c 128,-1,41
 181 258 181 258 181 205 c 0,42,43
 181 178 181 178 188.5 154 c 128,-1,44
 196 130 196 130 214.5 111 c 128,-1,45
 233 92 233 92 265.5 81.5 c 128,-1,46
 298 71 298 71 347 71 c 0,47,48
 373 71 373 71 398 74.5 c 128,-1,49
 423 78 423 78 444 84 c 128,-1,50
 465 90 465 90 481 95.5 c 128,-1,51
 497 101 497 101 505 107 c 1,52,-1
 514 25 l 1,53,54
 493 12 493 12 445 -1 c 128,-1,55
 397 -14 397 -14 330 -14 c 2,56,-1
 325 -14 l 1,57,-1
 306 -40 l 1,0,1
EndSplineSet
Substitution2: "'case' Case-Sensitive Forms lookup 18 subtable" Ccedilla
EndChar

StartChar: eth
Encoding: 240 240 203
Width: 588
VWidth: 1177
Flags: W
LayerCount: 2
Fore
SplineSet
588 449 m 0,0,1
 588 417 588 417 584 370.5 c 128,-1,2
 580 324 580 324 567.5 272.5 c 128,-1,3
 555 221 555 221 533 170 c 128,-1,4
 511 119 511 119 476.5 78 c 128,-1,5
 442 37 442 37 392.5 11.5 c 128,-1,6
 343 -14 343 -14 274 -14 c 0,7,8
 235 -14 235 -14 202.5 1 c 128,-1,9
 170 16 170 16 145.5 43.5 c 128,-1,10
 121 71 121 71 107.5 107.5 c 128,-1,11
 94 144 94 144 94 185 c 0,12,13
 94 254 94 254 113 315 c 128,-1,14
 132 376 132 376 168.5 420.5 c 128,-1,15
 205 465 205 465 259 490.5 c 128,-1,16
 313 516 313 516 384 516 c 0,17,18
 418 516 418 516 445 506 c 128,-1,19
 472 496 472 496 490 484 c 1,20,21
 488 518 488 518 480.5 553 c 128,-1,22
 473 588 473 588 458 623 c 1,23,-1
 322 580 l 1,24,-1
 313 645 l 1,25,-1
 429 683 l 1,26,27
 413 710 413 710 394.5 728.5 c 128,-1,28
 376 747 376 747 355 767 c 1,29,-1
 428 816 l 1,30,31
 448 801 448 801 472 775 c 128,-1,32
 496 749 496 749 519 711 c 1,33,-1
 657 755 l 1,34,-1
 665 689 l 1,35,-1
 550 653 l 1,36,37
 566 612 566 612 577 561 c 128,-1,38
 588 510 588 510 588 449 c 0,0,1
289 68 m 256,39,40
 335 68 335 68 370 96.5 c 128,-1,41
 405 125 405 125 430 170.5 c 128,-1,42
 455 216 455 216 469 273 c 128,-1,43
 483 330 483 330 488 389 c 1,44,45
 463 413 463 413 434 423 c 128,-1,46
 405 433 405 433 377 433 c 0,47,48
 287 433 287 433 239.5 366.5 c 128,-1,49
 192 300 192 300 192 186 c 0,50,51
 192 134 192 134 217.5 101 c 128,-1,52
 243 68 243 68 289 68 c 256,39,40
EndSplineSet
Substitution2: "'case' Case-Sensitive Forms lookup 18 subtable" Eth
EndChar

StartChar: divide
Encoding: 247 247 210
Width: 588
VWidth: 1177
Flags: W
LayerCount: 2
Fore
SplineSet
386 127 m 0,0,1
 386 113 386 113 380.5 97.5 c 128,-1,2
 375 82 375 82 363.5 70 c 128,-1,3
 352 58 352 58 337 50 c 128,-1,4
 322 42 322 42 304 42 c 0,5,6
 277 42 277 42 261 59.5 c 128,-1,7
 245 77 245 77 245 100 c 0,8,9
 245 133 245 133 269 159.5 c 128,-1,10
 293 186 293 186 330 186 c 0,11,12
 357 186 357 186 371.5 169 c 128,-1,13
 386 152 386 152 386 127 c 0,0,1
455 518 m 0,14,15
 455 503 455 503 449 487.5 c 128,-1,16
 443 472 443 472 432.5 460 c 128,-1,17
 422 448 422 448 406.5 440 c 128,-1,18
 391 432 391 432 372 432 c 0,19,20
 344 432 344 432 328.5 449 c 128,-1,21
 313 466 313 466 313 491 c 0,22,23
 313 525 313 525 338 550.5 c 128,-1,24
 363 576 363 576 398 576 c 0,25,26
 425 576 425 576 440 559.5 c 128,-1,27
 455 543 455 543 455 518 c 0,14,15
595 351 m 1,28,-1
 575 269 l 1,29,-1
 104 269 l 1,30,-1
 122 351 l 1,31,-1
 595 351 l 1,28,-1
EndSplineSet
EndChar

StartChar: oslash
Encoding: 248 248 211
Width: 588
VWidth: 1177
Flags: W
LayerCount: 2
Fore
SplineSet
655 538 m 1,0,-1
 577 459 l 1,1,2
 585 440 585 440 590 418 c 128,-1,3
 595 396 595 396 595 369 c 0,4,5
 595 308 595 308 578 240.5 c 128,-1,6
 561 173 561 173 522.5 116.5 c 128,-1,7
 484 60 484 60 424 23.5 c 128,-1,8
 364 -13 364 -13 279 -13 c 0,9,10
 198 -13 198 -13 151 31 c 1,11,-1
 84 -38 l 1,12,-1
 34 8 l 1,13,-1
 112 86 l 1,14,15
 94 126 94 126 94 178 c 0,16,17
 94 239 94 239 111 306 c 128,-1,18
 128 373 128 373 166.5 429.5 c 128,-1,19
 205 486 205 486 265 522.5 c 128,-1,20
 325 559 325 559 410 559 c 0,21,22
 490 559 490 559 537 516 c 1,23,-1
 604 584 l 1,24,-1
 655 538 l 1,0,-1
187 186 m 0,25,26
 187 180 187 180 187 175 c 128,-1,27
 187 170 187 170 188 164 c 1,28,-1
 471 449 l 1,29,30
 446 474 446 474 393 473 c 0,31,32
 346 473 346 473 308 446.5 c 128,-1,33
 270 420 270 420 243.5 378.5 c 128,-1,34
 217 337 217 337 202 285.5 c 128,-1,35
 187 234 187 234 187 186 c 0,25,26
296 74 m 0,36,37
 343 74 343 74 381 100.5 c 128,-1,38
 419 127 419 127 445.5 168.5 c 128,-1,39
 472 210 472 210 487 261 c 128,-1,40
 502 312 502 312 502 360 c 0,41,42
 502 366 502 366 501.5 371.5 c 128,-1,43
 501 377 501 377 501 383 c 2,44,-1
 217 97 l 1,45,46
 245 74 245 74 296 74 c 0,36,37
EndSplineSet
Substitution2: "'case' Case-Sensitive Forms lookup 18 subtable" Oslash
EndChar

StartChar: thorn
Encoding: 254 254 217
Width: 588
VWidth: 1177
Flags: W
LayerCount: 2
Fore
SplineSet
292 525 m 1,0,1
 330 549 330 549 365 554 c 128,-1,2
 400 559 400 559 423 559 c 0,3,4
 464 559 464 559 496.5 544.5 c 128,-1,5
 529 530 529 530 550.5 504.5 c 128,-1,6
 572 479 572 479 583.5 444 c 128,-1,7
 595 409 595 409 595 367 c 0,8,9
 595 294 595 294 571.5 226 c 128,-1,10
 548 158 548 158 501.5 105 c 128,-1,11
 455 52 455 52 385.5 20 c 128,-1,12
 316 -12 316 -12 223 -12 c 0,13,14
 211 -12 211 -12 192 -10.5 c 128,-1,15
 173 -9 173 -9 163 -7 c 1,16,-1
 118 -194 l 1,17,-1
 21 -194 l 1,18,-1
 260 800 l 1,19,-1
 360 816 l 1,20,-1
 292 525 l 1,0,1
183 79 m 1,21,22
 194 77 194 77 211.5 75 c 128,-1,23
 229 73 229 73 240 73 c 0,24,25
 297 73 297 73 344 96.5 c 128,-1,26
 391 120 391 120 425 159 c 128,-1,27
 459 198 459 198 478.5 249 c 128,-1,28
 498 300 498 300 498 356 c 0,29,30
 498 380 498 380 493 401.5 c 128,-1,31
 488 423 488 423 475.5 440 c 128,-1,32
 463 457 463 457 443 467 c 128,-1,33
 423 477 423 477 393 477 c 0,34,35
 367 477 367 477 333.5 468 c 128,-1,36
 300 459 300 459 269 436 c 1,37,-1
 183 79 l 1,21,22
EndSplineSet
Substitution2: "'case' Case-Sensitive Forms lookup 18 subtable" Thorn
EndChar

StartChar: Aogonek
Encoding: 260 260 223
Width: 588
VWidth: 1177
Flags: W
LayerCount: 2
Fore
SplineSet
461 -197 m 0,0,1
 402 -197 402 -197 379 -178.5 c 128,-1,2
 356 -160 356 -160 356 -131 c 0,3,4
 356 -103 356 -103 374.5 -76 c 128,-1,5
 393 -49 393 -49 419 -28 c 0,6,7
 430 -19 430 -19 439 -12.5 c 128,-1,8
 448 -6 448 -6 456 0 c 1,9,-1
 451 0 l 1,10,-1
 452 191 l 1,11,-1
 172 191 l 1,12,-1
 82 0 l 1,13,-1
 -15 0 l 1,14,15
 24 78 24 78 71 168.5 c 128,-1,16
 118 259 118 259 169 354.5 c 128,-1,17
 220 450 220 450 275 546 c 128,-1,18
 330 642 330 642 385 729 c 1,19,-1
 501 729 l 1,20,21
 514 642 514 642 522.5 546 c 128,-1,22
 531 450 531 450 537 354.5 c 128,-1,23
 543 259 543 259 546.5 168.5 c 128,-1,24
 550 78 550 78 552 0 c 1,25,26
 539 -8 539 -8 525.5 -18 c 128,-1,27
 512 -28 512 -28 497 -41 c 0,28,29
 484 -50 484 -50 466.5 -67.5 c 128,-1,30
 449 -85 449 -85 449 -106 c 0,31,32
 449 -117 449 -117 457.5 -123.5 c 128,-1,33
 466 -130 466 -130 488 -130 c 0,34,35
 497 -130 497 -130 508 -127.5 c 128,-1,36
 519 -125 519 -125 529 -122 c 1,37,-1
 521 -185 l 1,38,39
 495 -197 495 -197 461 -197 c 0,0,1
420 644 m 1,40,41
 375 570 375 570 321 472.5 c 128,-1,42
 267 375 267 375 213 271 c 1,43,-1
 449 271 l 1,44,45
 447 377 447 377 438 475 c 128,-1,46
 429 573 429 573 420 644 c 1,40,41
EndSplineSet
EndChar

StartChar: aogonek
Encoding: 261 261 224
Width: 588
VWidth: 1177
Flags: W
LayerCount: 2
Fore
SplineSet
428 -197 m 0,0,1
 369 -197 369 -197 346 -178.5 c 128,-1,2
 323 -160 323 -160 323 -131 c 0,3,4
 323 -103 323 -103 341.5 -76 c 128,-1,5
 360 -49 360 -49 386 -28 c 0,6,7
 401 -15 401 -15 414.5 -7 c 128,-1,8
 428 1 428 1 437 7 c 1,9,10
 433 16 433 16 430.5 27 c 128,-1,11
 428 38 428 38 425 49 c 1,12,13
 401 28 401 28 359.5 7.5 c 128,-1,14
 318 -13 318 -13 261 -13 c 0,15,16
 169 -13 169 -13 126.5 42.5 c 128,-1,17
 84 98 84 98 84 183 c 0,18,19
 84 254 84 254 107.5 321 c 128,-1,20
 131 388 131 388 178.5 441 c 128,-1,21
 226 494 226 494 298 526 c 128,-1,22
 370 558 370 558 465 558 c 0,23,24
 479 558 479 558 497.5 557 c 128,-1,25
 516 556 516 556 535 552.5 c 128,-1,26
 554 549 554 549 572 543.5 c 128,-1,27
 590 538 590 538 604 531 c 1,28,-1
 524 201 l 2,29,30
 518 176 518 176 514 154.5 c 128,-1,31
 510 133 510 133 510 108 c 256,32,33
 510 83 510 83 514.5 59 c 128,-1,34
 519 35 519 35 529 6 c 1,35,36
 516 -3 516 -3 499.5 -14 c 128,-1,37
 483 -25 483 -25 464 -41 c 0,38,39
 451 -50 451 -50 433.5 -67.5 c 128,-1,40
 416 -85 416 -85 416 -106 c 0,41,42
 416 -117 416 -117 424.5 -123.5 c 128,-1,43
 433 -130 433 -130 455 -130 c 0,44,45
 464 -130 464 -130 475 -127.5 c 128,-1,46
 486 -125 486 -125 496 -122 c 1,47,-1
 488 -185 l 1,48,49
 462 -197 462 -197 428 -197 c 0,0,1
282 67 m 0,50,51
 327 67 327 67 361.5 86 c 128,-1,52
 396 105 396 105 419 131 c 1,53,54
 420 149 420 149 423 171 c 128,-1,55
 426 193 426 193 431 213 c 2,56,-1
 496 471 l 1,57,58
 490 473 490 473 473.5 475 c 128,-1,59
 457 477 457 477 448 477 c 0,60,61
 388 477 388 477 339 453.5 c 128,-1,62
 290 430 290 430 254.5 390.5 c 128,-1,63
 219 351 219 351 200 300 c 128,-1,64
 181 249 181 249 181 193 c 0,65,66
 181 166 181 166 186 143 c 128,-1,67
 191 120 191 120 202 103.5 c 128,-1,68
 213 87 213 87 233 77 c 128,-1,69
 253 67 253 67 282 67 c 0,50,51
EndSplineSet
Substitution2: "'case' Case-Sensitive Forms lookup 18 subtable" Aogonek
EndChar

StartChar: dcaron
Encoding: 271 271 234
Width: 588
VWidth: 1177
Flags: W
LayerCount: 2
Fore
SplineSet
437 108 m 256,0,1
 437 83 437 83 441 59 c 128,-1,2
 445 35 445 35 456 6 c 1,3,-1
 369 -6 l 1,4,5
 358 15 358 15 351 49 c 1,6,7
 330 28 330 28 295.5 7.5 c 128,-1,8
 261 -13 261 -13 206 -13 c 0,9,10
 167 -13 167 -13 139.5 2.5 c 128,-1,11
 112 18 112 18 93 43 c 128,-1,12
 74 68 74 68 65.5 100.5 c 128,-1,13
 57 133 57 133 57 167 c 0,14,15
 57 239 57 239 78 309.5 c 128,-1,16
 99 380 99 380 141.5 435 c 128,-1,17
 184 490 184 490 248 524 c 128,-1,18
 312 558 312 558 398 558 c 0,19,20
 407 558 407 558 418.5 557.5 c 128,-1,21
 430 557 430 557 439 555 c 1,22,-1
 498 800 l 1,23,-1
 598 816 l 1,24,-1
 450 201 l 2,25,26
 444 176 444 176 440.5 154.5 c 128,-1,27
 437 133 437 133 437 108 c 256,0,1
225 67 m 0,28,29
 266 67 266 67 296 86 c 128,-1,30
 326 105 326 105 346 131 c 1,31,32
 347 149 347 149 349.5 171 c 128,-1,33
 352 193 352 193 358 213 c 2,34,-1
 422 471 l 2,35,36
 418 473 418 473 405.5 475 c 128,-1,37
 393 477 393 477 386 477 c 0,38,39
 333 477 333 477 289.5 452.5 c 128,-1,40
 246 428 246 428 216 386.5 c 128,-1,41
 186 345 186 345 169.5 291.5 c 128,-1,42
 153 238 153 238 153 180 c 0,43,44
 153 161 153 161 156.5 141 c 128,-1,45
 160 121 160 121 168.5 104.5 c 128,-1,46
 177 88 177 88 191 77.5 c 128,-1,47
 205 67 205 67 225 67 c 0,28,29
761 816 m 1,48,-1
 675 583 l 1,49,-1
 611 583 l 1,50,-1
 667 816 l 1,51,-1
 761 816 l 1,48,-1
EndSplineSet
Substitution2: "'case' Case-Sensitive Forms lookup 18 subtable" Dcaron
EndChar

StartChar: dcroat
Encoding: 273 273 236
Width: 588
VWidth: 1177
Flags: W
LayerCount: 2
Fore
SplineSet
344 718 m 1,0,-1
 542 718 l 1,1,-1
 562 800 l 1,2,-1
 662 816 l 1,3,-1
 637 718 l 1,4,-1
 716 718 l 1,5,-1
 698 645 l 1,6,-1
 621 645 l 1,7,-1
 514 201 l 2,8,9
 508 176 508 176 503.5 154.5 c 128,-1,10
 499 133 499 133 499 108 c 256,11,12
 499 83 499 83 504 59 c 128,-1,13
 509 35 509 35 518 6 c 1,14,-1
 432 -6 l 1,15,16
 426 5 426 5 421.5 19 c 128,-1,17
 417 33 417 33 415 49 c 1,18,19
 393 28 393 28 355 7.5 c 128,-1,20
 317 -13 317 -13 259 -13 c 0,21,22
 174 -13 174 -13 134 41 c 128,-1,23
 94 95 94 95 94 183 c 0,24,25
 94 254 94 254 117 321.5 c 128,-1,26
 140 389 140 389 185 441.5 c 128,-1,27
 230 494 230 494 297.5 526 c 128,-1,28
 365 558 365 558 456 558 c 0,29,30
 465 558 465 558 478 557.5 c 128,-1,31
 491 557 491 557 503 555 c 1,32,-1
 525 645 l 1,33,-1
 326 645 l 1,34,-1
 344 718 l 1,0,-1
278 67 m 0,35,36
 319 67 319 67 352.5 86 c 128,-1,37
 386 105 386 105 409 131 c 1,38,39
 410 149 410 149 413 171 c 128,-1,40
 416 193 416 193 420 213 c 2,41,-1
 485 471 l 1,42,43
 479 473 479 473 465 475 c 128,-1,44
 451 477 451 477 443 477 c 0,45,46
 386 477 386 477 339.5 453.5 c 128,-1,47
 293 430 293 430 260 390.5 c 128,-1,48
 227 351 227 351 209.5 300 c 128,-1,49
 192 249 192 249 192 193 c 0,50,51
 192 166 192 166 196 143 c 128,-1,52
 200 120 200 120 209.5 103.5 c 128,-1,53
 219 87 219 87 236 77 c 128,-1,54
 253 67 253 67 278 67 c 0,35,36
EndSplineSet
Substitution2: "'case' Case-Sensitive Forms lookup 18 subtable" Dcroat
EndChar

StartChar: Eogonek
Encoding: 280 280 243
Width: 588
VWidth: 1177
Flags: W
LayerCount: 2
Fore
SplineSet
419 -197 m 0,0,1
 360 -197 360 -197 337 -178.5 c 128,-1,2
 314 -160 314 -160 314 -131 c 0,3,4
 314 -103 314 -103 333 -76 c 128,-1,5
 352 -49 352 -49 378 -28 c 0,6,7
 389 -19 389 -19 397.5 -12.5 c 128,-1,8
 406 -6 406 -6 415 0 c 1,9,-1
 84 0 l 1,10,-1
 260 729 l 1,11,-1
 668 729 l 1,12,-1
 648 647 l 1,13,-1
 337 647 l 1,14,-1
 283 423 l 1,15,-1
 556 423 l 1,16,-1
 536 340 l 1,17,-1
 263 340 l 1,18,-1
 201 82 l 1,19,-1
 538 82 l 1,20,-1
 518 0 l 1,21,22
 504 -7 504 -7 488 -17 c 128,-1,23
 472 -27 472 -27 456 -40 c 0,24,25
 443 -49 443 -49 425.5 -67 c 128,-1,26
 408 -85 408 -85 408 -106 c 0,27,28
 408 -117 408 -117 416.5 -123.5 c 128,-1,29
 425 -130 425 -130 446 -130 c 0,30,31
 455 -130 455 -130 466.5 -127.5 c 128,-1,32
 478 -125 478 -125 488 -122 c 1,33,-1
 479 -185 l 1,34,35
 453 -197 453 -197 419 -197 c 0,0,1
EndSplineSet
EndChar

StartChar: eogonek
Encoding: 281 281 244
Width: 588
VWidth: 1177
Flags: W
LayerCount: 2
Fore
SplineSet
384 -197 m 0,0,1
 325 -197 325 -197 302 -178.5 c 128,-1,2
 279 -160 279 -160 279 -131 c 0,3,4
 279 -103 279 -103 298 -76 c 128,-1,5
 317 -49 317 -49 343 -28 c 2,6,-1
 362 -12 l 1,7,8
 349 -13 349 -13 336 -13.5 c 128,-1,9
 323 -14 323 -14 310 -14 c 0,10,11
 252 -14 252 -14 209.5 3 c 128,-1,12
 167 20 167 20 139 48.5 c 128,-1,13
 111 77 111 77 97.5 114 c 128,-1,14
 84 151 84 151 84 191 c 0,15,16
 84 265 84 265 107 332 c 128,-1,17
 130 399 130 399 173.5 449 c 128,-1,18
 217 499 217 499 278.5 529 c 128,-1,19
 340 559 340 559 418 559 c 0,20,21
 464 559 464 559 497 548 c 128,-1,22
 530 537 530 537 551 519 c 128,-1,23
 572 501 572 501 582 476 c 128,-1,24
 592 451 592 451 592 424 c 0,25,26
 592 350 592 350 554.5 308.5 c 128,-1,27
 517 267 517 267 457 246.5 c 128,-1,28
 397 226 397 226 323.5 220 c 128,-1,29
 250 214 250 214 179 212 c 1,30,31
 172 138 172 138 218 104.5 c 128,-1,32
 264 71 264 71 339 71 c 0,33,34
 364 71 364 71 390.5 75 c 128,-1,35
 417 79 417 79 440 84.5 c 128,-1,36
 463 90 463 90 480.5 96 c 128,-1,37
 498 102 498 102 505 107 c 1,38,-1
 514 25 l 1,39,40
 507 20 507 20 495 12.5 c 128,-1,41
 483 5 483 5 470 -4 c 128,-1,42
 457 -13 457 -13 443.5 -22.5 c 128,-1,43
 430 -32 430 -32 420 -40 c 0,44,45
 407 -49 407 -49 389.5 -67 c 128,-1,46
 372 -85 372 -85 372 -106 c 0,47,48
 372 -117 372 -117 381 -123.5 c 128,-1,49
 390 -130 390 -130 411 -130 c 0,50,51
 420 -130 420 -130 431.5 -127.5 c 128,-1,52
 443 -125 443 -125 452 -122 c 1,53,-1
 444 -185 l 1,54,55
 418 -197 418 -197 384 -197 c 0,0,1
191 287 m 1,56,57
 262 288 262 288 318.5 293.5 c 128,-1,58
 375 299 375 299 414 313 c 128,-1,59
 453 327 453 327 474.5 352.5 c 128,-1,60
 496 378 496 378 496 417 c 0,61,62
 496 426 496 426 492 437 c 128,-1,63
 488 448 488 448 478 457 c 128,-1,64
 468 466 468 466 450 472 c 128,-1,65
 432 478 432 478 406 478 c 0,66,67
 366 478 366 478 331.5 462 c 128,-1,68
 297 446 297 446 268.5 419.5 c 128,-1,69
 240 393 240 393 221 359 c 128,-1,70
 202 325 202 325 191 287 c 1,56,57
EndSplineSet
Substitution2: "'case' Case-Sensitive Forms lookup 18 subtable" Eogonek
EndChar

StartChar: hcircumflex
Encoding: 293 293 256
Width: 588
VWidth: 1177
Flags: W
LayerCount: 2
Fore
SplineSet
53 0 m 1,0,-1
 241 788 l 1,1,-1
 343 804 l 1,2,-1
 278 538 l 1,3,4
 302 547 302 547 329 552.5 c 128,-1,5
 356 558 356 558 383 558 c 0,6,7
 430 558 430 558 464 545 c 128,-1,8
 498 532 498 532 519.5 509 c 128,-1,9
 541 486 541 486 551 454.5 c 128,-1,10
 561 423 561 423 561 385 c 0,11,12
 561 360 561 360 556 333 c 128,-1,13
 551 306 551 306 544 278 c 2,14,-1
 477 0 l 1,15,-1
 380 0 l 1,16,-1
 442 257 l 2,17,18
 449 286 449 286 456.5 317.5 c 128,-1,19
 464 349 464 349 464 377 c 0,20,21
 464 418 464 418 440.5 445.5 c 128,-1,22
 417 473 417 473 355 473 c 0,23,24
 302 473 302 473 260 457 c 1,25,-1
 148 0 l 1,26,-1
 53 0 l 1,0,-1
483 866 m 1,27,-1
 444 823 l 1,28,-1
 369 892 l 1,29,-1
 265 824 l 1,30,-1
 237 874 l 1,31,-1
 380 978 l 1,32,-1
 483 866 l 1,27,-1
EndSplineSet
Substitution2: "'case' Case-Sensitive Forms lookup 18 subtable" Hcircumflex
EndChar

StartChar: Hbar
Encoding: 294 294 257
Width: 588
VWidth: 1177
Flags: W
LayerCount: 2
Fore
SplineSet
147 624 m 1,0,-1
 223 624 l 1,1,-1
 249 729 l 1,2,-1
 345 729 l 1,3,-1
 319 624 l 1,4,-1
 527 624 l 1,5,-1
 551 729 l 1,6,-1
 648 729 l 1,7,-1
 623 624 l 1,8,-1
 698 624 l 1,9,-1
 681 550 l 1,10,-1
 604 550 l 1,11,-1
 472 0 l 1,12,-1
 376 0 l 1,13,-1
 457 339 l 1,14,-1
 251 339 l 1,15,-1
 170 0 l 1,16,-1
 74 0 l 1,17,-1
 205 550 l 1,18,-1
 128 550 l 1,19,-1
 147 624 l 1,0,-1
508 550 m 1,20,-1
 302 550 l 1,21,-1
 271 422 l 1,22,-1
 477 422 l 1,23,-1
 508 550 l 1,20,-1
EndSplineSet
EndChar

StartChar: hbar
Encoding: 295 295 258
Width: 588
VWidth: 1177
Flags: W
LayerCount: 2
Fore
SplineSet
94 0 m 1,0,-1
 250 645 l 1,1,-1
 172 645 l 1,2,-1
 188 718 l 1,3,-1
 266 718 l 1,4,-1
 286 800 l 1,5,-1
 388 816 l 1,6,-1
 363 718 l 1,7,-1
 534 718 l 1,8,-1
 516 645 l 1,9,-1
 345 645 l 1,10,-1
 319 538 l 1,11,12
 343 547 343 547 367 552.5 c 128,-1,13
 391 558 391 558 417 558 c 0,14,15
 505 558 505 558 543.5 510 c 128,-1,16
 582 462 582 462 582 385 c 0,17,18
 582 360 582 360 577 333 c 128,-1,19
 572 306 572 306 565 278 c 2,20,-1
 498 0 l 1,21,-1
 402 0 l 1,22,-1
 463 257 l 2,23,24
 470 286 470 286 477.5 317.5 c 128,-1,25
 485 349 485 349 485 377 c 0,26,27
 485 418 485 418 464.5 445.5 c 128,-1,28
 444 473 444 473 389 473 c 0,29,30
 342 473 342 473 302 457 c 1,31,-1
 191 0 l 1,32,-1
 94 0 l 1,0,-1
EndSplineSet
Substitution2: "'case' Case-Sensitive Forms lookup 18 subtable" Hbar
EndChar

StartChar: Iogonek
Encoding: 302 302 265
Width: 588
VWidth: 1177
Flags: W
LayerCount: 2
Fore
SplineSet
227 -197 m 0,0,1
 168 -197 168 -197 145 -178.5 c 128,-1,2
 122 -160 122 -160 122 -131 c 0,3,4
 122 -103 122 -103 141 -76 c 128,-1,5
 160 -49 160 -49 186 -28 c 0,6,7
 197 -19 197 -19 205.5 -12.5 c 128,-1,8
 214 -6 214 -6 223 0 c 1,9,-1
 84 0 l 1,10,-1
 104 82 l 1,11,-1
 244 82 l 1,12,-1
 379 647 l 1,13,-1
 239 647 l 1,14,-1
 259 729 l 1,15,-1
 637 729 l 1,16,-1
 617 647 l 1,17,-1
 477 647 l 1,18,-1
 340 82 l 1,19,-1
 482 82 l 1,20,-1
 462 0 l 1,21,-1
 319 0 l 1,22,23
 306 -8 306 -8 292.5 -18 c 128,-1,24
 279 -28 279 -28 264 -41 c 0,25,26
 251 -50 251 -50 233.5 -67.5 c 128,-1,27
 216 -85 216 -85 216 -106 c 0,28,29
 216 -117 216 -117 224.5 -123.5 c 128,-1,30
 233 -130 233 -130 254 -130 c 0,31,32
 263 -130 263 -130 274.5 -127.5 c 128,-1,33
 286 -125 286 -125 296 -122 c 1,34,-1
 287 -185 l 1,35,36
 261 -197 261 -197 227 -197 c 0,0,1
EndSplineSet
EndChar

StartChar: iogonek
Encoding: 303 303 266
Width: 588
VWidth: 1177
Flags: W
LayerCount: 2
Fore
SplineSet
393 -197 m 0,0,1
 334 -197 334 -197 311.5 -178.5 c 128,-1,2
 289 -160 289 -160 289 -131 c 0,3,4
 289 -103 289 -103 307.5 -76 c 128,-1,5
 326 -49 326 -49 352 -28 c 0,6,7
 361 -20 361 -20 369 -14 c 128,-1,8
 377 -8 377 -8 384 -2 c 1,9,10
 346 0 346 0 320 12.5 c 128,-1,11
 294 25 294 25 278.5 45 c 128,-1,12
 263 65 263 65 256 91 c 128,-1,13
 249 117 249 117 249 146 c 0,14,15
 249 171 249 171 253 197 c 128,-1,16
 257 223 257 223 263 250 c 2,17,-1
 316 465 l 1,18,-1
 158 465 l 1,19,-1
 177 547 l 1,20,-1
 431 547 l 1,21,-1
 359 241 l 2,22,23
 353 217 353 217 349 196.5 c 128,-1,24
 345 176 345 176 345 155 c 0,25,26
 345 122 345 122 362 100.5 c 128,-1,27
 379 79 379 79 428 79 c 0,28,29
 448 79 448 79 466.5 82 c 128,-1,30
 485 85 485 85 502 90 c 1,31,-1
 496 7 l 1,32,33
 483 -2 483 -2 466 -13 c 128,-1,34
 449 -24 449 -24 430 -40 c 0,35,36
 417 -49 417 -49 399.5 -67 c 128,-1,37
 382 -85 382 -85 382 -106 c 0,38,39
 382 -117 382 -117 390.5 -123.5 c 128,-1,40
 399 -130 399 -130 420 -130 c 0,41,42
 429 -130 429 -130 440.5 -127.5 c 128,-1,43
 452 -125 452 -125 462 -122 c 1,44,-1
 453 -185 l 1,45,46
 427 -197 427 -197 393 -197 c 0,0,1
389 631 m 0,47,48
 358 631 358 631 338 649 c 128,-1,49
 318 667 318 667 318 701 c 0,50,51
 318 742 318 742 344 765.5 c 128,-1,52
 370 789 370 789 402 789 c 0,53,54
 433 789 433 789 453 770 c 128,-1,55
 473 751 473 751 473 717 c 0,56,57
 473 697 473 697 465.5 682 c 128,-1,58
 458 667 458 667 445.5 655 c 128,-1,59
 433 643 433 643 418.5 637 c 128,-1,60
 404 631 404 631 389 631 c 0,47,48
EndSplineSet
Substitution2: "'case' Case-Sensitive Forms lookup 18 subtable" Iogonek
EndChar

StartChar: dotlessi
Encoding: 305 305 268
Width: 588
VWidth: 1177
Flags: W
LayerCount: 2
Fore
SplineSet
359 241 m 2,0,1
 353 217 353 217 349 196.5 c 128,-1,2
 345 176 345 176 345 155 c 0,3,4
 345 122 345 122 362 100.5 c 128,-1,5
 379 79 379 79 428 79 c 0,6,7
 448 79 448 79 466.5 82 c 128,-1,8
 485 85 485 85 502 90 c 1,9,-1
 496 7 l 1,10,11
 488 5 488 5 466 0.5 c 128,-1,12
 444 -4 444 -4 404 -4 c 0,13,14
 360 -4 360 -4 330 8 c 128,-1,15
 300 20 300 20 282 40 c 128,-1,16
 264 60 264 60 256.5 87 c 128,-1,17
 249 114 249 114 249 146 c 0,18,19
 249 171 249 171 253 197 c 128,-1,20
 257 223 257 223 263 250 c 2,21,-1
 316 465 l 1,22,-1
 158 465 l 1,23,-1
 177 547 l 1,24,-1
 431 547 l 1,25,-1
 359 241 l 2,0,1
EndSplineSet
EndChar

StartChar: IJ
Encoding: 306 306 270
Width: 588
VWidth: 1177
Flags: W
LayerCount: 2
Fore
SplineSet
120 0 m 1,0,-1
 25 0 l 1,1,-1
 198 729 l 1,2,-1
 294 729 l 1,3,-1
 120 0 l 1,0,-1
703 729 m 1,4,-1
 576 201 l 2,5,6
 549 86 549 86 493 35.5 c 128,-1,7
 437 -15 437 -15 335 -15 c 0,8,9
 294 -15 294 -15 256 -0.5 c 128,-1,10
 218 14 218 14 192 44 c 1,11,-1
 251 122 l 1,12,13
 266 100 266 100 289.5 84 c 128,-1,14
 313 68 313 68 353 68 c 0,15,16
 399 68 399 68 431 100 c 128,-1,17
 463 132 463 132 479 203 c 2,18,-1
 605 729 l 1,19,-1
 703 729 l 1,4,-1
EndSplineSet
EndChar

StartChar: ij
Encoding: 307 307 271
Width: 588
VWidth: 1177
Flags: W
LayerCount: 2
Fore
SplineSet
211 0 m 1,0,-1
 113 0 l 1,1,-1
 245 547 l 1,2,-1
 342 547 l 1,3,-1
 211 0 l 1,0,-1
323 638 m 0,4,5
 296 638 296 638 278 654.5 c 128,-1,6
 260 671 260 671 260 701 c 0,7,8
 260 739 260 739 283.5 760 c 128,-1,9
 307 781 307 781 337 781 c 0,10,11
 364 781 364 781 382 764.5 c 128,-1,12
 400 748 400 748 400 717 c 0,13,14
 400 682 400 682 375.5 660 c 128,-1,15
 351 638 351 638 323 638 c 0,4,5
456 21 m 2,16,17
 442 -38 442 -38 424 -79 c 128,-1,18
 406 -120 406 -120 381 -146.5 c 128,-1,19
 356 -173 356 -173 319.5 -185.5 c 128,-1,20
 283 -198 283 -198 231 -198 c 0,21,22
 213 -198 213 -198 190.5 -193 c 128,-1,23
 168 -188 168 -188 155 -179 c 1,24,-1
 178 -98 l 1,25,26
 203 -113 203 -113 246 -113 c 0,27,28
 294 -113 294 -113 319 -76.5 c 128,-1,29
 344 -40 344 -40 359 20 c 2,30,-1
 485 547 l 1,31,-1
 582 547 l 1,32,-1
 456 21 l 2,16,17
563 638 m 0,33,34
 536 638 536 638 517.5 654.5 c 128,-1,35
 499 671 499 671 499 701 c 0,36,37
 499 739 499 739 523 760 c 128,-1,38
 547 781 547 781 576 781 c 0,39,40
 604 781 604 781 622.5 764.5 c 128,-1,41
 641 748 641 748 641 717 c 0,42,43
 641 682 641 682 616 660 c 128,-1,44
 591 638 591 638 563 638 c 0,33,34
EndSplineSet
Substitution2: "'case' Case-Sensitive Forms lookup 18 subtable" IJ
EndChar

StartChar: kgreenlandic.case
Encoding: 65538 -1 276
Width: 588
VWidth: 1177
Flags: W
LayerCount: 2
Fore
SplineSet
567 547 m 1,0,1
 571 560 571 560 573.5 570.5 c 128,-1,2
 576 581 576 581 578 591 c 0,3,4
 596 645 596 645 629 699 c 128,-1,5
 662 753 662 753 702 800 c 1,6,-1
 771 775 l 1,7,8
 737 728 737 728 715 681.5 c 128,-1,9
 693 635 693 635 683 594 c 0,10,11
 681 583 681 583 678.5 571 c 128,-1,12
 676 559 676 559 674 547 c 1,13,-1
 567 547 l 1,0,1
609 729 m 1,14,15
 575 682 575 682 542 639 c 128,-1,16
 509 596 509 596 475 553 c 128,-1,17
 441 510 441 510 404 466.5 c 128,-1,18
 367 423 367 423 327 373 c 1,19,20
 354 335 354 335 374.5 296.5 c 128,-1,21
 395 258 395 258 410 214 c 128,-1,22
 425 170 425 170 436.5 117.5 c 128,-1,23
 448 65 448 65 457 0 c 1,24,-1
 350 0 l 1,25,26
 337 110 337 110 308 203 c 128,-1,27
 279 296 279 296 232 349 c 1,28,-1
 148 0 l 1,29,-1
 53 0 l 1,30,-1
 227 729 l 1,31,-1
 324 729 l 1,32,-1
 245 404 l 1,33,34
 312 482 312 482 377 565 c 128,-1,35
 442 648 442 648 498 729 c 1,36,-1
 609 729 l 1,14,15
EndSplineSet
EndChar

StartChar: kgreenlandic
Encoding: 312 312 277
Width: 588
VWidth: 1177
Flags: W
LayerCount: 2
Fore
SplineSet
74 0 m 1,0,-1
 205 547 l 1,1,-1
 302 547 l 1,2,-1
 249 324 l 1,3,4
 284 350 284 350 322 379 c 128,-1,5
 360 408 360 408 397.5 436.5 c 128,-1,6
 435 465 435 465 468 493.5 c 128,-1,7
 501 522 501 522 527 547 c 1,8,-1
 642 547 l 1,9,10
 617 520 617 520 577.5 485.5 c 128,-1,11
 538 451 538 451 495 416.5 c 128,-1,12
 452 382 452 382 409.5 350.5 c 128,-1,13
 367 319 367 319 337 297 c 1,14,15
 365 272 365 272 395 238 c 128,-1,16
 425 204 425 204 453 164.5 c 128,-1,17
 481 125 481 125 504.5 82.5 c 128,-1,18
 528 40 528 40 542 0 c 1,19,-1
 428 0 l 1,20,21
 395 85 395 85 344 157 c 128,-1,22
 293 229 293 229 237 273 c 1,23,-1
 171 0 l 1,24,-1
 74 0 l 1,0,-1
EndSplineSet
Substitution2: "'case' Case-Sensitive Forms lookup 18 subtable" kgreenlandic.case
EndChar

StartChar: lacute
Encoding: 314 314 279
Width: 588
VWidth: 1177
Flags: W
LayerCount: 2
Fore
SplineSet
366 716 m 1,0,-1
 208 716 l 1,1,-1
 229 799 l 1,2,-1
 483 799 l 1,3,-1
 344 223 l 2,4,5
 338 199 338 199 334.5 177 c 128,-1,6
 331 155 331 155 331 137 c 0,7,8
 331 103 331 103 347.5 86 c 128,-1,9
 364 69 364 69 409 69 c 0,10,11
 440 69 440 69 469 80 c 128,-1,12
 498 91 498 91 515 100 c 1,13,-1
 522 18 l 1,14,15
 506 9 506 9 468.5 -2 c 128,-1,16
 431 -13 431 -13 382 -13 c 0,17,18
 304 -13 304 -13 269 20.5 c 128,-1,19
 234 54 234 54 234 121 c 0,20,21
 234 169 234 169 250 231 c 2,22,-1
 366 716 l 1,0,-1
543 902 m 1,23,-1
 362 837 l 1,24,-1
 344 890 l 1,25,-1
 521 978 l 1,26,-1
 543 902 l 1,23,-1
EndSplineSet
Substitution2: "'case' Case-Sensitive Forms lookup 18 subtable" Lacute
EndChar

StartChar: Lslash
Encoding: 321 321 286
Width: 588
VWidth: 1177
Flags: W
LayerCount: 2
Fore
SplineSet
496 82 m 1,0,-1
 476 0 l 1,1,-1
 77 0 l 1,2,-1
 147 296 l 1,3,-1
 69 259 l 1,4,-1
 53 331 l 1,5,-1
 170 388 l 1,6,-1
 252 729 l 1,7,-1
 349 729 l 1,8,-1
 277 430 l 1,9,-1
 417 496 l 1,10,-1
 433 424 l 1,11,-1
 256 339 l 1,12,-1
 193 82 l 1,13,-1
 496 82 l 1,0,-1
EndSplineSet
EndChar

StartChar: lslash
Encoding: 322 322 287
Width: 588
VWidth: 1177
Flags: W
LayerCount: 2
Fore
SplineSet
280 359 m 1,0,-1
 205 324 l 1,1,-1
 188 397 l 1,2,-1
 302 450 l 1,3,-1
 369 728 l 1,4,-1
 211 728 l 1,5,-1
 231 810 l 1,6,-1
 485 810 l 1,7,-1
 408 492 l 1,8,-1
 489 530 l 1,9,-1
 506 457 l 1,10,-1
 386 400 l 1,11,-1
 344 223 l 2,12,13
 338 199 338 199 334.5 177 c 128,-1,14
 331 155 331 155 331 137 c 0,15,16
 331 103 331 103 347.5 86 c 128,-1,17
 364 69 364 69 409 69 c 0,18,19
 440 69 440 69 469 80 c 128,-1,20
 498 91 498 91 515 100 c 1,21,-1
 522 18 l 1,22,23
 506 9 506 9 468.5 -2 c 128,-1,24
 431 -13 431 -13 382 -13 c 0,25,26
 304 -13 304 -13 269 20.5 c 128,-1,27
 234 54 234 54 234 121 c 0,28,29
 234 169 234 169 250 231 c 2,30,-1
 280 359 l 1,0,-1
EndSplineSet
Substitution2: "'case' Case-Sensitive Forms lookup 18 subtable" Lslash
EndChar

StartChar: napostrophe.case
Encoding: 65539 -1 294
Width: 588
VWidth: 1177
Flags: W
LayerCount: 2
Fore
SplineSet
344 816 m 1,0,1
 337 783 337 783 323.5 751.5 c 128,-1,2
 310 720 310 720 294 691 c 128,-1,3
 278 662 278 662 259.5 637 c 128,-1,4
 241 612 241 612 224 595 c 1,5,-1
 163 618 l 1,6,7
 194 667 194 667 215 716.5 c 128,-1,8
 236 766 236 766 243 816 c 1,9,-1
 344 816 l 1,0,1
417 0 m 1,10,11
 418 113 418 113 417 237.5 c 128,-1,12
 416 362 416 362 416 496 c 1,13,-1
 296 0 l 1,14,-1
 213 0 l 1,15,-1
 389 729 l 1,16,-1
 477 729 l 1,17,18
 482 611 482 611 486.5 488.5 c 128,-1,19
 491 366 491 366 486 263 c 1,20,-1
 598 729 l 1,21,-1
 681 729 l 1,22,-1
 505 0 l 1,23,-1
 417 0 l 1,10,11
EndSplineSet
EndChar

StartChar: Eng
Encoding: 330 330 296
Width: 588
VWidth: 1177
Flags: W
LayerCount: 2
Fore
SplineSet
423 22 m 1,0,1
 403 120 403 120 383.5 198 c 128,-1,2
 364 276 364 276 345.5 343 c 128,-1,3
 327 410 327 410 310 470 c 128,-1,4
 293 530 293 530 276 592 c 1,5,-1
 135 0 l 1,6,-1
 47 0 l 1,7,-1
 223 729 l 1,8,-1
 322 729 l 1,9,10
 349 641 349 641 369 576 c 128,-1,11
 389 511 389 511 404.5 452 c 128,-1,12
 420 393 420 393 434.5 332 c 128,-1,13
 449 271 449 271 464 192 c 1,14,-1
 594 729 l 1,15,-1
 682 729 l 1,16,-1
 506 0 l 2,17,18
 494 -48 494 -48 479.5 -85 c 128,-1,19
 465 -122 465 -122 443.5 -147 c 128,-1,20
 422 -172 422 -172 389.5 -184.5 c 128,-1,21
 357 -197 357 -197 309 -197 c 0,22,23
 294 -197 294 -197 277.5 -194 c 128,-1,24
 261 -191 261 -191 252 -188 c 1,25,-1
 280 -112 l 1,26,27
 286 -114 286 -114 297.5 -115.5 c 128,-1,28
 309 -117 309 -117 324 -117 c 0,29,30
 364 -117 364 -117 383 -91.5 c 128,-1,31
 402 -66 402 -66 413 -18 c 2,32,-1
 423 22 l 1,0,1
EndSplineSet
EndChar

StartChar: eng
Encoding: 331 331 297
Width: 588
VWidth: 1177
Flags: W
LayerCount: 2
Fore
SplineSet
171 0 m 1,0,-1
 74 0 l 1,1,-1
 200 527 l 1,2,3
 248 541 248 541 301.5 549.5 c 128,-1,4
 355 558 355 558 399 558 c 0,5,6
 496 558 496 558 539 511.5 c 128,-1,7
 582 465 582 465 582 390 c 0,8,9
 582 365 582 365 577 337.5 c 128,-1,10
 572 310 572 310 565 280 c 2,11,-1
 497 -6 l 2,12,13
 475 -100 475 -100 432.5 -148.5 c 128,-1,14
 390 -197 390 -197 309 -197 c 0,15,16
 272 -197 272 -197 232 -188 c 1,17,-1
 260 -112 l 1,18,19
 282 -117 282 -117 304 -117 c 0,20,21
 329 -117 329 -117 344.5 -108.5 c 128,-1,22
 360 -100 360 -100 371 -84.5 c 128,-1,23
 382 -69 382 -69 388.5 -48.5 c 128,-1,24
 395 -28 395 -28 400 -5 c 2,25,-1
 464 259 l 2,26,27
 470 285 470 285 477.5 314.5 c 128,-1,28
 485 344 485 344 485 371 c 0,29,30
 485 392 485 392 480.5 411 c 128,-1,31
 476 430 476 430 463.5 443.5 c 128,-1,32
 451 457 451 457 430 465 c 128,-1,33
 409 473 409 473 376 473 c 0,34,35
 349 473 349 473 323.5 470.5 c 128,-1,36
 298 468 298 468 282 462 c 1,37,-1
 171 0 l 1,0,-1
EndSplineSet
Substitution2: "'case' Case-Sensitive Forms lookup 18 subtable" Eng
EndChar

StartChar: Scedilla
Encoding: 350 350 314
Width: 588
VWidth: 1177
Flags: W
LayerCount: 2
Fore
SplineSet
283 -40 m 1,0,1
 304 -52 304 -52 314.5 -65.5 c 128,-1,2
 325 -79 325 -79 325 -104 c 0,3,4
 325 -150 325 -150 292 -174.5 c 128,-1,5
 259 -199 259 -199 203 -199 c 0,6,7
 172 -199 172 -199 151.5 -194.5 c 128,-1,8
 131 -190 131 -190 118 -183 c 1,9,-1
 141 -125 l 1,10,11
 150 -130 150 -130 164 -133.5 c 128,-1,12
 178 -137 178 -137 198 -137 c 0,13,14
 216 -137 216 -137 227 -131.5 c 128,-1,15
 238 -126 238 -126 238 -111 c 0,16,17
 238 -93 238 -93 224.5 -85 c 128,-1,18
 211 -77 211 -77 196 -73 c 1,19,20
 203 -60 203 -60 213 -44.5 c 128,-1,21
 223 -29 223 -29 233 -14 c 1,22,23
 167 -9 167 -9 123.5 7.5 c 128,-1,24
 80 24 80 24 64 37 c 1,25,-1
 108 117 l 1,26,27
 128 104 128 104 170.5 86.5 c 128,-1,28
 213 69 213 69 280 69 c 0,29,30
 312 69 312 69 343.5 76.5 c 128,-1,31
 375 84 375 84 399.5 99.5 c 128,-1,32
 424 115 424 115 438.5 141.5 c 128,-1,33
 453 168 453 168 453 207 c 0,34,35
 453 233 453 233 443 252.5 c 128,-1,36
 433 272 433 272 416 288 c 128,-1,37
 399 304 399 304 376 317.5 c 128,-1,38
 353 331 353 331 326 345 c 0,39,40
 301 358 301 358 277.5 373.5 c 128,-1,41
 254 389 254 389 236.5 409.5 c 128,-1,42
 219 430 219 430 208 459 c 128,-1,43
 197 488 197 488 197 529 c 0,44,45
 197 624 197 624 263.5 685 c 128,-1,46
 330 746 330 746 465 746 c 0,47,48
 494 746 494 746 522.5 741 c 128,-1,49
 551 736 551 736 574 729 c 128,-1,50
 597 722 597 722 615 714.5 c 128,-1,51
 633 707 633 707 642 701 c 1,52,-1
 596 623 l 1,53,54
 578 638 578 638 539.5 649.5 c 128,-1,55
 501 661 501 661 448 661 c 0,56,57
 415 661 415 661 387 654 c 128,-1,58
 359 647 359 647 338.5 632 c 128,-1,59
 318 617 318 617 306 593.5 c 128,-1,60
 294 570 294 570 294 538 c 0,61,62
 294 511 294 511 302.5 492 c 128,-1,63
 311 473 311 473 325 459 c 128,-1,64
 339 445 339 445 359.5 433.5 c 128,-1,65
 380 422 380 422 405 409 c 0,66,67
 436 393 436 393 463 376.5 c 128,-1,68
 490 360 490 360 509.5 338.5 c 128,-1,69
 529 317 529 317 540 287.5 c 128,-1,70
 551 258 551 258 551 217 c 0,71,72
 551 163 551 163 533 121 c 128,-1,73
 515 79 515 79 482.5 50 c 128,-1,74
 450 21 450 21 404 5 c 128,-1,75
 358 -11 358 -11 302 -14 c 1,76,-1
 283 -40 l 1,0,1
EndSplineSet
EndChar

StartChar: scedilla
Encoding: 351 351 315
Width: 588
VWidth: 1177
Flags: W
LayerCount: 2
Fore
SplineSet
294 -40 m 1,0,1
 315 -52 315 -52 326 -65.5 c 128,-1,2
 337 -79 337 -79 337 -104 c 0,3,4
 337 -150 337 -150 304 -174.5 c 128,-1,5
 271 -199 271 -199 214 -199 c 0,6,7
 183 -199 183 -199 163 -194.5 c 128,-1,8
 143 -190 143 -190 130 -183 c 1,9,-1
 153 -125 l 1,10,11
 162 -130 162 -130 176 -133.5 c 128,-1,12
 190 -137 190 -137 210 -137 c 0,13,14
 228 -137 228 -137 239 -131.5 c 128,-1,15
 250 -126 250 -126 250 -111 c 0,16,17
 250 -93 250 -93 236.5 -85 c 128,-1,18
 223 -77 223 -77 207 -73 c 1,19,20
 214 -60 214 -60 225 -44 c 128,-1,21
 236 -28 236 -28 246 -13 c 1,22,23
 191 -8 191 -8 152 5.5 c 128,-1,24
 113 19 113 19 93 29 c 1,25,-1
 132 112 l 1,26,27
 151 99 151 99 191 83.5 c 128,-1,28
 231 68 231 68 285 68 c 0,29,30
 311 68 311 68 336.5 72.5 c 128,-1,31
 362 77 362 77 382 86 c 128,-1,32
 402 95 402 95 414 111.5 c 128,-1,33
 426 128 426 128 426 152 c 0,34,35
 426 185 426 185 398.5 204 c 128,-1,36
 371 223 371 223 322 246 c 0,37,38
 298 258 298 258 275.5 270 c 128,-1,39
 253 282 253 282 236 297 c 128,-1,40
 219 312 219 312 208.5 334 c 128,-1,41
 198 356 198 356 198 386 c 0,42,43
 198 465 198 465 259 512 c 128,-1,44
 320 559 320 559 432 559 c 0,45,46
 487 559 487 559 528 550 c 128,-1,47
 569 541 569 541 589 530 c 1,48,-1
 552 448 l 1,49,50
 534 459 534 459 498.5 468 c 128,-1,51
 463 477 463 477 418 477 c 0,52,53
 394 477 394 477 371.5 473 c 128,-1,54
 349 469 349 469 331 459.5 c 128,-1,55
 313 450 313 450 302.5 434.5 c 128,-1,56
 292 419 292 419 292 396 c 0,57,58
 292 368 292 368 321 348.5 c 128,-1,59
 350 329 350 329 393 310 c 0,60,61
 420 299 420 299 444 286 c 128,-1,62
 468 273 468 273 485 256 c 128,-1,63
 502 239 502 239 511.5 216.5 c 128,-1,64
 521 194 521 194 521 164 c 0,65,66
 521 82 521 82 464.5 38 c 128,-1,67
 408 -6 408 -6 314 -13 c 1,68,-1
 294 -40 l 1,0,1
EndSplineSet
Substitution2: "'case' Case-Sensitive Forms lookup 18 subtable" Scedilla
EndChar

StartChar: uni0162
Encoding: 354 354 316
Width: 588
VWidth: 1177
Flags: W
LayerCount: 2
Fore
SplineSet
269 -40 m 1,0,1
 290 -52 290 -52 300.5 -65.5 c 128,-1,2
 311 -79 311 -79 311 -104 c 0,3,4
 311 -150 311 -150 278 -174.5 c 128,-1,5
 245 -199 245 -199 188 -199 c 0,6,7
 157 -199 157 -199 137 -194.5 c 128,-1,8
 117 -190 117 -190 104 -183 c 1,9,-1
 127 -125 l 1,10,11
 136 -130 136 -130 150 -133.5 c 128,-1,12
 164 -137 164 -137 184 -137 c 0,13,14
 202 -137 202 -137 213 -131.5 c 128,-1,15
 224 -126 224 -126 224 -111 c 0,16,17
 224 -98 224 -98 215 -89 c 128,-1,18
 206 -80 206 -80 181 -73 c 1,19,20
 190 -58 190 -58 203.5 -37 c 128,-1,21
 217 -16 217 -16 230 0 c 1,22,-1
 221 0 l 1,23,-1
 378 647 l 1,24,-1
 179 647 l 1,25,-1
 199 729 l 1,26,-1
 694 729 l 1,27,-1
 674 647 l 1,28,-1
 475 647 l 1,29,-1
 319 0 l 1,30,-1
 298 0 l 1,31,-1
 269 -40 l 1,0,1
EndSplineSet
EndChar

StartChar: uni0163
Encoding: 355 355 317
Width: 588
VWidth: 1177
Flags: W
LayerCount: 2
Fore
SplineSet
338 -40 m 1,0,1
 359 -52 359 -52 369.5 -65.5 c 128,-1,2
 380 -79 380 -79 380 -104 c 0,3,4
 380 -150 380 -150 347 -174.5 c 128,-1,5
 314 -199 314 -199 258 -199 c 0,6,7
 227 -199 227 -199 206.5 -194.5 c 128,-1,8
 186 -190 186 -190 173 -183 c 1,9,-1
 197 -125 l 1,10,11
 206 -130 206 -130 219.5 -133.5 c 128,-1,12
 233 -137 233 -137 253 -137 c 0,13,14
 271 -137 271 -137 282 -131.5 c 128,-1,15
 293 -126 293 -126 293 -111 c 0,16,17
 293 -93 293 -93 279.5 -85 c 128,-1,18
 266 -77 266 -77 251 -73 c 1,19,20
 258 -60 258 -60 270.5 -42 c 128,-1,21
 283 -24 283 -24 294 -7 c 1,22,23
 248 2 248 2 220 33.5 c 128,-1,24
 192 65 192 65 192 128 c 0,25,26
 192 154 192 154 196 182.5 c 128,-1,27
 200 211 200 211 207 240 c 2,28,-1
 263 465 l 1,29,-1
 147 465 l 1,30,-1
 166 547 l 1,31,-1
 283 547 l 1,32,-1
 319 700 l 1,33,-1
 420 716 l 1,34,-1
 379 547 l 1,35,-1
 589 547 l 1,36,-1
 570 465 l 1,37,-1
 359 465 l 1,38,-1
 304 231 l 2,39,40
 298 209 298 209 293.5 187.5 c 128,-1,41
 289 166 289 166 289 146 c 0,42,43
 289 101 289 101 309.5 86.5 c 128,-1,44
 330 72 330 72 367 72 c 256,45,46
 404 72 404 72 438.5 79.5 c 128,-1,47
 473 87 473 87 504 99 c 1,48,-1
 502 15 l 1,49,50
 469 3 469 3 433.5 -4.5 c 128,-1,51
 398 -12 398 -12 358 -13 c 1,52,-1
 338 -40 l 1,0,1
EndSplineSet
Substitution2: "'case' Case-Sensitive Forms lookup 18 subtable" uni0162
EndChar

StartChar: Tbar
Encoding: 358 358 320
Width: 588
VWidth: 1177
Flags: W
LayerCount: 2
Fore
SplineSet
694 729 m 1,0,-1
 674 647 l 1,1,-1
 475 647 l 1,2,-1
 418 413 l 1,3,-1
 531 413 l 1,4,-1
 512 335 l 1,5,-1
 398 335 l 1,6,-1
 319 0 l 1,7,-1
 221 0 l 1,8,-1
 302 335 l 1,9,-1
 193 335 l 1,10,-1
 212 413 l 1,11,-1
 320 413 l 1,12,-1
 378 647 l 1,13,-1
 179 647 l 1,14,-1
 199 729 l 1,15,-1
 694 729 l 1,0,-1
EndSplineSet
EndChar

StartChar: tbar
Encoding: 359 359 321
Width: 588
VWidth: 1177
Flags: W
LayerCount: 2
Fore
SplineSet
516 15 m 1,0,1
 482 3 482 3 445 -5 c 128,-1,2
 408 -13 408 -13 366 -13 c 0,3,4
 332 -13 332 -13 303 -6 c 128,-1,5
 274 1 274 1 252.5 17 c 128,-1,6
 231 33 231 33 218.5 60 c 128,-1,7
 206 87 206 87 206 128 c 0,8,9
 206 154 206 154 210 182.5 c 128,-1,10
 214 211 214 211 221 240 c 2,11,-1
 224 249 l 1,12,-1
 110 249 l 1,13,-1
 127 322 l 1,14,-1
 241 322 l 1,15,-1
 277 465 l 1,16,-1
 161 465 l 1,17,-1
 181 547 l 1,18,-1
 297 547 l 1,19,-1
 333 700 l 1,20,-1
 435 716 l 1,21,-1
 393 547 l 1,22,-1
 604 547 l 1,23,-1
 584 465 l 1,24,-1
 373 465 l 1,25,-1
 339 322 l 1,26,-1
 549 322 l 1,27,-1
 531 249 l 1,28,-1
 322 249 l 1,29,-1
 318 231 l 2,30,31
 312 209 312 209 307.5 187.5 c 128,-1,32
 303 166 303 166 303 146 c 0,33,34
 303 101 303 101 323.5 86.5 c 128,-1,35
 344 72 344 72 382 72 c 0,36,37
 419 72 419 72 453.5 79.5 c 128,-1,38
 488 87 488 87 518 99 c 1,39,-1
 516 15 l 1,0,1
EndSplineSet
Substitution2: "'case' Case-Sensitive Forms lookup 18 subtable" Tbar
EndChar

StartChar: Uogonek
Encoding: 370 370 332
Width: 588
VWidth: 1177
Flags: W
LayerCount: 2
Fore
SplineSet
279 -15 m 2,0,1
 231 -15 231 -15 197 1.5 c 128,-1,2
 163 18 163 18 140 45.5 c 128,-1,3
 117 73 117 73 106 109.5 c 128,-1,4
 95 146 95 146 95 186 c 0,5,6
 95 221 95 221 105 261 c 2,7,-1
 217 729 l 1,8,-1
 313 729 l 1,9,-1
 201 263 l 2,10,11
 192 223 192 223 192 188 c 0,12,13
 192 163 192 163 197.5 141.5 c 128,-1,14
 203 120 203 120 214.5 103.5 c 128,-1,15
 226 87 226 87 245.5 77.5 c 128,-1,16
 265 68 265 68 293 68 c 0,17,18
 325 68 325 68 351 76 c 128,-1,19
 377 84 377 84 398 104 c 128,-1,20
 419 124 419 124 435.5 159 c 128,-1,21
 452 194 452 194 466 250 c 2,22,-1
 582 729 l 1,23,-1
 678 729 l 1,24,-1
 561 238 l 2,25,26
 545 170 545 170 521 118.5 c 128,-1,27
 497 67 497 67 451 34 c 0,28,29
 424 14 424 14 395 -7 c 128,-1,30
 366 -28 366 -28 351 -41 c 0,31,32
 345 -46 345 -46 336 -53 c 128,-1,33
 327 -60 327 -60 319.5 -68.5 c 128,-1,34
 312 -77 312 -77 307 -86 c 128,-1,35
 302 -95 302 -95 302 -106 c 256,36,37
 302 -117 302 -117 310.5 -123.5 c 128,-1,38
 319 -130 319 -130 340 -130 c 0,39,40
 349 -130 349 -130 362 -127.5 c 128,-1,41
 375 -125 375 -125 384 -122 c 1,42,-1
 375 -185 l 1,43,44
 349 -197 349 -197 314 -197 c 0,45,46
 255 -197 255 -197 232.5 -178.5 c 128,-1,47
 210 -160 210 -160 210 -131 c 0,48,49
 210 -113 210 -113 217.5 -95.5 c 128,-1,50
 225 -78 225 -78 237.5 -63 c 128,-1,51
 250 -48 250 -48 264 -36 c 128,-1,52
 278 -24 278 -24 292 -14 c 1,53,-1
 279 -15 l 2,0,1
EndSplineSet
EndChar

